<?xml version="1.0" encoding="UTF-8"?>
<!DOCTYPE svg PUBLIC "-//W3C//DTD SVG 1.1//EN" "http://www.w3.org/Graphics/SVG/1.1/DTD/svg11.dtd">
<!-- Creator: CorelDRAW -->
<svg xmlns="http://www.w3.org/2000/svg" xml:space="preserve" width="106.578mm" height="68.9392mm" version="1.1" style="shape-rendering:geometricPrecision; text-rendering:geometricPrecision; image-rendering:optimizeQuality; fill-rule:evenodd; clip-rule:evenodd"
viewBox="0 0 10643.6 6884.71"
 xmlns:xlink="http://www.w3.org/1999/xlink"
 xmlns:xodm="http://www.corel.com/coreldraw/odm/2003">
 <defs>
  <style type="text/css">
   <![CDATA[
    .fil0 {fill:#B4B4B5}
   ]]>
  </style>
 </defs>
 <g id="Layer_x0020_1">
  <metadata id="CorelCorpID_0Corel-Layer"/>
  <g id="_2125213573600">
   <path class="fil0" d="M5346.39 0c397.03,0 761.67,138.3 1048.56,369.43l-17.53 16.14c-106.85,95.06 -226.34,176 -355.92,240.16 -66.7,-120.35 -144.14,-231.87 -230.7,-332.78 -91.99,-107.18 -194.27,-202.56 -305.05,-283.7 -48.64,-5.1 -98.15,-8.08 -148.07,-9.03l8.72 -0.22zm1149.46 457.69c307.61,291.03 504.75,697.31 522.16,1149.79l-37.28 0 -466.51 0 -219.97 0c-14.13,-312.49 -89.76,-606.29 -212.87,-865.24 143.82,-71.37 276.17,-161.97 393.96,-268.62l20.49 -15.93zm522.16 1280.86c-17.42,453.44 -215.4,860.57 -523.86,1151.6 -86.77,-98.04 -264.48,-212.33 -380.89,-273.29 114.51,-264.8 180.15,-562.95 183.33,-878.31l217.63 0 466.51 0 37.28 0zm-624.13 1239.01c-222.63,179.08 -491.99,302.3 -786.96,348.38l4.57 -7.11c63.31,-56.09 123.21,-116.94 179.29,-182.38 102.71,-119.7 192.46,-254.28 266.81,-400.85 92.2,48.64 272.77,161.87 336.28,241.96zm-1350.11 341.16c-288.58,-52.89 -551.15,-179.4 -767.62,-359.65 97.3,-86.77 205.22,-162.08 321.62,-223.47 74.35,146.57 164.11,281.15 266.82,400.85 56.08,65.43 115.98,126.29 179.18,182.27zm-865.44 -447.91c-296.77,-288.9 -486.58,-688.6 -503.68,-1132.27l684.14 0c3.19,315.36 68.83,613.51 183.32,878.31 -132.13,69.15 -254.39,154.75 -363.78,253.96zm-503.68 -1263.33c16.99,-443.78 207.54,-843.99 505.37,-1133.86 117.79,106.65 250.14,197.25 393.95,268.62 -123.11,258.95 -198.73,552.75 -212.86,865.24l-686.47 0zm603.3 -1221.92c247.48,-204.89 554.45,-340.73 891.69,-376.32 -110.79,81.14 -213.08,176.52 -305.05,283.7 -86.57,100.91 -164,212.43 -230.7,332.78 -129.59,-64.15 -249.08,-145.1 -355.93,-240.16zm1885.12 1221.92l-788.55 0 0 -685.73c207.12,-7.76 405.11,-51.62 587.58,-125.65 115.57,242.49 186.94,517.91 200.96,811.39zm-788.55 131.06l790.99 0c-3.19,295.39 -64.36,574.42 -170.58,822.11 -191.5,-82.31 -400.75,-131.27 -620.41,-139.45l0 -682.66zm0 813.83c199.9,8.07 390.24,52.58 564.85,127.03 -69.25,135.96 -152.74,261.08 -248.01,372.08 -94.64,110.46 -201.07,207.11 -316.85,287.31l0 -786.42zm0 -1761.8l0 -699.86c115.78,80.09 222.2,176.74 316.85,287.22 78.5,91.56 149.02,192.46 210.09,301.23 -164.1,65.1 -341.48,103.98 -526.94,111.42zm-882.23 816.91l788.55 0 0 -685.73c-207.12,-7.76 -405.11,-51.62 -587.58,-125.65 -115.57,242.49 -186.94,517.91 -200.96,811.39zm788.55 131.06l-790.99 0c3.19,295.39 64.37,574.42 170.59,822.11 191.5,-82.31 400.74,-131.27 620.4,-139.45l0 -682.66zm0 813.83c-199.89,8.07 -390.24,52.58 -564.85,127.03 69.26,135.96 152.74,261.08 248.02,372.08 94.63,110.46 201.06,207.11 316.84,287.31l0 -786.42zm0 -1761.8l0 -699.86c-115.78,80.09 -222.2,176.74 -316.84,287.22 -78.5,91.56 -149.02,192.46 -210.1,301.23 164.1,65.1 341.48,103.98 526.94,111.42z"/>
   <path class="fil0" d="M4708.66 3730.31c0,0 -1190.9,-421.79 -1381.34,-1476.51l-3327.32 0c0,0 174.52,352.53 439.73,394.69l2204.73 0 1.7 0 173.67 0 44.07 0c35.37,0 64.15,28.79 64.15,64.15l0 0.11c0,35.37 -28.78,64.15 -64.15,64.15l-44.07 0 -173.67 0 -1.7 0 -2125.39 0c0,0 154.65,379.4 456.73,411.06 718.66,0 1437.21,-4.35 2155.13,-4.35 35.37,0 64.15,28.78 64.15,64.15l0 0.1c0,35.37 -28.78,64.15 -64.15,64.15 -691.15,0 -1406.41,5.95 -2105.94,5.95 0,24.54 235.27,372.39 491.77,414.56 630.29,0 1260.47,-4.35 1890.12,-4.35 35.36,0 64.15,28.79 64.15,64.15l0 0.11c0,35.37 -28.79,64.15 -64.15,64.15 -617.96,0 -1236.36,-4.67 -1854.96,-4.67 0,0 140.52,337.24 477.76,411.06l2037.55 0c0,0 467.24,-56.19 641.43,-532.68z"/>
   <path class="fil0" d="M5934.93 3730.31c0,0 1190.89,-421.79 1381.33,-1476.51l3327.33 0c0,0 -174.52,352.53 -439.73,394.69l-2204.73 0 -1.7 0 -173.67 0 -44.08 0c-35.36,0 -64.15,28.79 -64.15,64.15l0 0.11c0,35.37 28.79,64.15 64.15,64.15l44.08 0 173.67 0 1.7 0 2125.39 0c0,0 -154.65,379.4 -456.73,411.06 -718.66,0 -1437.22,-4.35 -2155.13,-4.35 -35.37,0 -64.15,28.78 -64.15,64.15l0 0.1c0,35.37 28.78,64.15 64.15,64.15 691.15,0 1406.41,5.95 2105.94,5.95 0,24.54 -235.27,372.39 -491.78,414.56 -630.28,0 -1260.46,-4.35 -1890.11,-4.35 -35.37,0 -64.15,28.79 -64.15,64.15l0 0.11c0,35.37 28.78,64.15 64.15,64.15 617.96,0 1236.36,-4.67 1854.96,-4.67 0,0 -140.52,337.24 -477.76,411.06l-2037.55 0c0,0 -467.25,-56.19 -641.43,-532.68z"/>
   <path class="fil0" d="M1503.49 6884.71l716 0 433.89 -2177.11 -716 0 -433.89 2177.11zm3741.36 -2177.11l-96.66 530.55 614.78 0 -243.02 1646.56 705.59 0 245.89 -1640.72 570.92 0 105.36 -536.39 -1902.86 0zm2661.77 1473.11l449.4 0 -125.65 -791.73 -323.75 791.73zm521.84 456.73l-708.57 0 -101.11 247.27 -701.23 0 1059.82 -2177.11 706.44 0 448.24 2177.11 -664.38 0 -39.2 -247.27zm-4778.56 -456.73l449.41 0 -125.66 -791.73 -323.75 791.73zm521.84 456.73l-708.56 0 -101.12 247.27 -701.23 0 1059.82 -2177.11 706.45 0 448.23 2177.11 -664.38 0 -39.2 -247.27z"/>
  </g>
 </g>
</svg>
