<?xml version="1.0" encoding="UTF-8"?>
<!DOCTYPE svg PUBLIC "-//W3C//DTD SVG 1.1//EN" "http://www.w3.org/Graphics/SVG/1.1/DTD/svg11.dtd">
<!-- Creator: CorelDRAW -->
<svg xmlns="http://www.w3.org/2000/svg" xml:space="preserve" width="195.722mm" height="75.8684mm" version="1.1" style="shape-rendering:geometricPrecision; text-rendering:geometricPrecision; image-rendering:optimizeQuality; fill-rule:evenodd; clip-rule:evenodd"
viewBox="0 0 19572.22 7586.84"
 xmlns:xlink="http://www.w3.org/1999/xlink"
 xmlns:xodm="http://www.corel.com/coreldraw/odm/2003">
 <defs>
  <style type="text/css">
   <![CDATA[
    .fil0 {fill:#B4B4B5}
    .fil1 {fill:#B4B4B5;fill-opacity:0.949020}
   ]]>
  </style>
 </defs>
 <g id="Layer_x0020_1">
  <metadata id="CorelCorpID_0Corel-Layer"/>
  <g id="_2124870743968">
   <g>
    <path class="fil0" d="M560.87 4626.95l-402.9 86.37c31.52,194.7 180.46,558.69 277.18,696.01 428.42,-6.93 2121.83,-349.84 2683.69,-438.68 646.3,-183.84 52.1,-426.66 845.25,-576.92 345.33,-65.39 3544.24,-690.75 3582.13,-798.17l-15.11 -351.61 -6970.25 1383 0.01 0z"/>
    <path class="fil0" d="M350.55 3601.01l-350.55 95.04 75.64 735.46 396.44 -73.25c435.11,-127.07 1226.12,-255.71 1768.96,-367.71 277.22,-57.24 654.82,-109.76 911.03,-190.52 509.31,-160.51 93.4,-365.24 576.02,-521.5 461.14,-149.25 1294.21,-260.75 1808.83,-360.8 596.07,-115.92 1253.29,-205.88 1853.12,-340.11l-109.7 -365.56c-1209.71,103.03 -5781.83,1113.4 -6929.79,1388.94l0 0.01z"/>
    <path class="fil0" d="M215.26 2606.4c-127.26,23.52 -107.68,13 -165.5,354.95 -23.65,139.9 -43.47,284.96 -44.93,436.59 150.17,-21.18 232.21,-77.73 381.27,-71.44 139.98,-129.55 2043.07,-522.16 2461.78,-610.79 691.05,-146.25 484.82,-195.77 618.05,-421.89 147.34,-250.08 3028.5,-651.23 3457.56,-691.03 -13.53,-132.08 -153.14,-227.27 -206.42,-331.03 -858.59,-8.88 -5894.4,1003.24 -6501.82,1334.64l0.01 0z"/>
    <path class="fil0" d="M3056.08 5293.6l-2448.6 398.08c62.34,148.42 233.75,315.55 336.73,439.45 208.06,250.26 211.2,201.09 605.18,156.96 518.32,-78.99 1180.31,-126.96 1671.47,-252.32 508.4,-129.73 95.88,-304.69 517.42,-455.38l2459.33 -525.2c255.83,-60.24 519.38,-123.32 780.17,-192.07 418.37,-110.26 401.78,-27.88 497.47,-516.69l-2176.42 501.89c-721.37,152.31 -1541.22,272.67 -2242.75,445.27l0 0.01z"/>
    <path class="fil0" d="M968.94 1365.77c-322.05,168.93 -235.79,-18.38 -450.02,336.07 -97.53,161.39 -207.75,378.03 -277.3,575.41l71.44 16.31c293.06,-146.87 1669.54,-474.33 2135.35,-577.4 212.7,-47.06 577.05,-100.74 764.54,-176.26 362.08,-145.84 76.34,-316.44 479.52,-429.89 542.94,-152.7 2095.35,-298.11 2409.72,-385.23 -484.59,-352.87 -526.58,-252.93 -1194.94,-156.56 -904.73,130.45 -1772.72,282.7 -2655.89,480.61 -428.78,96.11 -869.89,237.09 -1282.42,316.94z"/>
    <path class="fil0" d="M1455.84 6564.8c421.49,276.78 786.8,561.93 1310.86,491.99 1267.97,-169.24 540.23,-276.89 965.89,-446.65l2772.78 -584.08c258.95,-62.94 394.7,-272.84 490.67,-474.18 -164.65,-13.66 -1097.53,252.05 -1347.39,306.02 -449.5,97.14 -896.87,186.3 -1356.19,275.29 -930.04,180.16 -1875.42,321.79 -2836.62,431.61z"/>
    <path class="fil0" d="M3009.21 74.17c-666.11,115.21 -1104.19,265.07 -1615.32,650.53 -168.73,127.21 -275.91,257.83 -417.07,365.74l75.41 32.5c7.25,-5.05 18.67,-20.61 22.72,-13.79l192.81 -71.66c79.39,-20.76 142.93,-37.63 224.22,-58.85 146.36,-38.28 303.42,-75.62 454.19,-109.87 315.56,-71.7 632.02,-142.2 958.52,-204.51 128.09,-24.45 343.59,-58.81 443.03,-120.53 198.23,-122.95 -4.71,-190.72 279.57,-285.17 248.89,-82.69 727.14,-119.91 1007.9,-161.95 -604.87,-128.59 -1026.07,-108 -1625.97,-22.44l-0.01 0z"/>
    <path class="fil0" d="M3189.18 7232.14c327.93,180.1 1762.33,-28.47 2316.28,-321.2l127.12 -87.05c-381.74,46.04 -828.81,154.44 -1218.2,220.79 -406.55,69.3 -835.09,128.99 -1225.21,187.46l0.01 0z"/>
    <polygon class="fil0" points="7781.28,6750.66 19213.09,6750.66 19213.09,6824.3 7781.28,6824.3 "/>
    <g>
     <path class="fil0" d="M8336.35 6465.57l-120.94 0 -47.27 -164.72 -222.4 0 -45.71 164.72 -118.74 0 215.02 -727.96 119.05 0 220.99 727.96zm-204.65 -287.74l0 0 -76.65 -270.27 -75.07 270.27 151.72 0zm526.79 287.74l0 0 0 -79.14c-14.76,28.64 -34.08,51.01 -57.95,67.1 -23.88,16.1 -48.85,24.24 -74.92,24.24 -26.39,0 -49.95,-7.47 -70.84,-22.37 -20.89,-14.92 -36.44,-36.1 -46.65,-63.72 -10.21,-27.45 -15.39,-67.44 -15.39,-119.8l0 -333.98 106.49 0 0 242.3c0,69.31 1.57,113.2 4.86,132.01 3.15,18.64 10.22,33.21 21.21,43.39 10.99,10.32 24.34,15.42 39.89,15.42 17.75,0 34.09,-6.79 49.17,-20.17 14.92,-13.39 24.81,-30.67 29.53,-51.69 4.71,-21.01 7.06,-67.27 7.06,-138.77l0 -222.49 106.49 0 0 527.67 -98.95 0zm392.03 -527.67l0 0 0 110.81 -72.56 0 0 213c0,46.26 1.1,72.87 3.3,80.16 4.24,13.39 13.03,19.99 26.22,19.99 9.74,0 23.88,-4.41 42.26,-13.38l9.26 108.44c-24.5,13.9 -52.3,20.85 -83.39,20.85 -27.02,0 -48.69,-6.95 -65.03,-20.85 -16.18,-14.07 -27.17,-34.05 -32.67,-60.33 -4.24,-19.13 -6.44,-58.28 -6.44,-117.42l0 -230.46 -49.01 0 0 -110.81 49.01 0 0 -104.73 106.49 -81.34 0 186.07 72.56 0zm179.99 -200.29l0 0 0 267.05c16.82,-26.43 35.5,-46.26 55.77,-59.31 20.42,-13.05 42.56,-19.65 66.44,-19.65 31.88,0 58.58,9.14 79.94,27.27 21.51,18.31 36.75,44.07 46.02,77.61 6.75,24.58 10.05,66.26 10.05,125.23l0 309.76 -106.49 0 0 -278.92c0,-64.73 -3.77,-105.06 -11.47,-121.32 -10.68,-21.87 -28.74,-32.89 -54.34,-32.89 -27.17,0 -48.22,11.86 -63.29,35.6 -15.08,23.72 -22.63,67.94 -22.63,133.01l0 264.52 -106.48 0 0 -727.96 106.48 0zm340.2 456.67l0 0c0,-51.68 9.59,-98.79 28.59,-141.32 19.01,-42.36 43.82,-74.21 74.46,-95.4 30.78,-21.19 65.18,-31.85 103.65,-31.85 64.39,0 114.96,27.27 151.72,81.83 36.9,54.58 55.28,118.28 55.28,191.15 0,54.39 -9.58,103.54 -28.74,147.26 -19.16,43.72 -44.29,76.75 -75.55,98.78 -31.1,22.04 -65.18,33.05 -102.24,33.05 -59.52,0 -109,-24.58 -148.26,-73.54 -39.27,-49.15 -58.91,-119.13 -58.91,-209.96zm108.39 7.44l0 0c0,53.39 9.73,93.72 29.04,121.17 19.49,27.28 42.89,41.01 70.37,41.01 26.86,0 49.79,-13.73 68.95,-41.36 19,-27.45 28.58,-68.11 28.58,-121.82 0,-52.36 -9.74,-92.36 -29.06,-119.82 -19.47,-27.61 -42.72,-41.33 -69.88,-41.33 -26.86,0 -49.79,13.72 -69.1,41.33 -19.33,27.46 -28.9,67.79 -28.9,120.82zm490.95 263.85l0 0 -106.49 0 0 -527.67 98.96 0 0 74.89c16.96,-35.08 32.04,-58.3 45.39,-69.81 13.35,-11.53 28.74,-17.28 46.18,-17.28 24.34,0 47.43,8.81 69.57,26.25l-33.14 121.67c-17.59,-15.24 -34.08,-22.87 -49.79,-22.87 -14.76,0 -27.8,5.93 -39.11,17.62 -11.15,11.86 -19.31,33.05 -24.19,63.89 -4.86,30.83 -7.38,87.6 -7.38,170.13l0 163.18zm198.7 -598.83l0 0 0 -129.12 106.49 0 0 129.12 -106.49 0zm0 598.83l0 0 0 -527.67 106.49 0 0 527.67 -106.49 0zm172.44 0l0 0 0 -109.14 150.48 -226.55c24.49,-36.77 42.56,-63.21 54.02,-79.13 -12.25,1.02 -28.42,1.7 -48.69,2.03l-140.73 1.01 0 -115.89 329.84 0 0 98.95 -153.61 231.31 -53.25 77.95c29.54,-2.39 47.76,-3.56 54.82,-3.56l164.29 0 0 123.02 -357.17 0zm661.72 -167.76l0 0 105.54 23.39c-14.13,53.04 -36.12,92.35 -65.96,118.1 -29.84,25.59 -66.12,38.47 -108.84,38.47 -59.38,0 -105.08,-21.35 -137.44,-64.22 -38.16,-49.65 -57.17,-119.31 -57.17,-208.77 0,-88.28 19.16,-158.94 57.48,-211.99 32.52,-44.73 74.61,-67.09 126.13,-67.09 57.32,0 102.25,22.86 134.76,68.62 37.54,52.37 56.23,129.63 56.23,231.64l-0.47 15.92 -265.75 0c0.62,41.7 9.26,74.06 26.22,96.93 16.81,22.88 37.08,34.23 60.79,34.23 34.24,0 57.01,-25.08 68.48,-75.23zm5.66 -141.33l0 0c-0.94,-41.18 -9.1,-72.19 -24.5,-92.85 -15.39,-20.85 -33.61,-31.19 -54.97,-31.19 -22.46,0 -41.3,10.86 -56.7,32.37 -15.71,21.87 -23.4,52.54 -23.09,91.67l159.26 0zm558.84 309.09l0 0 -98.95 0 0 -77.45c-16.18,29.83 -35.34,52.19 -57.49,67.11 -21.98,15.07 -44.61,22.54 -67.85,22.54 -44.76,0 -83.71,-24.06 -117.02,-72.37 -33.13,-48.28 -49.78,-117.09 -49.78,-206.72 0,-90.15 16.17,-158.26 48.69,-204.2 32.36,-45.92 72.41,-68.78 119.84,-68.78 22.3,0 43.19,6.1 62.67,18.3 19.31,12.36 37.22,30.67 53.4,55.24l0 -261.63 106.49 0 0 727.96zm-282.72 -275.03l0 0c0,47.8 3.78,83.38 11.31,106.92 7.38,23.39 18.07,41.01 32.04,52.88 13.98,11.69 29.68,17.62 47.12,17.62 23.25,0 43.35,-13.55 60.47,-40.83 17.12,-27.28 25.76,-68.29 25.76,-123.19 0,-60.84 -8.33,-104.56 -24.97,-131.34 -16.65,-26.76 -37.86,-40.16 -63.62,-40.16 -24.49,0 -45.23,13.06 -62.35,39.31 -17.12,26.27 -25.76,65.92 -25.76,118.79zm603.13 275.03l0 0 0 -727.96 409.93 0 0 123.02 -298.73 0 0 160.63 277.99 0 0 123.02 -277.99 0 0 198.27 309.1 0 0 123.02 -420.3 0zm864 -371.1l0 0 -104.61 24.39c-7.69,-55.58 -31.88,-83.36 -72.72,-83.36 -26.22,0 -47.43,11.86 -63.45,35.76 -16.02,23.89 -24.03,64.22 -24.03,120.97 0,62.7 8.01,106.93 24.03,132.85 15.86,25.94 37.23,38.82 63.92,38.82 19.95,0 36.45,-7.47 49.32,-22.2 12.89,-14.74 22.15,-41.01 27.64,-78.47l104.61 23.39c-21.52,127.43 -83.24,191.15 -185.33,191.15 -65.19,0 -113.56,-26.95 -145.13,-80.66 -31.57,-53.71 -47.43,-118.29 -47.43,-193.85 0,-90.5 17.9,-159.46 53.71,-206.74 35.82,-47.28 82.61,-70.82 140.73,-70.82 46.97,0 85.29,13.54 114.97,40.5 29.53,26.93 50.89,69.63 63.77,128.27zm54.65 99.81l0 0c0,-51.68 9.59,-98.79 28.59,-141.32 19.01,-42.36 43.82,-74.21 74.46,-95.4 30.78,-21.19 65.18,-31.85 103.65,-31.85 64.4,0 114.98,27.27 151.73,81.83 36.91,54.58 55.29,118.28 55.29,191.15 0,54.39 -9.59,103.54 -28.75,147.26 -19.16,43.72 -44.28,76.75 -75.55,98.78 -31.1,22.04 -65.18,33.05 -102.24,33.05 -59.53,0 -109.01,-24.58 -148.27,-73.54 -39.26,-49.15 -58.91,-119.13 -58.91,-209.96zm108.38 7.44l0 0c0,53.39 9.73,93.72 29.05,121.17 19.48,27.28 42.88,41.01 70.37,41.01 26.86,0 49.79,-13.73 68.95,-41.36 19,-27.45 28.58,-68.11 28.58,-121.82 0,-52.36 -9.74,-92.36 -29.05,-119.82 -19.48,-27.61 -42.73,-41.33 -69.9,-41.33 -26.85,0 -49.79,13.72 -69.1,41.33 -19.33,27.46 -28.9,67.79 -28.9,120.82zm752.96 263.85l0 0 -106.49 0 0 -269.6c0,-53.89 -2.05,-89.99 -5.97,-107.77 -3.93,-17.96 -11.46,-31.69 -22.3,-41.36 -10.84,-9.64 -23.25,-14.4 -37.07,-14.4 -17.75,0 -33.77,6.28 -48.22,18.64 -14.45,12.38 -24.5,29.67 -30.31,51.51 -5.81,21.87 -8.8,63.04 -8.8,123.71l0 239.27 -106.49 0 0 -527.67 98.96 0 0 77.1c17.43,-29.67 37.22,-52.03 59.05,-66.94 21.99,-14.92 46.18,-22.36 72.88,-22.36 30.94,0 57.17,8.64 78.37,26.08 21.37,17.46 36.13,39.83 44.14,67.11 8.17,27.28 12.25,66.94 12.25,118.61l0 328.07zm82.92 -271.29l0 0c0,-51.68 9.59,-98.79 28.59,-141.32 19.01,-42.36 43.82,-74.21 74.46,-95.4 30.78,-21.19 65.18,-31.85 103.65,-31.85 64.4,0 114.97,27.27 151.73,81.83 36.9,54.58 55.29,118.28 55.29,191.15 0,54.39 -9.59,103.54 -28.75,147.26 -19.16,43.72 -44.29,76.75 -75.55,98.78 -31.1,22.04 -65.18,33.05 -102.25,33.05 -59.52,0 -109,-24.58 -148.26,-73.54 -39.27,-49.15 -58.91,-119.13 -58.91,-209.96zm108.39 7.44l0 0c0,53.39 9.73,93.72 29.04,121.17 19.49,27.28 42.89,41.01 70.37,41.01 26.87,0 49.8,-13.73 68.96,-41.36 19,-27.45 28.58,-68.11 28.58,-121.82 0,-52.36 -9.74,-92.36 -29.06,-119.82 -19.47,-27.61 -42.72,-41.33 -69.89,-41.33 -26.86,0 -49.79,13.72 -69.1,41.33 -19.33,27.46 -28.9,67.79 -28.9,120.82zm380.72 -263.82l0 0 98.95 0 0 72c17.43,-28.12 36.59,-49.31 57.48,-63.2 20.89,-14.06 43.51,-21 67.69,-21 25.76,0 48.07,6.94 66.92,20.84 18.84,13.88 34.38,34.91 46.33,63.04 17.75,-28.13 36.91,-49.16 57.17,-63.04 20.42,-13.9 42.09,-20.84 65.18,-20.84 27.34,0 50.89,7.11 70.68,21.17 19.79,14.07 34.71,34.23 45.08,60.33 10.21,26.27 15.39,66.42 15.39,120.81l0 337.56 -106.49 0 0 -301.79c0,-52.71 -4.4,-87.79 -13.03,-105.23 -8.64,-17.46 -23.09,-26.11 -43.51,-26.11 -23.72,0 -42.88,12.21 -57.33,36.6 -14.61,24.24 -21.83,72.02 -21.83,142.85l0 253.68 -106.49 0 0 -289.43c0,-57.28 -2.99,-94.39 -8.8,-110.81 -7.53,-21.87 -23.09,-32.89 -46.33,-32.89 -15.71,0 -30.16,5.6 -43.35,16.95 -13.19,11.18 -22.62,27.8 -28.43,49.49 -5.81,21.68 -8.8,58.45 -8.8,110.14l0 256.55 -106.48 0 0 -527.67zm695.47 -71.17l0 0 0 -129.12 106.48 0 0 129.12 -106.48 0zm0 598.83l0 0 0 -527.67 106.48 0 0 527.67 -106.48 0zm564.49 -371.1l0 0 -104.61 24.39c-7.69,-55.58 -31.89,-83.36 -72.72,-83.36 -26.23,0 -47.43,11.86 -63.45,35.76 -16.03,23.89 -24.04,64.22 -24.04,120.97 0,62.7 8.01,106.93 24.04,132.85 15.86,25.94 37.22,38.82 63.92,38.82 19.94,0 36.44,-7.47 49.32,-22.2 12.88,-14.74 22.14,-41.01 27.64,-78.47l104.61 23.39c-21.52,127.43 -83.25,191.15 -185.34,191.15 -65.18,0 -113.56,-26.95 -145.13,-80.66 -31.57,-53.71 -47.43,-118.29 -47.43,-193.85 0,-90.5 17.91,-159.46 53.72,-206.74 35.81,-47.28 82.61,-70.82 140.73,-70.82 46.96,0 85.28,13.54 114.97,40.5 29.52,26.93 50.89,69.63 63.77,128.27zm273.29 11.51l0 0c0,-86.59 11.93,-157.92 35.65,-214.01 23.71,-56.08 54.82,-97.94 93.14,-125.39 38.33,-27.45 84.82,-41.18 139.32,-41.18 79.16,0 143.55,32.54 193.34,97.78 49.8,65.24 74.77,157.92 74.77,278.4 0,121.66 -26.39,216.91 -79.16,285.36 -46.18,60.49 -109.16,90.83 -188.49,90.83 -80.1,0 -143.24,-29.99 -189.41,-89.81 -52.77,-68.46 -79.16,-162.5 -79.16,-281.98zm114.98 -4.9l0 0c0,83.53 14.76,146.23 44.14,187.91 29.52,41.86 66.12,62.7 109.62,62.7 43.98,0 80.42,-20.67 109.16,-62.18 28.9,-41.35 43.35,-105.07 43.35,-190.97 0,-84.06 -13.97,-146.41 -42.09,-186.57 -28.11,-40.34 -64.87,-60.49 -110.42,-60.49 -45.39,0 -82.3,20.33 -110.88,60.83 -28.59,40.66 -42.88,103.54 -42.88,188.77zm505.27 -163.18l0 0 98.95 0 0 77.43c13.5,-27.78 31.25,-49.65 53.39,-65.74 22,-15.93 45.87,-23.89 71.31,-23.89 45.72,0 84.98,23.54 117.96,70.65 32.99,47.11 49.48,113.87 49.48,200.46 0,90.84 -16.49,160.31 -49.64,208.59 -33.14,48.31 -72.56,72.37 -118.11,72.37 -21.2,0 -40.83,-5.6 -59.21,-16.62 -18.22,-11.18 -37.39,-31.16 -57.65,-60.31l0 265.02 -106.48 0 0 -727.96zm105.07 254.67l0 0c0,59.64 8.96,103.71 26.86,132.01 17.9,28.29 39.58,42.35 65.03,42.35 24.02,0 44.44,-13.05 60.94,-39.14 16.49,-26.1 24.81,-68.63 24.81,-127.77 0,-56.25 -8.48,-97.6 -25.44,-124.37 -16.96,-26.77 -37.7,-40.16 -62.2,-40.16 -25.76,0 -47.12,13.04 -64.24,39.14 -17.12,26.09 -25.76,65.4 -25.76,117.94zm602.65 105.23l0 0 105.55 23.39c-14.14,53.04 -36.12,92.35 -65.96,118.1 -29.84,25.59 -66.12,38.47 -108.84,38.47 -59.38,0 -105.09,-21.35 -137.44,-64.22 -38.17,-49.65 -57.18,-119.31 -57.18,-208.77 0,-88.28 19.17,-158.94 57.49,-211.99 32.52,-44.73 74.61,-67.09 126.12,-67.09 57.33,0 102.26,22.86 134.77,68.62 37.53,52.37 56.23,129.63 56.23,231.64l-0.47 15.92 -265.75 0c0.62,41.7 9.26,74.06 26.22,96.93 16.81,22.88 37.07,34.23 60.78,34.23 34.24,0 57.02,-25.08 68.48,-75.23zm5.66 -141.33l0 0c-0.94,-41.18 -9.1,-72.19 -24.5,-92.85 -15.4,-20.85 -33.61,-31.19 -54.97,-31.19 -22.46,0 -41.31,10.86 -56.7,32.37 -15.71,21.87 -23.41,52.54 -23.09,91.67l159.26 0zm293.09 309.09l0 0 -106.49 0 0 -527.67 98.96 0 0 74.89c16.96,-35.08 32.04,-58.3 45.39,-69.81 13.34,-11.53 28.74,-17.28 46.18,-17.28 24.34,0 47.42,8.81 69.57,26.25l-33.14 121.67c-17.59,-15.24 -34.08,-22.87 -49.79,-22.87 -14.76,0 -27.8,5.93 -39.11,17.62 -11.15,11.86 -19.31,33.05 -24.19,63.89 -4.87,30.83 -7.38,87.6 -7.38,170.13l0 163.18zm278.8 -367.02l0 0 -96.13 -21.35c11.62,-53.89 30.78,-92.53 57.64,-116.09 26.7,-23.55 65.18,-35.4 115.45,-35.4 44.76,0 78.84,6.77 102.4,20.32 23.56,13.56 40.37,32.04 50.57,55.41 10.06,23.39 15.08,65.92 15.08,127.6l-0.94 163.02c0,45.74 1.73,79.8 5.03,102.17 3.3,22.37 9.42,46.09 18.53,71.35l-104.6 0 -13.82 -57.62c-18.07,23.21 -37.54,40.67 -58.28,52.36 -20.73,11.69 -42.72,17.46 -66.12,17.46 -38.95,0 -70.99,-14.24 -95.81,-42.54 -24.98,-28.46 -37.39,-66.08 -37.39,-113.19 0,-29.99 5.04,-55.92 15.24,-78.29 10.22,-22.2 24.51,-39.98 42.88,-53.21 18.54,-13.21 48.06,-25.07 88.74,-35.25 49.16,-12.36 83.56,-23.72 102.88,-34.37 0,-29.15 -1.88,-48.31 -5.81,-57.45 -3.77,-8.99 -10.84,-16.45 -21.04,-22.37 -10.22,-5.76 -24.67,-8.65 -43.36,-8.65 -19.01,0 -33.92,4.59 -44.77,13.91 -10.83,9.31 -19.63,26.6 -26.37,52.19l0 -0.01zm141.35 112.85l0 0c-13.51,5.92 -34.71,13.05 -63.3,21 -32.98,9.32 -54.5,19.66 -64.71,30.84 -10.2,11.36 -15.24,26.11 -15.24,44.07 0,20.16 5.66,37.27 16.81,51.17 11.31,13.72 25.45,20.68 42.41,20.68 15.08,0 30,-5.59 44.76,-16.79 14.77,-11.17 24.97,-24.4 30.79,-39.64 5.65,-15.25 8.48,-43.05 8.48,-83.38l0 -27.95zm392.03 -273.49l0 0 0 110.81 -72.56 0 0 213c0,46.26 1.1,72.87 3.3,80.16 4.24,13.39 13.03,19.99 26.22,19.99 9.75,0 23.88,-4.41 42.26,-13.38l9.26 108.44c-24.5,13.9 -52.3,20.85 -83.39,20.85 -27.02,0 -48.69,-6.95 -65.03,-20.85 -16.18,-14.07 -27.17,-34.05 -32.67,-60.33 -4.24,-19.13 -6.44,-58.28 -6.44,-117.42l0 -230.46 -49 0 0 -110.81 49 0 0 -104.73 106.49 -81.34 0 186.07 72.56 0zm48.06 256.37l0 0c0,-51.68 9.58,-98.79 28.58,-141.32 19.02,-42.36 43.83,-74.21 74.46,-95.4 30.78,-21.19 65.18,-31.85 103.66,-31.85 64.4,0 114.97,27.27 151.72,81.83 36.91,54.58 55.29,118.28 55.29,191.15 0,54.39 -9.58,103.54 -28.74,147.26 -19.16,43.72 -44.29,76.75 -75.55,98.78 -31.1,22.04 -65.18,33.05 -102.25,33.05 -59.53,0 -109,-24.58 -148.27,-73.54 -39.26,-49.15 -58.9,-119.13 -58.9,-209.96zm108.38 7.44l0 0c0,53.39 9.73,93.72 29.05,121.17 19.48,27.28 42.89,41.01 70.37,41.01 26.86,0 49.79,-13.73 68.95,-41.36 19,-27.45 28.59,-68.11 28.59,-121.82 0,-52.36 -9.74,-92.36 -29.06,-119.82 -19.47,-27.61 -42.72,-41.33 -69.9,-41.33 -26.85,0 -49.78,13.72 -69.1,41.33 -19.32,27.46 -28.9,67.79 -28.9,120.82zm490.98 263.85l0 0 -106.49 0 0 -527.67 98.95 0 0 74.89c16.97,-35.08 32.05,-58.3 45.39,-69.81 13.35,-11.53 28.75,-17.28 46.18,-17.28 24.34,0 47.43,8.81 69.58,26.25l-33.14 121.67c-17.59,-15.24 -34.08,-22.87 -49.79,-22.87 -14.76,0 -27.8,5.93 -39.11,17.62 -11.15,11.86 -19.32,33.05 -24.19,63.89 -4.87,30.83 -7.38,87.6 -7.38,170.13l0 163.18z"/>
     <g>
      <path class="fil0" d="M7781.28 7469.64l0 -399.55 124.39 0c21.86,0 38.58,1.29 50.16,3.81 16.18,3.26 29.75,9.49 40.72,18.59 10.97,9.22 19.79,22.05 26.46,38.51 6.67,16.46 9.97,34.6 9.97,54.42 0,33.85 -8.9,62.59 -26.77,86.03 -17.79,23.53 -50.07,35.24 -96.7,35.24l-84.52 0 0 162.95 -43.71 0zm43.71 -209.83l0 0 85.13 0c28.22,0 48.16,-6.31 60.05,-19.06 11.81,-12.75 17.71,-30.6 17.71,-53.76 0,-16.64 -3.44,-30.96 -10.42,-42.88 -6.98,-11.9 -16.19,-19.81 -27.53,-23.62 -7.37,-2.32 -20.94,-3.53 -40.66,-3.53l-84.28 0 0 142.85zm257.69 209.83l0 0 0 -289.62 36.35 0 0 44.36c9.28,-20.56 17.87,-34.13 25.77,-40.65 7.9,-6.6 16.57,-9.86 25.99,-9.86 13.66,0 27.54,5.21 41.65,15.54l-14.42 45.3c-9.81,-6.71 -19.63,-10.05 -29.44,-10.05 -8.83,0 -16.73,3.26 -23.7,9.68 -6.98,6.41 -11.97,15.34 -14.96,26.78 -4.52,17.38 -6.75,36.46 -6.75,57.2l0 151.32 -40.49 0zm138.5 -144.81l0 0c0,-53.47 12.27,-93.09 36.89,-118.85 20.47,-21.4 45.56,-32.1 75.08,-32.1 32.75,0 59.59,13.02 80.44,39.07 20.79,25.94 31.22,61.94 31.22,107.8 0,37.2 -4.6,66.39 -13.8,87.7 -9.2,21.3 -22.63,37.86 -40.27,49.66 -17.56,11.81 -36.81,17.67 -57.59,17.67 -33.44,0 -60.44,-12.93 -81.06,-38.88 -20.62,-25.95 -30.91,-63.33 -30.91,-112.07zm41.41 0.1l0 0c0,37.02 6.68,64.73 20.02,83.05 13.42,18.42 30.22,27.63 50.54,27.63 20.09,0 36.81,-9.21 50.23,-27.73 13.34,-18.49 20.01,-46.67 20.01,-84.53 0,-35.72 -6.74,-62.79 -20.17,-81.1 -13.41,-18.42 -30.13,-27.62 -50.07,-27.62 -20.32,0 -37.12,9.1 -50.54,27.44 -13.34,18.31 -20.02,45.93 -20.02,82.86zm222.26 168.72l0 0 39.11 6.68c1.6,14.7 6.21,25.4 13.73,32.18 10.04,9.02 23.77,13.59 41.18,13.59 18.71,0 33.2,-4.57 43.4,-13.59 10.2,-9.02 17.1,-21.76 20.71,-38.04 2.08,-9.94 3.07,-30.87 2.92,-62.78 -17.72,25.3 -39.73,37.96 -66.11,37.96 -32.83,0 -58.29,-14.32 -76.23,-43.06 -18.02,-28.65 -27,-63.06 -27,-103.14 0,-27.63 4.15,-53.1 12.35,-76.45 8.21,-23.34 20.17,-41.3 35.81,-54.04 15.65,-12.73 34.06,-19.07 55.22,-19.07 28.15,0 51.39,13.96 69.64,41.86l0 -35.71 37.27 0 0 250.08c0,45.12 -3.76,77.01 -11.35,95.8 -7.52,18.8 -19.56,33.68 -35.89,44.56 -16.41,10.88 -36.58,16.36 -60.51,16.36 -28.45,0 -51.38,-7.71 -68.87,-23.25 -17.56,-15.43 -26,-38.78 -25.38,-69.93l0 -0.01zm33.13 -173.74l0 0c0,37.85 6.21,65.47 18.63,82.87 12.51,17.38 28.07,26.12 46.78,26.12 18.64,0 34.21,-8.64 46.86,-25.94 12.58,-17.3 18.87,-44.45 18.87,-81.47 0,-35.35 -6.52,-62.04 -19.48,-79.99 -12.97,-17.95 -28.61,-26.87 -46.86,-26.87 -18.02,0 -33.29,8.84 -45.93,26.5 -12.59,17.67 -18.87,43.9 -18.87,78.78zm229.76 149.74l0 0 0 -289.62 36.36 0 0 44.36c9.28,-20.56 17.87,-34.13 25.77,-40.65 7.9,-6.6 16.56,-9.86 25.99,-9.86 13.65,0 27.53,5.21 41.65,15.54l-14.42 45.3c-9.82,-6.71 -19.64,-10.05 -29.45,-10.05 -8.82,0 -16.72,3.26 -23.7,9.68 -6.97,6.41 -11.96,15.34 -14.96,26.78 -4.52,17.38 -6.74,36.46 -6.74,57.2l0 151.32 -40.5 0zm309.67 -36.26l0 0c-15.03,15.53 -29.52,26.41 -43.41,32.83 -13.88,6.42 -28.76,9.57 -44.71,9.57 -26.23,0 -46.4,-7.71 -60.51,-23.24 -14.11,-15.45 -21.16,-35.25 -21.16,-59.34 0,-14.14 2.68,-27.07 7.97,-38.79 5.37,-11.72 12.35,-21.01 20.94,-28.08 8.66,-7.07 18.33,-12.46 29.14,-16.09 7.98,-2.52 20.02,-4.94 36.05,-7.36 32.67,-4.65 56.82,-10.31 72.24,-16.82 0.15,-6.71 0.23,-10.99 0.23,-12.75 0,-19.91 -3.83,-33.94 -11.5,-42.12 -10.36,-11.07 -25.77,-16.56 -46.17,-16.56 -19.1,0 -33.21,4.08 -42.26,12.17 -9.13,8.1 -15.8,22.43 -20.17,43.07l-39.57 -6.69c3.6,-20.56 9.51,-37.21 17.79,-49.86 8.28,-12.65 20.25,-22.32 35.89,-29.21 15.57,-6.78 33.75,-10.23 54.3,-10.23 20.4,0 37.04,2.9 49.84,8.76 12.74,5.86 22.17,13.11 28.16,21.95 5.97,8.83 10.2,19.98 12.65,33.47 1.3,8.38 1.99,23.44 1.99,45.1l0 65.12c0,45.48 0.84,74.21 2.53,86.39 1.61,12.19 4.99,23.81 9.9,34.98l-42.34 0c-4.06,-10.33 -6.67,-22.42 -7.82,-36.27zm-3.22 -108.82l0 0c-14.73,7.26 -36.82,13.39 -66.26,18.41 -16.73,2.89 -28.53,6.15 -35.44,9.77 -6.9,3.63 -12.19,8.92 -15.94,15.81 -3.76,6.97 -5.68,14.69 -5.68,23.24 0,12.93 4.06,23.81 12.27,32.46 8.21,8.65 20.17,13.02 35.89,13.02 15.57,0 29.45,-4.08 41.64,-12.36 12.12,-8.18 21.09,-19.43 26.77,-33.67 4.37,-11.07 6.52,-27.35 6.52,-48.82l0.23 -17.86zm103.15 145.08l0 0 0 -289.62 36.35 0 0 40.91c7.44,-14.12 17.41,-25.57 29.83,-34.12 12.43,-8.65 26.54,-12.94 42.42,-12.94 17.64,0 32.12,4.47 43.4,13.3 11.28,8.94 19.25,21.3 23.85,37.31 19.02,-33.76 43.64,-50.61 74.01,-50.61 23.77,0 42.1,7.92 54.83,23.82 12.81,15.91 19.25,40.36 19.25,73.37l0 198.58 -40.49 0 0 -182.3c0,-19.53 -1.38,-33.66 -3.99,-42.31 -2.6,-8.65 -7.36,-15.53 -14.34,-20.84 -6.9,-5.29 -15.03,-7.91 -24.31,-7.91 -16.88,0 -30.83,6.8 -41.95,20.29 -11.12,13.57 -16.64,35.25 -16.64,65.01l0 168.06 -40.5 0 0 -187.96c0,-21.77 -3.3,-38.15 -9.88,-49.03 -6.6,-10.88 -17.42,-16.37 -32.37,-16.37 -11.35,0 -21.86,3.63 -31.52,10.89 -9.67,7.25 -16.64,17.86 -21.01,31.91 -4.3,13.95 -6.44,34.12 -6.44,60.45l0 150.11 -40.5 0zm539.29 -36.26l0 0c-15.03,15.53 -29.52,26.41 -43.41,32.83 -13.87,6.42 -28.76,9.57 -44.71,9.57 -26.23,0 -46.4,-7.71 -60.5,-23.24 -14.11,-15.45 -21.17,-35.25 -21.17,-59.34 0,-14.14 2.68,-27.07 7.97,-38.79 5.37,-11.72 12.35,-21.01 20.94,-28.08 8.67,-7.07 18.33,-12.46 29.14,-16.09 7.98,-2.52 20.02,-4.94 36.05,-7.36 32.67,-4.65 56.82,-10.31 72.24,-16.82 0.15,-6.71 0.23,-10.99 0.23,-12.75 0,-19.91 -3.83,-33.94 -11.5,-42.12 -10.36,-11.07 -25.77,-16.56 -46.17,-16.56 -19.1,0 -33.2,4.08 -42.26,12.17 -9.13,8.1 -15.8,22.43 -20.17,43.07l-39.57 -6.69c3.6,-20.56 9.51,-37.21 17.79,-49.86 8.28,-12.65 20.25,-22.32 35.89,-29.21 15.57,-6.78 33.75,-10.23 54.3,-10.23 20.4,0 37.04,2.9 49.85,8.76 12.73,5.86 22.16,13.11 28.15,21.95 5.98,8.83 10.2,19.98 12.65,33.47 1.3,8.38 1.99,23.44 1.99,45.1l0 65.12c0,45.48 0.84,74.21 2.53,86.39 1.61,12.19 4.99,23.81 9.9,34.98l-42.33 0c-4.07,-10.33 -6.68,-22.42 -7.83,-36.27zm-3.22 -108.82l0 0c-14.72,7.26 -36.81,13.39 -66.26,18.41 -16.72,2.89 -28.53,6.15 -35.43,9.77 -6.9,3.63 -12.2,8.92 -15.95,15.81 -3.76,6.97 -5.68,14.69 -5.68,23.24 0,12.93 4.06,23.81 12.27,32.46 8.21,8.65 20.18,13.02 35.89,13.02 15.57,0 29.45,-4.08 41.64,-12.36 12.13,-8.18 21.1,-19.43 26.77,-33.67 4.37,-11.07 6.52,-27.35 6.52,-48.82l0.23 -17.86zm234.21 145.08l0 0 0 -399.55 123.62 0c25.16,0 45.33,3.99 60.59,12.09 15.18,8.09 27.07,20.56 35.66,37.38 8.67,16.75 12.96,34.33 12.96,52.73 0,17.02 -3.83,33.12 -11.43,48.19 -7.59,15.07 -19.09,27.24 -34.51,36.54 19.94,7.08 35.28,19.17 45.94,36.28 10.74,17.01 16.11,37.2 16.11,60.46 0,18.77 -3.3,36.17 -9.82,52.26 -6.52,16.09 -14.58,28.45 -24.16,37.21 -9.59,8.65 -21.63,15.24 -36.04,19.71 -14.5,4.47 -32.22,6.7 -53.23,6.7l-125.69 0zm43.71 -231.59l0 0 71.25 0c19.33,0 33.2,-1.58 41.56,-4.64 11.13,-4.01 19.48,-10.7 25.08,-20 5.6,-9.31 8.44,-20.92 8.44,-34.97 0,-13.3 -2.61,-25.02 -7.9,-35.06 -5.22,-10.15 -12.74,-17.11 -22.47,-20.84 -9.74,-3.71 -26.46,-5.58 -50.08,-5.58l-65.88 0 0 121.09zm0 184.73l0 0 82.06 0c14.11,0 24,-0.66 29.76,-1.97 9.97,-2.13 18.4,-5.75 25.15,-10.88 6.75,-5.1 12.27,-12.54 16.65,-22.32 4.37,-9.76 6.51,-21.01 6.51,-33.76 0,-14.98 -3.14,-27.89 -9.51,-38.96 -6.29,-11.07 -15.03,-18.79 -26.23,-23.26 -11.11,-4.47 -27.22,-6.7 -48.15,-6.7l-76.24 0 0 137.85zm259.53 46.87l0 0 0 -289.62 36.35 0 0 44.36c9.28,-20.56 17.87,-34.13 25.77,-40.65 7.9,-6.6 16.57,-9.86 25.99,-9.86 13.66,0 27.53,5.21 41.65,15.54l-14.42 45.3c-9.81,-6.71 -19.63,-10.05 -29.45,-10.05 -8.82,0 -16.72,3.26 -23.7,9.68 -6.97,6.41 -11.96,15.34 -14.95,26.78 -4.52,17.38 -6.75,36.46 -6.75,57.2l0 151.32 -40.49 0zm309.66 -36.26l0 0c-15.03,15.53 -29.52,26.41 -43.41,32.83 -13.87,6.42 -28.76,9.57 -44.71,9.57 -26.23,0 -46.4,-7.71 -60.5,-23.24 -14.11,-15.45 -21.17,-35.25 -21.17,-59.34 0,-14.14 2.68,-27.07 7.97,-38.79 5.37,-11.72 12.36,-21.01 20.94,-28.08 8.67,-7.07 18.33,-12.46 29.14,-16.09 7.98,-2.52 20.02,-4.94 36.05,-7.36 32.67,-4.65 56.82,-10.31 72.24,-16.82 0.15,-6.71 0.23,-10.99 0.23,-12.75 0,-19.91 -3.83,-33.94 -11.5,-42.12 -10.36,-11.07 -25.77,-16.56 -46.17,-16.56 -19.09,0 -33.2,4.08 -42.26,12.17 -9.13,8.1 -15.8,22.43 -20.17,43.07l-39.57 -6.69c3.6,-20.56 9.51,-37.21 17.8,-49.86 8.27,-12.65 20.24,-22.32 35.88,-29.21 15.57,-6.78 33.75,-10.23 54.3,-10.23 20.4,0 37.04,2.9 49.85,8.76 12.73,5.86 22.16,13.11 28.15,21.95 5.98,8.83 10.2,19.98 12.65,33.47 1.3,8.38 1.99,23.44 1.99,45.1l0 65.12c0,45.48 0.84,74.21 2.54,86.39 1.6,12.19 4.98,23.81 9.89,34.98l-42.33 0c-4.07,-10.33 -6.68,-22.42 -7.83,-36.27zm-3.22 -108.82l0 0c-14.72,7.26 -36.81,13.39 -66.26,18.41 -16.72,2.89 -28.53,6.15 -35.43,9.77 -6.9,3.63 -12.2,8.92 -15.95,15.81 -3.76,6.97 -5.68,14.69 -5.68,23.24 0,12.93 4.06,23.81 12.27,32.46 8.21,8.65 20.18,13.02 35.89,13.02 15.57,0 29.45,-4.08 41.64,-12.36 12.13,-8.18 21.1,-19.43 26.77,-33.67 4.37,-11.07 6.52,-27.35 6.52,-48.82l0.23 -17.86zm87.05 58.6l0 0 40.03 -7.83c2.22,19.45 8.51,34.33 18.79,44.74 10.28,10.33 24.69,15.54 43.1,15.54 18.63,0 32.44,-4.57 41.49,-13.77 8.97,-9.12 13.5,-19.91 13.5,-32.27 0,-11.06 -4.07,-19.81 -12.12,-26.14 -5.68,-4.37 -19.48,-9.86 -41.41,-16.65 -29.61,-9.01 -50.08,-16.82 -61.58,-23.43 -11.43,-6.69 -20.1,-15.82 -26,-27.54 -5.91,-11.62 -8.9,-24.55 -8.9,-38.68 0,-12.92 2.46,-24.83 7.28,-35.8 4.92,-10.99 11.51,-20.1 19.87,-27.36 6.29,-5.58 14.88,-10.31 25.69,-14.23 10.89,-3.89 22.47,-5.86 34.9,-5.86 18.71,0 35.12,3.26 49.23,9.86 14.19,6.52 24.62,15.44 31.37,26.6 6.67,11.26 11.35,26.24 13.88,45.02l-39.57 6.69c-1.77,-15.06 -6.98,-26.87 -15.57,-35.33 -8.59,-8.46 -20.71,-12.65 -36.43,-12.65 -18.48,0 -31.75,3.71 -39.65,11.15 -7.9,7.44 -11.89,16.2 -11.89,26.14 0,6.33 1.62,12.09 4.91,17.21 3.29,5.21 8.43,9.57 15.49,13.01 4.07,1.87 15.87,6.05 35.66,12.57 28.54,9.21 48.47,16.83 59.82,22.69 11.35,5.86 20.25,14.51 26.69,25.66 6.52,11.27 9.74,25.21 9.74,41.95 0,16.27 -3.91,31.63 -11.81,46.03 -7.9,14.43 -19.25,25.58 -34.05,33.5 -14.88,7.9 -31.68,11.8 -50.39,11.8 -30.98,0 -54.67,-7.81 -70.94,-23.35 -16.26,-15.61 -26.6,-38.69 -31.13,-69.27zm246.17 -257.26l0 0 0 -55.8 40.5 0 0 55.8 -40.5 0zm0 343.75l0 0 0 -289.62 40.5 0 0 289.62 -40.5 0zm101.32 0l0 0 0 -399.55 40.5 0 0 399.55 -40.5 0zm266.05 -93.76l0 0 41.87 6.7c-6.52,29.49 -18.71,52.46 -36.51,68.74 -17.78,16.27 -40.48,24.45 -68.17,24.45 -34.82,0 -62.42,-13.01 -82.82,-39.06 -20.4,-25.95 -30.61,-62.49 -30.61,-109.47 0,-48.55 10.28,-86.31 30.91,-113.09 20.62,-26.87 47.4,-40.28 80.29,-40.28 31.83,0 57.83,13.12 78,39.44 20.17,26.33 30.29,63.33 30.29,111.06 0,2.87 -0.08,7.24 -0.23,13.02l-177.84 0c1.53,31.7 8.89,56.07 22.24,72.9 13.26,16.85 29.9,25.31 49.77,25.31 14.8,0 27.46,-4.75 37.89,-14.23 10.5,-9.49 18.78,-24.65 24.92,-45.49zm-132.52 -78.67l0 0 132.98 0c-1.77,-24.37 -6.9,-42.6 -15.27,-54.77 -12.8,-18.89 -29.52,-28.37 -50,-28.37 -18.55,0 -34.12,7.53 -46.78,22.59 -12.57,15.07 -19.56,35.25 -20.93,60.55zm225.56 -171.32l0 0 0 -55.8 40.49 0 0 55.8 -40.49 0zm0 343.75l0 0 0 -289.62 40.49 0 0 289.62 -40.49 0zm101.77 0l0 0 0 -289.62 36.35 0 0 44.36c9.28,-20.56 17.87,-34.13 25.77,-40.65 7.9,-6.6 16.57,-9.86 25.99,-9.86 13.66,0 27.54,5.21 41.65,15.54l-14.42 45.3c-9.81,-6.71 -19.63,-10.05 -29.44,-10.05 -8.83,0 -16.73,3.26 -23.7,9.68 -6.98,6.41 -11.97,15.34 -14.96,26.78 -4.52,17.38 -6.75,36.46 -6.75,57.2l0 151.32 -40.49 0zm138.5 -144.81l0 0c0,-53.47 12.27,-93.09 36.89,-118.85 20.47,-21.4 45.56,-32.1 75.08,-32.1 32.75,0 59.59,13.02 80.44,39.07 20.79,25.94 31.22,61.94 31.22,107.8 0,37.2 -4.6,66.39 -13.8,87.7 -9.2,21.3 -22.63,37.86 -40.27,49.66 -17.56,11.81 -36.81,17.67 -57.59,17.67 -33.44,0 -60.44,-12.93 -81.06,-38.88 -20.62,-25.95 -30.91,-63.33 -30.91,-112.07zm41.41 0.1l0 0c0,37.02 6.68,64.73 20.02,83.05 13.42,18.42 30.22,27.63 50.54,27.63 20.09,0 36.81,-9.21 50.23,-27.73 13.34,-18.49 20.01,-46.67 20.01,-84.53 0,-35.72 -6.74,-62.79 -20.17,-81.1 -13.41,-18.42 -30.13,-27.62 -50.07,-27.62 -20.32,0 -37.12,9.1 -50.54,27.44 -13.34,18.31 -20.02,45.93 -20.02,82.86zm511.69 144.71l0 0 0 -36.75c-15.11,28.56 -37.35,42.88 -66.72,42.88 -19.02,0 -36.5,-6.32 -52.39,-19.06 -15.94,-12.65 -28.3,-30.42 -37.11,-53.1 -8.74,-22.79 -13.12,-48.92 -13.12,-78.5 0,-28.84 3.99,-54.97 11.89,-78.5 7.97,-23.44 19.87,-41.48 35.74,-53.94 15.8,-12.56 33.59,-18.8 53.14,-18.8 14.43,0 27.23,3.73 38.43,11.07 11.2,7.36 20.33,17.03 27.38,28.84l0 -143.69 40.49 0 0 399.55 -37.73 0zm-127.92 -144.44l0 0c0,37.02 6.44,64.64 19.4,82.96 12.88,18.33 28.15,27.45 45.71,27.45 17.71,0 32.74,-8.75 45.17,-26.24 12.34,-17.48 18.56,-44.16 18.56,-80.07 0,-39.43 -6.29,-68.46 -18.95,-86.96 -12.57,-18.51 -28.14,-27.71 -46.62,-27.71 -18.03,0 -33.06,8.84 -45.17,26.6 -12.04,17.75 -18.1,45.75 -18.1,83.97zm392.57 50.68l0 0 41.87 6.7c-6.51,29.49 -18.71,52.46 -36.5,68.74 -17.79,16.27 -40.49,24.45 -68.18,24.45 -34.81,0 -62.41,-13.01 -82.81,-39.06 -20.4,-25.95 -30.6,-62.49 -30.6,-109.47 0,-48.55 10.27,-86.31 30.9,-113.09 20.62,-26.87 47.39,-40.28 80.28,-40.28 31.83,0 57.83,13.12 78,39.44 20.17,26.33 30.3,63.33 30.3,111.06 0,2.87 -0.09,7.24 -0.23,13.02l-177.84 0c1.53,31.7 8.9,56.07 22.24,72.9 13.25,16.85 29.9,25.31 49.76,25.31 14.8,0 27.46,-4.75 37.89,-14.23 10.5,-9.49 18.78,-24.65 24.92,-45.49zm-132.51 -78.67l0 0 132.97 0c-1.76,-24.37 -6.9,-42.6 -15.26,-54.77 -12.81,-18.89 -29.52,-28.37 -50.01,-28.37 -18.55,0 -34.12,7.53 -46.77,22.59 -12.57,15.07 -19.55,35.25 -20.93,60.55zm345.1 -22.04l0 0c0,-66.22 14.72,-118.11 44.1,-155.6 29.37,-37.48 67.26,-56.18 113.73,-56.18 30.44,0 57.83,8.84 82.29,26.42 24.39,17.59 43.02,42.14 55.83,73.66 12.81,31.44 19.25,67.15 19.25,107.05 0,40.46 -6.75,76.74 -20.25,108.63 -13.5,31.99 -32.59,56.17 -57.28,72.55 -24.77,16.45 -51.46,24.64 -80.07,24.64 -31.06,0 -58.74,-9.11 -83.21,-27.24 -24.39,-18.14 -42.94,-42.88 -55.53,-74.32 -12.57,-31.34 -18.86,-64.54 -18.86,-99.61zm45.09 0.93l0 0c0,48.08 10.66,85.93 31.99,113.56 21.31,27.63 48.08,41.48 80.29,41.48 32.83,0 59.74,-13.95 80.98,-41.85 21.17,-27.9 31.76,-67.53 31.76,-118.87 0,-32.45 -4.53,-60.81 -13.58,-84.99 -9.05,-24.19 -22.32,-42.98 -39.72,-56.27 -17.49,-13.3 -37.04,-20 -58.75,-20 -30.83,0 -57.36,12.83 -79.6,38.51 -22.24,25.66 -33.37,68.44 -33.37,128.43zm321.12 304.6l0 0 0 -400.67 36.81 0 0 38.04c8.66,-14.69 18.48,-25.76 29.45,-33.12 10.89,-7.34 24.15,-11.07 39.72,-11.07 20.4,0 38.35,6.34 53.92,19.07 15.57,12.66 27.3,30.6 35.28,53.67 7.9,23.16 11.88,48.45 11.88,76.08 0,29.47 -4.37,56.07 -13.11,79.79 -8.74,23.63 -21.47,41.77 -38.2,54.41 -16.64,12.56 -34.2,18.88 -52.61,18.88 -13.49,0 -25.61,-3.44 -36.27,-10.33 -10.74,-6.87 -19.48,-15.52 -26.38,-26.03l0 141.28 -40.49 0zm36.8 -254.1l0 0c0,37.11 6.21,64.55 18.56,82.31 12.42,17.76 27.46,26.7 45.09,26.7 17.95,0 33.29,-9.21 46.02,-27.63 12.8,-18.41 19.17,-46.87 19.17,-85.46 0,-36.83 -6.21,-64.36 -18.71,-82.7 -12.5,-18.31 -27.39,-27.42 -44.71,-27.42 -17.19,0 -32.37,9.75 -45.56,29.2 -13.27,19.53 -19.86,47.8 -19.86,85zm382 49.28l0 0 41.87 6.7c-6.52,29.49 -18.71,52.46 -36.51,68.74 -17.78,16.27 -40.48,24.45 -68.17,24.45 -34.82,0 -62.42,-13.01 -82.82,-39.06 -20.41,-25.95 -30.61,-62.49 -30.61,-109.47 0,-48.55 10.28,-86.31 30.91,-113.09 20.62,-26.87 47.4,-40.28 80.29,-40.28 31.83,0 57.83,13.12 78,39.44 20.17,26.33 30.29,63.33 30.29,111.06 0,2.87 -0.08,7.24 -0.23,13.02l-177.84 0c1.53,31.7 8.89,56.07 22.23,72.9 13.27,16.85 29.91,25.31 49.78,25.31 14.8,0 27.46,-4.75 37.89,-14.23 10.5,-9.49 18.78,-24.65 24.92,-45.49zm-132.51 -78.67l0 0 132.98 0c-1.77,-24.37 -6.9,-42.6 -15.27,-54.77 -12.8,-18.89 -29.52,-28.37 -50,-28.37 -18.55,0 -34.12,7.53 -46.78,22.59 -12.57,15.07 -19.56,35.25 -20.93,60.55zm225.08 172.43l0 0 0 -289.62 36.36 0 0 44.36c9.28,-20.56 17.87,-34.13 25.77,-40.65 7.9,-6.6 16.57,-9.86 25.99,-9.86 13.66,0 27.53,5.21 41.65,15.54l-14.42 45.3c-9.81,-6.71 -19.64,-10.05 -29.45,-10.05 -8.82,0 -16.72,3.26 -23.7,9.68 -6.97,6.41 -11.96,15.34 -14.95,26.78 -4.52,17.38 -6.75,36.46 -6.75,57.2l0 151.32 -40.5 0zm309.67 -36.26l0 0c-15.03,15.53 -29.52,26.41 -43.41,32.83 -13.87,6.42 -28.76,9.57 -44.71,9.57 -26.23,0 -46.4,-7.71 -60.5,-23.24 -14.11,-15.45 -21.17,-35.25 -21.17,-59.34 0,-14.14 2.68,-27.07 7.97,-38.79 5.37,-11.72 12.35,-21.01 20.94,-28.08 8.66,-7.07 18.33,-12.46 29.14,-16.09 7.98,-2.52 20.02,-4.94 36.05,-7.36 32.67,-4.65 56.82,-10.31 72.24,-16.82 0.15,-6.71 0.23,-10.99 0.23,-12.75 0,-19.91 -3.83,-33.94 -11.5,-42.12 -10.36,-11.07 -25.77,-16.56 -46.17,-16.56 -19.1,0 -33.2,4.08 -42.26,12.17 -9.13,8.1 -15.8,22.43 -20.17,43.07l-39.57 -6.69c3.6,-20.56 9.51,-37.21 17.79,-49.86 8.28,-12.65 20.25,-22.32 35.89,-29.21 15.57,-6.78 33.75,-10.23 54.3,-10.23 20.4,0 37.04,2.9 49.85,8.76 12.73,5.86 22.16,13.11 28.15,21.95 5.98,8.83 10.2,19.98 12.65,33.47 1.3,8.38 1.99,23.44 1.99,45.1l0 65.12c0,45.48 0.84,74.21 2.53,86.39 1.61,12.19 4.99,23.81 9.9,34.98l-42.34 0c-4.06,-10.33 -6.67,-22.42 -7.82,-36.27zm-3.22 -108.82l0 0c-14.72,7.26 -36.81,13.39 -66.26,18.41 -16.72,2.89 -28.53,6.15 -35.43,9.77 -6.9,3.63 -12.2,8.92 -15.95,15.81 -3.76,6.97 -5.68,14.69 -5.68,23.24 0,12.93 4.06,23.81 12.27,32.46 8.21,8.65 20.18,13.02 35.89,13.02 15.57,0 29.45,-4.08 41.64,-12.36 12.13,-8.18 21.1,-19.43 26.77,-33.67 4.37,-11.07 6.52,-27.35 6.52,-48.82l0.23 -17.86zm257.3 145.08l0 0 0 -36.75c-15.11,28.56 -37.35,42.88 -66.72,42.88 -19.02,0 -36.5,-6.32 -52.38,-19.06 -15.95,-12.65 -28.3,-30.42 -37.12,-53.1 -8.74,-22.79 -13.12,-48.92 -13.12,-78.5 0,-28.84 3.99,-54.97 11.89,-78.5 7.98,-23.44 19.87,-41.48 35.74,-53.94 15.8,-12.56 33.59,-18.8 53.15,-18.8 14.42,0 27.22,3.73 38.42,11.07 11.2,7.36 20.33,17.03 27.38,28.84l0 -143.69 40.49 0 0 399.55 -37.73 0zm-127.92 -144.44l0 0c0,37.02 6.44,64.64 19.4,82.96 12.88,18.33 28.15,27.45 45.71,27.45 17.71,0 32.75,-8.75 45.17,-26.24 12.35,-17.48 18.56,-44.16 18.56,-80.07 0,-39.43 -6.29,-68.46 -18.95,-86.96 -12.57,-18.51 -28.14,-27.71 -46.62,-27.71 -18.02,0 -33.06,8.84 -45.17,26.6 -12.04,17.75 -18.1,45.75 -18.1,83.97zm214.49 -0.37l0 0c0,-53.47 12.28,-93.09 36.89,-118.85 20.48,-21.4 45.56,-32.1 75.08,-32.1 32.76,0 59.6,13.02 80.45,39.07 20.79,25.94 31.22,61.94 31.22,107.8 0,37.2 -4.6,66.39 -13.8,87.7 -9.21,21.3 -22.63,37.86 -40.27,49.66 -17.56,11.81 -36.81,17.67 -57.6,17.67 -33.43,0 -60.43,-12.93 -81.05,-38.88 -20.62,-25.95 -30.92,-63.33 -30.92,-112.07zm41.42 0.1l0 0c0,37.02 6.67,64.73 20.01,83.05 13.43,18.42 30.23,27.63 50.54,27.63 20.1,0 36.81,-9.21 50.24,-27.73 13.34,-18.49 20.01,-46.67 20.01,-84.53 0,-35.72 -6.74,-62.79 -20.17,-81.1 -13.42,-18.42 -30.14,-27.62 -50.08,-27.62 -20.31,0 -37.11,9.1 -50.54,27.44 -13.34,18.31 -20.01,45.93 -20.01,82.86zm229.23 144.71l0 0 0 -289.62 36.36 0 0 44.36c9.27,-20.56 17.86,-34.13 25.76,-40.65 7.9,-6.6 16.57,-9.86 26,-9.86 13.65,0 27.53,5.21 41.65,15.54l-14.43 45.3c-9.81,-6.71 -19.63,-10.05 -29.44,-10.05 -8.83,0 -16.73,3.26 -23.7,9.68 -6.98,6.41 -11.97,15.34 -14.96,26.78 -4.52,17.38 -6.74,36.46 -6.74,57.2l0 151.32 -40.5 0zm287.51 0l0 0 0 -399.55 237.9 0 0 46.87 -194.18 0 0 122.76 181.76 0 0 46.88 -181.76 0 0 136.17 202 0 0 46.87 -245.72 0zm456.93 -106.03l0 0 39.57 6.7c-4.37,33.02 -15.41,58.78 -33.28,77.47 -17.87,18.7 -39.88,28 -65.88,28 -32.59,0 -58.82,-12.93 -78.6,-38.77 -19.87,-25.87 -29.76,-62.89 -29.76,-111.05 0,-31.25 4.29,-58.51 12.8,-81.94 8.52,-23.34 21.48,-40.93 38.96,-52.55 17.41,-11.73 36.35,-17.59 56.91,-17.59 25.84,0 47.08,7.92 63.5,23.82 16.49,15.91 27.07,38.51 31.67,67.7l-39.11 7.27c-3.76,-19.45 -10.35,-34.04 -19.94,-43.9 -9.51,-9.78 -21.01,-14.7 -34.51,-14.7 -20.4,0 -36.97,8.84 -49.77,26.51 -12.74,17.76 -19.1,45.66 -19.1,83.98 0,38.87 6.13,67.05 18.41,84.63 12.35,17.58 28.38,26.42 48.08,26.42 15.95,0 29.22,-5.86 39.81,-17.67 10.66,-11.72 17.4,-29.86 20.24,-54.33zm58.89 -38.78l0 0c0,-53.47 12.28,-93.09 36.89,-118.85 20.48,-21.4 45.56,-32.1 75.08,-32.1 32.76,0 59.6,13.02 80.45,39.07 20.79,25.94 31.22,61.94 31.22,107.8 0,37.2 -4.6,66.39 -13.8,87.7 -9.21,21.3 -22.63,37.86 -40.27,49.66 -17.56,11.81 -36.81,17.67 -57.6,17.67 -33.43,0 -60.43,-12.93 -81.05,-38.88 -20.64,-25.95 -30.92,-63.33 -30.92,-112.07zm41.42 0.1l0 0c0,37.02 6.67,64.73 20.01,83.05 13.43,18.42 30.23,27.63 50.54,27.63 20.1,0 36.81,-9.21 50.24,-27.73 13.34,-18.49 20.01,-46.67 20.01,-84.53 0,-35.72 -6.75,-62.79 -20.17,-81.1 -13.42,-18.42 -30.14,-27.62 -50.08,-27.62 -20.31,0 -37.11,9.1 -50.54,27.44 -13.34,18.31 -20.01,45.93 -20.01,82.86z"/>
      <path class="fil0" d="M15474.54 7469.64l0 -289.62 36.35 0 0 41.1c17.49,-31.53 42.79,-47.25 75.85,-47.25 14.42,0 27.61,3.18 39.65,9.41 12.04,6.23 21.09,14.51 27.07,24.63 5.99,10.15 10.2,22.24 12.58,36.18 1.45,9.12 2.22,25.03 2.22,47.71l0 177.84 -40.49 0 0 -175.97c0,-20 -1.54,-34.97 -4.68,-44.82 -3.14,-9.86 -8.74,-17.77 -16.71,-23.72 -7.99,-5.86 -17.42,-8.85 -28.16,-8.85 -17.17,0 -31.97,6.62 -44.47,19.92 -12.5,13.2 -18.71,38.41 -18.71,75.42l0 158.02 -40.5 0zm240.73 -144.81l0 0c0,-53.47 12.28,-93.09 36.89,-118.85 20.48,-21.4 45.56,-32.1 75.08,-32.1 32.76,0 59.6,13.02 80.45,39.07 20.79,25.94 31.22,61.94 31.22,107.8 0,37.2 -4.6,66.39 -13.8,87.7 -9.21,21.3 -22.63,37.86 -40.27,49.66 -17.56,11.81 -36.81,17.67 -57.6,17.67 -33.43,0 -60.43,-12.93 -81.05,-38.88 -20.64,-25.95 -30.92,-63.33 -30.92,-112.07zm41.42 0.1l0 0c0,37.02 6.67,64.73 20.01,83.05 13.43,18.42 30.22,27.63 50.54,27.63 20.1,0 36.81,-9.21 50.24,-27.73 13.34,-18.49 20.01,-46.67 20.01,-84.53 0,-35.72 -6.75,-62.79 -20.17,-81.1 -13.42,-18.42 -30.14,-27.62 -50.08,-27.62 -20.32,0 -37.11,9.1 -50.54,27.44 -13.34,18.31 -20.01,45.93 -20.01,82.86zm70.4 -226.94l0 0 -25.08 46.32 -46.01 0 48.08 -76.45 42.8 0 51.3 76.45 -46.01 0 -25.08 -46.32zm159.28 371.66l0 0 0 -289.62 36.35 0 0 40.91c7.44,-14.12 17.41,-25.57 29.83,-34.12 12.43,-8.65 26.54,-12.94 42.42,-12.94 17.64,0 32.13,4.47 43.41,13.3 11.27,8.94 19.24,21.3 23.84,37.31 19.03,-33.76 43.64,-50.61 74.01,-50.61 23.77,0 42.1,7.92 54.83,23.82 12.81,15.91 19.25,40.36 19.25,73.37l0 198.58 -40.49 0 0 -182.3c0,-19.53 -1.38,-33.66 -3.99,-42.31 -2.6,-8.65 -7.36,-15.53 -14.34,-20.84 -6.9,-5.29 -15.03,-7.91 -24.31,-7.91 -16.88,0 -30.83,6.8 -41.95,20.29 -11.12,13.57 -16.64,35.25 -16.64,65.01l0 168.06 -40.5 0 0 -187.96c0,-21.77 -3.3,-38.15 -9.88,-49.03 -6.6,-10.88 -17.42,-16.37 -32.37,-16.37 -11.35,0 -21.86,3.63 -31.52,10.89 -9.67,7.25 -16.64,17.86 -21.01,31.91 -4.3,13.95 -6.44,34.12 -6.44,60.45l0 150.11 -40.5 0zm383.3 -343.75l0 0 0 -55.8 40.5 0 0 55.8 -40.5 0zm0 343.75l0 0 0 -289.62 40.5 0 0 289.62 -40.5 0zm258.22 -106.03l0 0 39.58 6.7c-4.37,33.02 -15.42,58.78 -33.28,77.47 -17.87,18.7 -39.88,28 -65.88,28 -32.6,0 -58.83,-12.93 -78.61,-38.77 -19.86,-25.87 -29.76,-62.89 -29.76,-111.05 0,-31.25 4.3,-58.51 12.81,-81.94 8.51,-23.34 21.47,-40.93 38.96,-52.55 17.41,-11.73 36.35,-17.59 56.9,-17.59 25.85,0 47.09,7.92 63.51,23.82 16.48,15.91 27.07,38.51 31.67,67.7l-39.11 7.27c-3.76,-19.45 -10.36,-34.04 -19.95,-43.9 -9.51,-9.78 -21.01,-14.7 -34.51,-14.7 -20.4,0 -36.96,8.84 -49.77,26.51 -12.73,17.76 -19.1,45.66 -19.1,83.98 0,38.87 6.14,67.05 18.41,84.63 12.35,17.58 28.38,26.42 48.09,26.42 15.94,0 29.21,-5.86 39.8,-17.67 10.66,-11.72 17.41,-29.86 20.24,-54.33zm58.9 -38.78l0 0c0,-53.47 12.27,-93.09 36.89,-118.85 20.47,-21.4 45.56,-32.1 75.08,-32.1 32.75,0 59.59,13.02 80.44,39.07 20.79,25.94 31.22,61.94 31.22,107.8 0,37.2 -4.6,66.39 -13.8,87.7 -9.2,21.3 -22.63,37.86 -40.27,49.66 -17.56,11.81 -36.81,17.67 -57.59,17.67 -33.44,0 -60.44,-12.93 -81.06,-38.88 -20.62,-25.95 -30.91,-63.33 -30.91,-112.07zm41.41 0.1l0 0c0,37.02 6.68,64.73 20.02,83.05 13.42,18.42 30.22,27.63 50.54,27.63 20.09,0 36.81,-9.21 50.23,-27.73 13.34,-18.49 20.01,-46.67 20.01,-84.53 0,-35.72 -6.74,-62.79 -20.17,-81.1 -13.41,-18.42 -30.13,-27.62 -50.07,-27.62 -20.32,0 -37.12,9.1 -50.54,27.44 -13.34,18.31 -20.02,45.93 -20.02,82.86zm301.09 144.71l0 0 126.39 -399.55 47.93 0 134.13 399.55 -49.62 0 -38.11 -121.1 -138.73 0 -35.75 121.1 -46.24 0zm94.79 -164.06l0 0 112.28 0 -34.36 -110.78c-10.36,-33.67 -18.18,-61.47 -23.63,-83.42 -4.52,26.04 -10.58,51.61 -18.17,76.92l-36.12 117.28zm399.18 164.06l0 0 0 -43.06c-18.56,32.83 -43.71,49.19 -75.54,49.19 -14.04,0 -27.15,-3.26 -39.34,-9.76 -12.2,-6.6 -21.24,-14.79 -27.15,-24.65 -5.9,-9.95 -10.05,-22.04 -12.43,-36.36 -1.6,-9.67 -2.45,-24.92 -2.45,-45.77l0 -179.21 40.49 0 0 160.24c0,25.58 0.84,42.89 2.46,51.72 2.53,12.92 7.9,22.96 16.18,30.32 8.2,7.34 18.33,11.07 30.44,11.07 12.12,0 23.47,-3.73 34.06,-11.26 10.58,-7.54 18.1,-17.85 22.54,-30.78 4.37,-12.93 6.6,-31.81 6.6,-56.46l0 -154.85 40.49 0 0 289.62 -36.35 0zm187.82 -43.82l0 0 5.52 43.35c-11.35,2.89 -21.55,4.37 -30.44,4.37 -14.66,0 -26,-2.79 -34.13,-8.47 -8.06,-5.66 -13.73,-13.01 -17.03,-22.22 -3.3,-9.2 -4.91,-28.55 -4.91,-58.04l0 -166.85 -29.91 0 0 -37.94 29.91 0 0 -71.61 40.5 -29.49 0 101.1 40.49 0 0 37.94 -40.49 0 0 169.64c0,14.04 0.68,23.07 2.14,27.07 1.39,4 3.69,7.16 6.9,9.57 3.23,2.34 7.83,3.55 13.81,3.55 4.45,0 10.35,-0.65 17.64,-1.97zm24.76 -101l0 0c0,-53.47 12.27,-93.09 36.89,-118.85 20.47,-21.4 45.56,-32.1 75.08,-32.1 32.75,0 59.59,13.02 80.44,39.07 20.79,25.94 31.22,61.94 31.22,107.8 0,37.2 -4.6,66.39 -13.8,87.7 -9.2,21.3 -22.63,37.86 -40.27,49.66 -17.56,11.81 -36.8,17.67 -57.59,17.67 -33.44,0 -60.44,-12.93 -81.06,-38.88 -20.62,-25.95 -30.91,-63.33 -30.91,-112.07zm41.42 0.1l0 0c0,37.02 6.67,64.73 20.01,83.05 13.42,18.42 30.22,27.63 50.54,27.63 20.09,0 36.81,-9.21 50.23,-27.73 13.34,-18.49 20.01,-46.67 20.01,-84.53 0,-35.72 -6.74,-62.79 -20.17,-81.1 -13.41,-18.42 -30.13,-27.62 -50.07,-27.62 -20.32,0 -37.12,9.1 -50.54,27.44 -13.34,18.31 -20.01,45.93 -20.01,82.86zm229.22 144.71l0 0 0 -289.62 36.36 0 0 44.36c9.28,-20.56 17.87,-34.13 25.77,-40.65 7.9,-6.6 16.56,-9.86 25.99,-9.86 13.65,0 27.53,5.21 41.65,15.54l-14.42 45.3c-9.82,-6.71 -19.64,-10.05 -29.45,-10.05 -8.82,0 -16.72,3.26 -23.7,9.68 -6.97,6.41 -11.96,15.34 -14.96,26.78 -4.51,17.38 -6.74,36.46 -6.74,57.2l0 151.32 -40.5 0zm153.69 -343.75l0 0 0 -55.8 40.5 0 0 55.8 -40.5 0zm0 343.75l0 0 0 -289.62 40.5 0 0 289.62 -40.5 0zm80.83 0l0 0 0 -40 151.24 -211.68c-17.18,1.12 -32.29,1.68 -45.32,1.68l-96.71 0 0 -39.62 194.64 0 0 32.27 -129.45 183.59 -24.77 34.14c18.17,-1.86 35.2,-2.8 51.07,-2.8l110.52 0 0 42.42 -211.22 0zm407.46 -36.26l0 0c-15.03,15.53 -29.52,26.41 -43.41,32.83 -13.87,6.42 -28.76,9.57 -44.71,9.57 -26.23,0 -46.4,-7.71 -60.5,-23.24 -14.11,-15.45 -21.17,-35.25 -21.17,-59.34 0,-14.14 2.68,-27.07 7.97,-38.79 5.37,-11.72 12.35,-21.01 20.94,-28.08 8.66,-7.07 18.33,-12.46 29.14,-16.09 7.98,-2.52 20.02,-4.94 36.05,-7.36 32.67,-4.65 56.82,-10.31 72.24,-16.82 0.15,-6.71 0.23,-10.99 0.23,-12.75 0,-19.91 -3.83,-33.94 -11.5,-42.12 -10.36,-11.07 -25.77,-16.56 -46.17,-16.56 -19.1,0 -33.2,4.08 -42.26,12.17 -9.13,8.1 -15.8,22.43 -20.17,43.07l-39.57 -6.69c3.6,-20.56 9.51,-37.21 17.79,-49.86 8.28,-12.65 20.25,-22.32 35.89,-29.21 15.57,-6.78 33.75,-10.23 54.3,-10.23 20.4,0 37.04,2.9 49.85,8.76 12.73,5.86 22.16,13.11 28.15,21.95 5.98,8.83 10.2,19.98 12.65,33.47 1.3,8.38 1.99,23.44 1.99,45.1l0 65.12c0,45.48 0.84,74.21 2.53,86.39 1.61,12.19 4.99,23.81 9.9,34.98l-42.34 0c-4.06,-10.33 -6.67,-22.42 -7.82,-36.27zm-3.22 -108.82l0 0c-14.72,7.26 -36.81,13.39 -66.26,18.41 -16.72,2.89 -28.53,6.15 -35.43,9.77 -6.9,3.63 -12.2,8.92 -15.95,15.81 -3.76,6.97 -5.68,14.69 -5.68,23.24 0,12.93 4.06,23.81 12.27,32.46 8.21,8.65 20.18,13.02 35.89,13.02 15.57,0 29.45,-4.08 41.64,-12.36 12.13,-8.18 21.1,-19.43 26.77,-33.67 4.37,-11.07 6.52,-27.35 6.52,-48.82l0.23 -17.86zm257.29 145.08l0 0 0 -36.75c-15.11,28.56 -37.35,42.88 -66.72,42.88 -19.02,0 -36.5,-6.32 -52.38,-19.06 -15.95,-12.65 -28.3,-30.42 -37.12,-53.1 -8.74,-22.79 -13.12,-48.92 -13.12,-78.5 0,-28.84 3.99,-54.97 11.89,-78.5 7.98,-23.44 19.87,-41.48 35.74,-53.94 15.8,-12.56 33.59,-18.8 53.15,-18.8 14.42,0 27.22,3.73 38.42,11.07 11.2,7.36 20.33,17.03 27.38,28.84l0 -143.69 40.49 0 0 399.55 -37.73 0zm-127.92 -144.44l0 0c0,37.02 6.44,64.64 19.4,82.96 12.88,18.33 28.15,27.45 45.71,27.45 17.71,0 32.75,-8.75 45.17,-26.24 12.35,-17.48 18.56,-44.16 18.56,-80.07 0,-39.43 -6.29,-68.46 -18.94,-86.96 -12.58,-18.51 -28.15,-27.71 -46.63,-27.71 -18.02,0 -33.06,8.84 -45.17,26.6 -12.04,17.75 -18.1,45.75 -18.1,83.97zm214.5 -0.37l0 0c0,-53.47 12.28,-93.09 36.89,-118.85 20.48,-21.4 45.56,-32.1 75.08,-32.1 32.76,0 59.6,13.02 80.45,39.07 20.79,25.94 31.22,61.94 31.22,107.8 0,37.2 -4.6,66.39 -13.8,87.7 -9.21,21.3 -22.63,37.86 -40.27,49.66 -17.56,11.81 -36.81,17.67 -57.6,17.67 -33.43,0 -60.43,-12.93 -81.05,-38.88 -20.62,-25.95 -30.92,-63.33 -30.92,-112.07zm41.42 0.1l0 0c0,37.02 6.67,64.73 20.01,83.05 13.43,18.42 30.23,27.63 50.54,27.63 20.1,0 36.81,-9.21 50.24,-27.73 13.34,-18.49 20.01,-46.67 20.01,-84.53 0,-35.72 -6.74,-62.79 -20.17,-81.1 -13.41,-18.42 -30.14,-27.62 -50.08,-27.62 -20.31,0 -37.11,9.1 -50.54,27.44 -13.34,18.31 -20.01,45.93 -20.01,82.86z"/>
     </g>
    </g>
    <path class="fil0" d="M9439.02 3851.53l2021.71 -0.04c-236.23,-491.36 -780.82,-1626.68 -1024.6,-2105.77 -204.27,438.37 -777.33,1637.31 -997.09,2105.81l-0.02 0zm2667.35 1456.11l0 0 -304.5 -656.4 -2746.56 0 -311.97 656.4 -917.19 0 2602.47 -5300.98 2599.91 5300.98 -922.16 0z"/>
    <polygon class="fil0" points="12133.02,5307.64 12133.02,6.92 14623.34,6.92 14623.34,963.6 13005.08,963.6 13005.08,2067.88 14623.34,2067.88 14623.34,2965.81 13005.08,2965.81 13005.08,4330.24 14623.34,4330.24 14623.34,5307.64 "/>
    <polygon class="fil1" points="12133.02,5307.64 12133.02,3481.74 13028.54,5307.64 "/>
    <path class="fil0" d="M18689.03 2657.08c0,-256.27 -48.65,-499.53 -144.76,-729.82 -96.1,-230.28 -234.79,-435.75 -414.83,-615.27 -176.39,-178.3 -379.56,-314.11 -610.69,-409.77 -232.35,-95.64 -476.87,-144.07 -732.34,-144.07 -256.68,0 -501.2,47.24 -733.55,141.71 -231.14,94.47 -437.95,231.47 -618,412.13 -180.03,177.14 -318.72,381.45 -413.6,611.72 -94.89,230.28 -142.34,474.73 -142.34,733.36 0,256.26 47.45,498.35 142.34,726.27 94.88,227.92 233.57,432.21 413.6,611.7 180.05,180.69 385.64,317.68 616.78,412.14 229.92,94.48 475.66,141.71 734.77,141.71 254.25,0 495.13,-47.23 725.04,-141.71 228.71,-94.46 435.52,-231.45 617.99,-412.14 180.04,-179.5 318.73,-383.79 414.83,-612.9 96.11,-230.27 144.76,-471.19 144.76,-725.08l0 0.02zm883.19 0l0 0c0,360.19 -69.34,700.29 -208.02,1020.32 -139.9,321.21 -341.84,606.99 -608.26,858.53 -267.63,251.54 -570.53,444.03 -908.73,577.47 -336.96,133.45 -690.98,200.76 -1060.8,200.76 -375.9,0 -733.55,-67.31 -1075.39,-201.93 -340.62,-135.82 -641.1,-327.12 -902.65,-576.3 -266.42,-251.54 -468.36,-536.15 -605.83,-854.98 -137.46,-317.68 -206.81,-658.96 -206.81,-1023.87 0,-362.54 69.35,-703.83 206.81,-1023.86 137.47,-321.23 339.41,-608.18 605.83,-862.07 266.41,-251.54 568.11,-442.86 905.08,-573.93 336.97,-131.1 694.63,-197.22 1072.96,-197.22 374.68,0 729.91,66.12 1066.88,197.22 335.76,131.07 637.45,322.39 902.65,573.93 266.42,256.25 468.36,545.57 608.26,866.79 138.68,322.39 208.02,661.31 208.02,1019.14z"/>
    <path class="fil1" d="M14060.78 2067.88l562.56 0 0 897.94 -610.45 0c-11.42,-100.96 -17.15,-203.86 -17.15,-308.74 0,-203.06 21.76,-399.46 65.04,-589.2zm550.48 2262.36l0 0 12.08 0 0 13.88 -12.08 -13.88z"/>
   </g>
  </g>
 </g>
</svg>
