<?xml version="1.0" encoding="UTF-8"?>
<!DOCTYPE svg PUBLIC "-//W3C//DTD SVG 1.1//EN" "http://www.w3.org/Graphics/SVG/1.1/DTD/svg11.dtd">
<!-- Creator: CorelDRAW -->
<svg xmlns="http://www.w3.org/2000/svg" xml:space="preserve" width="114.181mm" height="53.0194mm" version="1.1" style="shape-rendering:geometricPrecision; text-rendering:geometricPrecision; image-rendering:optimizeQuality; fill-rule:evenodd; clip-rule:evenodd"
viewBox="0 0 11403.82 5295.32"
 xmlns:xlink="http://www.w3.org/1999/xlink"
 xmlns:xodm="http://www.corel.com/coreldraw/odm/2003">
 <defs>
  <style type="text/css">
   <![CDATA[
    .fil0 {fill:#D1D1D1;fill-rule:nonzero}
    .fil1 {fill:#B4B4B5;fill-rule:nonzero}
    .fil2 {fill:#B4B4B5;fill-rule:nonzero}
   ]]>
  </style>
 </defs>
 <g id="Layer_x0020_1">
  <metadata id="CorelCorpID_0Corel-Layer"/>
  <g id="_2125218491920">
   <path class="fil0" d="M10417.77 209.19c-253.76,123.87 -406.07,335.73 -525.58,577.22 -105.2,212.83 -247.63,396 -426.49,552.29 -24.15,20.97 -43.86,20.41 -70.04,12.48 -149.24,-45.68 -277.55,-128.88 -400.65,-221.48 -201.64,-151.79 -397.43,-312.6 -630.47,-416.71 -175.59,-78.38 -358.24,-134.66 -549.74,-159.58 -49.11,-6.34 -89.17,-23.27 -126.37,-60.47 -162.23,-161.88 -340.22,-304.1 -549.01,-403.21 -38.12,-18.21 -77.82,-32.85 -126.17,-53.05 80.12,-30.13 156.66,-31.92 230.13,-34.84 458.98,-17.15 885.46,84.66 1262.11,358.43 73.32,53.26 138.09,120.24 220.77,158.66 279.03,130.51 554.29,124.88 820.32,-37.55 99.98,-60.98 189.15,-138.25 290.4,-197.64 153.59,-90.2 320.53,-102.48 492.38,-87.69 29.57,2.51 59,8.65 88.41,13.14z"/>
   <path class="fil0" d="M11403.82 1067.9c-215.65,54.85 -391.85,146.74 -525.94,303.6 -92.76,108.61 -169.1,230.99 -269.11,334.6 -169.66,175.43 -358.24,326.15 -567.59,450.84 -48.4,28.7 -100.18,2.71 -147.87,-5.22 -183.52,-29.77 -344.52,-109.74 -484.96,-232.12 -101.4,-88.41 -204.49,-175.02 -321.45,-257.55 127.44,-62.06 246.19,-121.97 351.22,-205.21 26.92,-21.48 59.92,-6.49 87.75,-1.43 243.99,43.85 449.56,-30.85 628.07,-195.85 56.33,-51.99 115.73,-100.89 173.64,-151.03 184.44,-160.3 400.7,-198.2 634.77,-161.01 145.3,22.92 286.25,62.62 441.48,120.38z"/>
   <path class="fil1" d="M6657.51 803.6c115.84,-60.83 223.99,-95.47 333.32,-125.09 217.85,-58.99 439.53,-82.27 665.31,-64.77 32.28,2.51 55.05,10.64 76.33,36.27 146.94,176 310.6,332.8 519.81,434.26 110.81,53.62 225.42,97.62 347.8,118.03 30.13,5.06 60.62,11.37 67.49,-26.71 6.7,-37.55 -24.15,-43.69 -53.92,-49.98 -316.23,-65.9 -572.91,-228.9 -776.29,-477.75 -2.35,-2.72 -2.56,-7.22 -4.34,-13.56 322.37,47.99 609.34,174.72 868.68,367.65 141.66,105.4 275.97,220.56 427.97,311.89 71.07,42.77 147.61,72.9 226.86,106.88 -104.68,75.06 -212.99,135.52 -329.38,181.93 -22.77,9 -38.48,1.07 -56.33,-7.63 -310.1,-152.31 -637.12,-193.65 -977.15,-145.81 -49.63,6.85 -90.25,-0.92 -134.66,-29.98 -220,-144.38 -429.76,-304.11 -660.75,-431.91 -164.79,-90.97 -335.73,-160.09 -540.73,-183.72z"/>
   <path class="fil0" d="M11250.38 2127.21c-244.34,42.26 -439.99,169.5 -617.99,329.07 -100.68,90.41 -197.79,184.65 -305.03,267.64 -375.78,291.16 -878.24,274.54 -1261.6,15.34 -136.45,-92.24 -258.11,-200.86 -364.02,-326.87 -16.84,-19.85 -31.62,-41.13 -58.89,-76.84 65.54,25.43 113.53,46.71 163.36,63.13 416.92,137.17 811.85,70.04 1191.41,-131.59 33.21,-17.65 65.9,-25.07 103.25,-27.22 110.97,-6.14 211.15,-49.48 309.17,-98.03 94.03,-46.56 185.72,-97.62 285.17,-132.81 154.31,-54.54 451.56,5.21 555.16,118.18z"/>
   <path class="fil1" d="M7370.4 1740.67c155.18,-90.04 317.82,-151.95 489.27,-191.65 29.62,-6.85 53.82,-1.28 79.61,14.43 127.59,76.89 258.62,148.01 405.2,181.57 197.27,45.12 393.28,29.98 585.5,-29.42 48.55,-15.14 85.18,-12.07 127.95,17.35 114.97,79.04 215.7,174.72 323.1,262.61 137.88,112.77 291.47,191.86 468.18,222.71 9.92,1.64 19.7,4.34 29.26,7.21 3.79,0.92 7,3.64 15.5,8.29 -195.65,93.88 -394.72,157.78 -610.62,169.14 -225.79,12.07 -427.72,-66.05 -628.08,-152.36 -201.99,-86.97 -393.28,-195.29 -587.49,-297.61 -217.85,-114.81 -441.33,-215.7 -697.4,-212.27z"/>
   <path class="fil0" d="M8018.17 1516.69c305.9,-31.77 594.35,1.79 884.18,124.37 -320.54,95.26 -608.78,58.99 -884.18,-124.37z"/>
   <path class="fil2" d="M37.03 5022.26c2.35,49.99 -13.56,114.97 11.92,146.02 27.23,33.21 94.91,5.78 144.54,11.37 17.19,1.84 48.19,-13.15 47.68,17.85 -0.56,29.83 -31.41,16.63 -48.91,17.35 -48.56,1.79 -97.11,-0.87 -145.51,1.07 -32.13,1.49 -47.63,-5.21 -46.71,-42.21 2.51,-90.81 0.51,-181.77 1.23,-272.54 0.21,-15.7 -8.44,-41.34 21.84,-38.62 24.77,2.15 15.2,24.56 15.71,38.42 1.28,40.47 0.36,80.89 0.36,121.1 -0.72,0.2 -1.44,0.2 -2.15,0.2z"/>
   <path class="fil1" d="M2661.49 2599.64c-111.23,-0.56 -222.55,1.07 -333.73,-0.92 -35.56,-0.72 -52.69,8.49 -63.18,45.32 -44.05,154.87 -92.04,308.61 -138.45,462.97 -52.69,175.07 -105.6,349.94 -161.37,535.15 -11.87,-33.61 -20.35,-56.17 -27.94,-79.09 -101.29,-305.39 -203.06,-610.58 -302.31,-916.52 -11.93,-36.98 -26.56,-51.06 -66.46,-50.14 -108.97,3.08 -218.37,3.43 -327.39,0 -41.9,-1.48 -59.2,11.88 -72.03,51.22 -100.18,307.74 -202.3,614.76 -304.47,921.94 -6.34,18.78 -6.14,42.42 -29.98,56.33 -83.55,-277.6 -166.22,-551.22 -248.14,-825.19 -34.33,-114.81 -110.81,-180.5 -228.69,-195.14 -116.59,-14.42 -233.76,-3.02 -354.86,-6.08 2.2,15.5 2.2,21.63 4,27.22 189.14,571.28 378.85,1142.5 567.08,1714.29 19.7,59.91 62.82,74.19 116.44,74.75 101.04,0.87 202.14,-0.77 303.18,0.87 31.06,0.56 46.2,-8.49 55.97,-39.5 25.28,-80.68 54.85,-159.93 82.68,-239.89 86.26,-247.42 172.52,-494.89 259.55,-744.67 21.08,19.5 23.79,42.42 31.01,62.98 101.09,286.61 201.78,573.57 302.67,860.39 29.06,82.12 48.76,97.62 136.09,99.46 92.96,1.95 186.29,-2 279.04,1.79 42.62,1.8 58.48,-13.19 71.32,-52.18 143.81,-438.04 290.75,-874.97 434.06,-1313.23 36.83,-112.96 81.96,-223.63 105.96,-340.37 16.06,-77.82 -12.07,-111.38 -90.05,-111.74z"/>
   <path class="fil1" d="M5266.67 3686.22c66.26,-166.58 131.39,-330.1 201.79,-507.18 68.96,176.15 132.65,338.8 198.55,507.18l-400.34 0zm1194.84 669.04c-244.39,-575.93 -487.83,-1152.22 -730.24,-1729.07 -13.55,-31.93 -31.05,-40.58 -63.54,-39.5 -72.55,2.15 -145.45,0.72 -218.21,0.72 -177.07,0 -232.63,38.06 -302.31,202.86 -168.79,398.34 -338.44,796.14 -507.38,1194.28 -57.77,136.45 -114.76,273.25 -175.23,417.33 171.65,0 334.8,-0.72 497.76,0.51 27.63,0.2 32.69,-17.14 40.26,-35.92 32.13,-80.33 66.77,-159.73 96.03,-241.13 13,-36.06 30.7,-48.55 69.48,-47.99 163.72,2.15 327.59,0.87 491.31,0.87 153.23,0 155.23,-0.72 210.79,141.15 40.27,102.33 114.25,157.94 220.41,174.36 112.4,17.35 225.93,3.08 338.74,8.65 41.55,2 48.4,-8.65 32.13,-47.12z"/>
   <path class="fil1" d="M4445.41 4072.14c21.84,-29.98 27.07,-46.05 -8.14,-69.68 -98.69,-66.42 -196,-135.38 -291.67,-206.13 -33.93,-25.07 -52.13,-26.71 -82.12,8.85 -118.18,140.43 -270.55,204.13 -452.99,168.07 -211.71,-41.91 -344.93,-228.9 -345.09,-470.75 -0.2,-246.7 138.76,-434.77 355.74,-474.32 127.03,-23.28 243.28,7.06 348.66,83.91 105.09,76.74 175.64,74.03 274.39,-2.66 54.12,-42.27 105.55,-89.18 164.03,-124.22 59.4,-35.56 44.61,-63.49 9.06,-104.83 -197.49,-229.77 -452.12,-320.38 -748.66,-312.25 -711.51,19.14 -1103.71,716.17 -838.39,1327.86 285.18,658.05 1218.84,719.04 1615.19,176.16z"/>
   <path class="fil1" d="M7643.05 3641.81c-34.28,1.8 -68.76,1.64 -103.04,0 -28.7,-1.43 -42.62,7.78 -50.55,37.55 -22.21,83.56 -48.56,166.23 -73.83,249.06 -13.35,44.05 -27.99,87.9 -47.12,147.81 -39.86,-120.89 -73.83,-223.78 -107.55,-326.66 -36.11,-109.54 -36.27,-105.25 -149.08,-111.18 -56.49,-3.07 -75.47,18.93 -90.1,67.49 -35.72,119.31 -76.69,237.18 -121.26,373.07 -37.75,-124.17 -71.67,-229.41 -101.24,-335.88 -18.63,-66.26 -61.19,-96.54 -126.73,-99.98 -24.2,-1.48 -48.71,1.23 -72.75,-1.48 -46.35,-5.01 -49.07,12.12 -35.57,51.63 66.83,194.41 130.52,389.85 196.21,584.63 46.4,137.32 14.42,122.17 174.36,124.67 35.92,0.77 53.05,-9.57 64.61,-45.27 41.34,-125.96 86.62,-250.7 134.66,-387.71 38.27,109.02 72.34,207.56 107.75,305.74 47.48,132.3 47.99,132.15 186.24,126.53 1.99,0 3.99,-0.36 5.98,0 24.92,4.14 36.42,-9.21 43.7,-31.01 71.83,-220.04 144.38,-439.89 215.85,-660.24 14.07,-43.34 2.71,-71.47 -50.55,-68.76z"/>
   <path class="fil1" d="M9990.41 4228.34c-104.68,2.71 -188.78,-89.02 -190.58,-207.57 -1.64,-116.08 76.69,-207.76 179.94,-210.48 106.48,-2.87 188.58,86.46 190.02,206.34 1.28,115.83 -77.56,208.99 -179.38,211.71zm326.31 165.5c48.55,7.73 64.62,-7.77 64.05,-60.46 -3.07,-268.55 -1.43,-536.95 -1.43,-805.55 0,-153.03 -6.14,-157.73 -161.16,-157.16 -38.83,0.15 -52.34,9.72 -51.27,50.14 2.87,100.88 1.07,201.78 1.07,315.16 -16.93,-13.91 -25.99,-21.13 -34.64,-28.49 -134.65,-115.74 -331.94,-102.02 -449.61,31.36 -113.17,128.16 -131.39,362.64 -37.34,510.08 73.62,115.53 179.94,167.51 318.02,157.37 81.76,-5.93 140.38,-51.78 196.71,-108.1 14.78,94.55 15.71,95.32 113.17,95.32 14.07,0 28.5,-1.85 42.42,0.35z"/>
   <path class="fil1" d="M8155.74 4228.39c-112.09,0.72 -199.78,-88.26 -201.99,-205 -2.15,-120.23 79.61,-210.28 192.42,-211.77 110.31,-1.43 198.72,88.31 202.15,205.26 3.43,118.18 -80.69,210.79 -192.58,211.51zm1.64 -600.49c-233.91,-1.08 -411.91,166.94 -413.33,390.42 -1.64,223.06 171.29,390.21 403.77,390.57 234.07,0.51 411.5,-168.94 411.15,-392.21 -0.57,-218.21 -175.44,-387.71 -401.58,-388.78z"/>
   <path class="fil1" d="M9224.52 4234.12c-1.08,178.35 -7.58,157.37 160.8,160.29 42.98,0.92 53.61,-12.28 53.41,-54.13 -1.79,-276.68 -0.87,-553.57 -0.87,-830.26 0,-123.3 -15.35,-138.24 -140.44,-138.44 -8.13,0 -16.27,1.28 -24.2,-0.21 -41.13,-6.85 -49.99,12.48 -49.42,50.55 1.94,149.44 0.87,299.1 0.87,448.54 0,121.26 0.56,242.41 -0.15,363.67z"/>
   <path class="fil1" d="M9039.05 3863.8c81.4,-7.93 86.62,-48.7 79.92,-109.53 -1.08,-9.93 0.2,-20.21 -0.36,-30.34 -4.3,-79.2 -53.41,-107.03 -123.46,-69.63 -49.99,26.71 -80.84,71.63 -115.12,129.6 -9.57,-131.8 -20.41,-141.87 -142.79,-141.72 -5.93,0 -12.28,0.72 -18.06,-0.15 -42.57,-7.06 -54.28,10.8 -53.77,53.05 2.15,179.58 1.79,359.16 0.71,538.94 -1.07,182.45 -3.07,156.81 167.15,160.24 38.06,0.77 47.12,-11.51 47.12,-47.78 -0.21,-98.95 -7.06,-197.84 5.42,-296.38 12.79,-100.74 65.49,-177.59 153.23,-186.29z"/>
   <path class="fil2" d="M3650.2 4861.61c-10.13,-2.92 -21.84,-3.27 -27.07,6.86 -7.41,14.07 -11.77,29.77 -17.19,44.92 -26.14,74.75 -52.49,149.44 -83.91,238.97 -31.92,-96.39 -57.92,-176 -84.82,-255.19 -5.42,-15.91 -4,-40.83 -27.79,-41.34 -26.91,-0.57 -26.91,25.78 -32.84,43.85 -26.2,79.4 -51.48,159.16 -77.1,238.97 -18.58,-5.77 -17.86,-19.7 -21.64,-30.69 -23.84,-68.2 -46.91,-136.81 -71.68,-204.85 -6.85,-18.58 -7.72,-52.54 -39.14,-40.78 -28.13,10.44 -4.85,33 0.52,49.27 30.9,89.33 62.31,178.66 94.03,267.64 5.63,15.91 5.06,38.98 31.26,37.9 25.99,-1.07 22.92,-25.07 28.34,-40.41 27.43,-77.77 53.56,-155.95 85.69,-249.98 32.13,95.46 59.97,177.43 87.54,259.39 4.5,13.15 5.62,29.06 23.84,31 13.56,1.49 22.92,-4.29 27.63,-17.85 36.63,-104.53 73.63,-208.85 110.1,-313.32 2.87,-8.5 9.93,-20.05 -5.78,-24.36z"/>
   <path class="fil2" d="M10325.38 5157.23c-53.26,-0.16 -92.76,-39.5 -91.54,-90.97 1.13,-49.07 38.99,-85.75 89.74,-87.18 51.78,-1.28 98.54,38.63 100.17,85.54 1.8,51.63 -41.9,92.8 -98.38,92.6zm137.01 -181.21c0.87,-33.36 -33.77,-33.36 -37.76,-21.49 -16.21,47.68 -34.28,9.93 -48.19,3.28 -55.41,-26.56 -121.1,-13.2 -158.09,34.49 -33.56,43.13 -31.05,114.76 5.22,156.8 39.9,46.05 104.16,55.05 159.21,23.13 11.72,-6.86 19.65,-21.13 35.92,-19.7 0,89.02 -45.12,125.29 -129.8,103.6 -17.29,-4.5 -34.43,-11.16 -50.5,-19.14 -13.35,-6.5 -17.91,2 -23.48,10.13 -5.42,8.14 -2.51,14.63 5.42,19.5 49.27,30.49 103.04,34.64 157.37,21.84 44.97,-10.49 71.68,-42.77 78.89,-89.17 11.57,-74.19 3.59,-148.88 5.78,-223.27z"/>
   <path class="fil2" d="M1805.7 5157.18c-50.5,-2.15 -86.05,-39.14 -86.26,-89.85 -0.15,-50.55 41.14,-89.02 94.76,-87.89 53.41,1.07 95.1,41.13 93.88,90.2 -1.49,51.99 -45.84,90.1 -102.38,87.54zm105.81 -203.02c-16.07,45.64 -32.7,13.15 -50.2,5.01 -47.27,-21.99 -94.23,-22.35 -136.65,10.49 -42.42,33.06 -56.28,78.18 -43.29,129.6 13.15,52.13 49.27,81.4 101.76,90.97 46.04,8.49 81.4,-15.14 121.1,-45.48 -2.3,97.82 -50.5,135.01 -136.81,110.61 -15.5,-4.29 -30.28,-10.8 -45.12,-17.29 -11.72,-5.22 -18.57,-1.64 -23.27,9.72 -3.59,9.06 -1.08,14.99 6.85,19.85 49.68,30.55 103.6,33.62 157.78,19.86 44.56,-11.16 74.91,-43.29 77.61,-90.05 4.14,-74.34 2.36,-149.08 3.43,-223.63 0.36,-29.05 -28.9,-31.77 -33.2,-19.65z"/>
   <path class="fil2" d="M6232.66 5157.28c-54.9,-0.56 -90.97,-36.47 -90.82,-90.61 0.21,-52.34 39.91,-89.18 94.04,-87.54 54.33,1.79 93.11,40.27 91.68,90.97 -1.43,52.33 -39.85,87.69 -94.9,87.18zm101.96 -204.34c-19.85,50.91 -39.34,9.78 -55.97,2.56 -53.61,-23.27 -118.59,-9.41 -153.03,35.36 -33.41,43.14 -31.41,116.44 3.79,157.01 39.5,45.13 101.25,57.05 153.39,28.34 13.91,-7.36 25.99,-17.85 40.06,-27.63 5.98,86.67 -38.63,126.88 -119.62,109.23 -19.49,-4.35 -38.62,-11.36 -56.68,-19.5 -11.93,-5.26 -19.14,-2.35 -24.77,7.01 -4.5,7.78 -2.87,16.06 5.06,20.97 46.76,30.13 98.39,33.72 151.08,22.92 45.69,-9.21 79.41,-37.55 83.2,-83.96 6.13,-76.18 4.34,-152.67 6.13,-229.2 0.72,-26.35 -27.99,-35.41 -32.64,-23.13z"/>
   <path class="fil2" d="M4494.42 5183.32c-52.53,0.57 -90.61,-39.13 -92.95,-96.9 -2.56,-59.56 36.27,-105.75 89.89,-107.03 51.63,-1.28 97.47,45.84 98.34,101.24 1.07,56.85 -40.99,102.17 -95.27,102.68zm132.1 -306.26c-0.21,-14.63 5.78,-35.76 -21.13,-33.76 -21.12,1.63 -16.42,19.65 -16.57,32.48 -0.77,36.27 -0.36,72.55 -0.36,115.53 -84.31,-57.04 -149.09,-55.61 -195.86,-1.12 -43.49,50.91 -44.4,133.42 -2.15,184.85 46.56,56.33 110.82,57.55 193.09,3.22 12.48,9.78 -5.57,40.27 24.92,37.55 30.85,-2.87 17.5,-27.42 17.7,-42.06 1.28,-98.9 0.87,-197.79 0.36,-296.69z"/>
   <path class="fil2" d="M1020.12 5183.22c-53.82,-1.43 -91.74,-46.55 -89.74,-106.52 1.99,-56.48 42.41,-98.34 93.67,-97.26 51.83,1.07 95.83,49.83 94.96,104.88 -1.08,56.84 -44.61,100.33 -98.9,98.9zm135.32 -305.75c0,-14.47 6.34,-35.92 -20.56,-34.12 -21.28,1.28 -16.94,19.14 -17.14,32.13 -0.72,36.83 -0.16,73.62 -0.16,115.32 -85.74,-57.2 -146.94,-55.56 -195.49,0 -46.05,52.69 -44.92,136.09 2.35,188.43 47.84,53.05 108.82,52.69 188.07,-1.08 12.63,9.72 -5.62,40.26 24.92,37.55 31,-2.71 17.5,-27.27 17.65,-41.7 1.28,-98.9 0.92,-197.84 0.36,-296.54z"/>
   <path class="fil2" d="M7991.05 5050.31c-76.03,6.29 -62.68,-38.99 -60.68,-87.9 -13.5,-51.63 6.5,-73.68 67.69,-69.88 81.05,5.26 120.39,27.06 119.88,79.4 -0.57,54.33 -38.47,70.96 -126.88,78.38zm78.68 -188.07c-49.83,-13.35 -100.53,-5.27 -150.72,-7.98 -27.43,-1.44 -27.99,15.7 -27.79,35.2 0.36,48.56 0.16,96.95 0.16,145.51 0,48.35 -0.51,96.9 0.2,145.3 0.16,12.79 -5.42,30.85 15.86,32.85 26.56,2.3 20.77,-18.42 22.05,-33.41 7.73,-91.69 7.57,-91.54 101.97,-95.11 8.13,-0.36 16.21,-0.36 24.14,-1.64 59.61,-8.29 100.17,-51.27 102.74,-108.46 2.71,-58.84 -26.71,-95.47 -88.62,-112.25z"/>
   <path class="fil2" d="M1484.3 4947.06c-27.43,6.34 -51.06,38.27 -84.82,4 -12.64,-12.99 -24.36,9.57 -24,27.99 0.51,34.13 0.16,68.4 0.16,102.53 0,34.28 -0.16,68.55 0,102.68 0.2,13.86 -1.08,29.56 20.05,29.56 20.56,0.21 21.28,-14.93 21.48,-29.21 0.51,-42.26 -0.72,-84.46 0.87,-126.72 1.85,-50.86 32.49,-78.84 80.69,-79.2 49.11,-0.21 70.24,32.85 70.6,79.97 0.36,40.21 0,80.47 0.51,120.74 0.36,14.94 -4.5,34.79 21.13,34.28 20.41,-0.36 20.56,-16.06 20.41,-30.13 -0.93,-52.18 1.07,-104.68 -5.07,-156.3 -7.77,-65.18 -57.4,-94.95 -122.02,-80.17z"/>
   <path class="fil2" d="M8304.72 5188.81c-30.28,-3.59 -63.33,-12.43 -60.82,-52.7 3.63,-57.76 49.27,-53.56 91.89,-55.76 19.65,11 60.26,-13.15 62.26,33.56 1.79,40.11 -47.27,80.33 -93.32,74.91zm130.88 -70.2c0,-14.06 0.15,-28.13 0,-42.21 -0.56,-105.45 -64.11,-153.23 -166.43,-123.66 -14.22,4.14 -42.93,2.71 -35.71,29.77 6.65,25.48 25.99,5.78 39.7,4.86 43.69,-3.23 90.76,-16.07 116.75,35.77 10.64,21.12 11,40.06 -22.57,34.64 -32.13,-5.42 -64.05,-6.86 -95.98,0.2 -42.41,9.36 -68.6,35.2 -68.04,79.4 0.36,44.41 28.14,70.2 69.99,78.18 34.13,6.49 67.9,3.94 98.18,-17.71 6.7,-4.7 18.99,-22.05 26.2,-4.85 6.5,15.7 11.57,26.5 28.7,17.85 15.86,-7.93 8.13,-24.91 9.01,-38.11 1.28,-17.86 0.2,-36.06 0.2,-54.13z"/>
   <path class="fil2" d="M694.15 5189.1c-34.64,-1.23 -64.05,-13.71 -66.25,-54.28 -1.59,-34.84 31.05,-54.33 89.74,-53.82 18.78,10.29 61.34,-15.7 62.77,35.21 1.28,39.7 -39.14,74.54 -86.26,72.9zm-50.55 -232.27c-11.72,4.7 -31.56,4.49 -25.99,25.48 5.98,21.79 20.77,9.72 33.97,6.85 31.73,-6.85 64.21,-11.05 94.91,3.59 20.92,10.13 38.11,28.18 31.77,52.89 -6.85,26.92 -30.13,7.42 -45.63,9.57 -11.78,1.64 -24.05,-2.15 -36.12,-1.64 -43.7,2 -85.54,8.5 -104.32,56.33 -11.57,29.21 -5.78,55.77 15.86,78.13 35.56,36.98 78.89,35.2 123.46,22.56 9.42,-2.72 17.55,-9.73 26.56,-13.86 7.06,-3.08 9.57,-12.84 23.27,-2.21 32.34,25.28 34.64,22.77 36.27,-18.93 0.93,-22.05 0.21,-44.41 0.21,-66.62 0,-12.07 0,-24.2 0,-36.27 -0.36,-106.47 -73.83,-155.59 -174.21,-115.88z"/>
   <path class="fil2" d="M2578.41 4958.62c-48.2,-25.12 -93.32,-13.2 -142.95,29.21 0,-46.56 0.36,-80.48 -0.36,-114.4 -0.15,-12.84 4.71,-30.34 -16.78,-32.13 -25.27,-2.2 -22.92,16.58 -22.92,32.49 -0.2,102.68 -0.2,205.36 0.16,308.09 0,13.71 -2.31,31 18.42,31.21 21.69,0.36 17.5,-18.07 17.7,-31.06 0.92,-40.26 -1.43,-80.68 1.64,-120.74 3.95,-52.9 39.14,-85.18 85.9,-81.2 50.35,4.3 67.33,38.07 68.19,83.35 0.77,38.27 -0.51,76.74 0.57,114.81 0.36,14.27 -7.06,36.48 19.7,35 25.07,-1.23 17.65,-22.56 18.22,-36.99 1.07,-32.13 -0.36,-64.41 0.51,-96.54 1.28,-47.48 1.64,-95.31 -47.99,-121.1z"/>
   <path class="fil2" d="M5907.89 5182.97c-55.77,-0.57 -97.83,-44.05 -97.83,-101.46 -0.2,-57.91 42.62,-103.04 96.9,-102.32 53.47,0.72 97.11,46.92 97.83,102.89 0.56,58.27 -40.78,101.4 -96.9,100.89zm-1.08 -237.91c-76.69,0 -139.52,62.83 -138.81,138.45 0.72,76.33 62.83,135.53 141.52,134.45 75.41,-0.87 135.52,-60.26 135.16,-133.73 -0.15,-77.41 -61.34,-139.17 -137.88,-139.17z"/>
   <path class="fil2" d="M2844.45 5068.88c-7.41,2.15 -16.06,0.36 -24.04,0.36 -6.09,0 -12.43,1.23 -18.22,-0.21 -21.12,-5.57 -57.4,14.99 -61.54,-14.06 -4.3,-31.42 19.49,-59.05 53.77,-72.19 25.27,-9.78 48.04,-6.5 69.16,6.85 23.28,14.79 42.57,38.06 37.14,64.62 -6.29,30.49 -37.14,8.85 -56.28,14.63zm-54.69 -118.08c-60.67,14.48 -100.37,77.61 -93.88,149.65 6.14,69.11 58.84,118.59 116.09,119.67 40.41,-0.93 68.55,-4.14 92.19,-21.49 10.13,-7.21 29.77,-12.27 22.56,-29.41 -10.09,-23.85 -25.07,-7.42 -38.99,-1.08 -63.49,29.41 -116.59,17.29 -140.95,-31.62 -11.72,-23.79 -15.5,-41.85 22.41,-40.21 40.21,2 80.48,0.72 120.9,0.36 55.05,-0.36 64.46,-14.63 44.97,-68.25 -22.57,-61.7 -80.89,-92.75 -145.31,-77.61z"/>
   <path class="fil2" d="M3824.1 5183.32c-56.84,-0.41 -96.9,-42.26 -96.9,-101.45 0,-59.4 40.78,-103.04 95.82,-102.68 53.41,0.36 98.19,47.07 98.03,102.48 0,58.84 -41.18,102.01 -96.95,101.65zm-0.15 -237.18c-77.97,-1.08 -139.01,58.28 -139.37,135.73 -0.36,75.27 57.4,134.45 133.01,136.09 79.41,1.64 140.8,-55.61 141.67,-132.5 0.92,-78.48 -56.84,-138.04 -135.32,-139.32z"/>
   <path class="fil2" d="M9382.71 5068.92c-7.58,1.95 -16.07,0.36 -24,0.36 -6.14,0 -12.43,1.23 -18.06,-0.2 -20.92,-6.14 -56.13,15.91 -61.19,-14.28 -4.65,-29.05 18.42,-55.4 48.2,-69.98 26.19,-12.84 51.11,-9.06 74.75,4.85 24.51,14.43 41.13,40.63 36.78,64.98 -5.22,29.21 -37.14,9.01 -56.48,14.27zm-41.14 -120.59c-66.05,7.42 -114.25,70.19 -109.94,143.31 4.55,76.53 57.76,127.8 132.66,127.95 22.2,-1.58 45.12,-1.23 64.46,-13.71 15.14,-9.92 44.92,-16.21 32.49,-40.26 -13.56,-25.79 -30.49,1.84 -44.61,7.98 -58.28,25.07 -110.97,9.37 -133.89,-40.47 -11.21,-24.35 -9.77,-37.5 22,-36.63 46.4,1.13 92.96,-1.94 139.16,0.93 35.77,2.35 41.14,-12.79 35.56,-42.78 -13.14,-70.96 -68.55,-114.09 -137.88,-106.32z"/>
   <path class="fil2" d="M415.94 5072.51c-27.07,-16.22 -68.76,20.56 -82.48,-22.36 -9.57,-29.77 45.12,-75.98 81.91,-73.31 42.98,3.27 79.61,28.33 76.54,70.03 -3.79,51.84 -52.69,6.35 -75.98,25.64zm9.77 -124.53c-76.74,-4.85 -133.37,47.64 -136.81,128.17 -3.63,86.25 51.07,144.53 149.44,143.09 12.43,1.08 37.86,-5.21 59.72,-21.12 9.92,-7.01 29.62,-13.15 21.84,-29.93 -11,-23.64 -26.35,-6.49 -39.55,0.51 -47.63,25.84 -92.39,27.64 -130.47,-17.14 -10.28,-12.27 -21.99,-27.22 -16.98,-43.49 6.85,-21.28 27.63,-10.08 41.9,-10.85 32.13,-1.59 64.62,-0.51 96.9,-0.51 70.04,0 83.4,-21.85 49.63,-84.47 -20.2,-37.55 -50.7,-61.54 -95.62,-64.26z"/>
   <path class="fil2" d="M5690.19 5177.39c-38.27,-0.36 -76.89,-3.43 -114.81,0.51 -47.27,5.07 -58.12,-14.22 -56.33,-57.91 3.43,-74.35 1.28,-148.88 0.77,-223.43 0,-15.19 4.49,-35.92 -18.99,-37.19 -28.85,-1.79 -23.07,21.64 -23.28,38.63 -0.56,46.19 -0.15,92.6 -0.15,138.8 0,46.35 1.08,92.55 -0.41,138.96 -0.87,27.07 6.34,40.63 36.68,39.7 58.48,-1.64 116.95,-0.35 175.23,-0.51 13.91,0 30.69,1.79 31.41,-18.62 0.72,-21.64 -16.63,-18.78 -30.13,-18.94z"/>
   <path class="fil2" d="M9033.17 4948.04c-24.56,6.13 -47.63,50.55 -78.17,2.86 -6.86,-10.44 -22,7.42 -21.8,24.2 0.52,34.13 0.16,68.4 0.16,102.74 0,36.27 -0.16,72.34 0.2,108.61 0.16,11.77 -0.56,25.12 16.43,26.91 21.43,2.16 21.28,-13.19 21.43,-27.42 0.21,-40.27 -0.72,-80.69 0.36,-120.95 1.48,-53.26 33.77,-90.97 78.53,-88.26 51.27,2.87 73.98,34.64 73.83,84.62 -0.2,40.27 -0.36,80.53 0.15,120.8 0.21,13.86 -0.87,29.41 19.35,31.2 21.12,2 22.2,-12.27 21.99,-27.06 -0.71,-52.34 2.57,-105.25 -3.43,-156.86 -7.72,-66.42 -63.49,-97.62 -129.03,-81.4z"/>
   <path class="fil2" d="M5095.79 4949.87c-21.8,7.62 -40.42,48.04 -69.12,2 -8.65,-14.07 -24.35,7.06 -24,25.99 0.72,34.13 0.21,68.6 0.36,102.89 0,36.26 -0.15,72.54 0.21,108.81 0,12.48 1.59,24.77 19.14,24 16.93,-0.51 18.21,-12.79 18.37,-25.07 0.41,-42.42 -0.16,-84.62 0.56,-127.04 0.92,-50.55 29.06,-82.17 77.25,-83.75 50.55,-1.85 75.62,31.92 76.53,81.76 0.72,42.41 0,84.82 0.52,127.03 0.2,11.77 -0.52,25.28 16.63,26.71 21.63,2.2 21.12,-13.5 21.12,-27.79 0.16,-48.34 1.95,-96.9 -0.36,-145.09 -3.63,-74.4 -67.18,-114.97 -137.21,-90.46z"/>
   <path class="fil2" d="M10124.1 5042.68c-3.07,-72.55 -58.63,-111.53 -129.23,-95.11 -25.28,5.78 -48.56,50.2 -80.12,3.44 -7.58,-11.01 -21.28,7.93 -21.13,24.2 0.72,34.28 0.2,68.6 0.2,102.88 0,28.14 -1.79,56.69 0.72,84.62 1.44,17.35 -13.71,48.55 15.86,48.91 35.05,0.36 17.35,-33.36 19.14,-51.78 3.07,-31.98 -0.36,-64.46 1.64,-96.54 3.64,-52.9 38.27,-90.1 82.12,-86.31 51.47,4.34 72.55,37.4 72.9,86.31 0.21,38.21 -0.51,76.69 0.36,114.96 0.41,14.43 -5.93,36.27 20.26,34.85 25.43,-1.49 16.93,-23.28 17.29,-37.4 1.08,-44.2 1.85,-88.77 0,-133.02z"/>
   <path class="fil2" d="M2293.99 4985.48c12.43,1.85 30.29,4.71 31.01,-17.14 0.92,-22.2 -16.79,-20.36 -29.78,-18.57 -39.34,5.21 -55.05,-9.93 -49.42,-49.48 2.15,-15.35 -3.28,-30.49 -22.41,-27.58 -48.55,7.37 7.21,85.9 -56.64,85.9 -1.64,0 -4.54,22.71 7.01,24.15 39.19,4.7 25.84,33.61 27.07,54.69 2.36,40.11 0.72,80.53 5.06,120.23 4.14,39.7 29.26,59.92 72.04,58.99 16.78,-1.94 44.91,5.06 44.91,-23.27 -0.15,-25.08 -25.42,-10.44 -38.62,-11.52 -32.28,-2.72 -39.86,-21.13 -38.99,-48.91 1.08,-32.13 3.08,-64.47 0.57,-96.39 -3.08,-37.19 5.93,-57.41 48.19,-51.12z"/>
   <path class="fil2" d="M6729.7 5078.03c-27.43,-12.12 -56.12,-21.33 -84.11,-32.33 -14.27,-5.78 -23.63,-16.58 -21.99,-32.49 1.59,-17.66 12.27,-27.58 29.92,-33 18.99,-6.14 35.57,2.51 53.06,3.22 17.9,0.72 41.54,31.78 51.11,2.36 9.36,-28.49 -26.2,-27.79 -44.61,-35 -12.43,-5.06 -27.58,-3.79 -37.5,-4.91 -48.4,1.13 -85.18,15.92 -93.16,64.11 -7.72,48.19 28.54,66.21 65.9,80.32 18.57,7.01 38.27,11.52 56.69,18.94 17.65,7.21 31.92,19.34 28.13,40.98 -3.43,20.41 -18.93,29.57 -38.26,33.41 -31.42,6.09 -59.36,-3.99 -86.83,-17.34 -9.92,-4.71 -21.28,-15.71 -28.85,3.43 -4.7,11.72 0,18.57 10.29,23.99 44.2,23.49 89.89,35.21 138.6,14.27 30.7,-13.35 45.69,-38.83 46.4,-71.47 0.92,-30.69 -20.05,-47.48 -44.76,-58.48z"/>
   <path class="fil2" d="M7589.63 5067.81c-31.57,-13.56 -93.11,-10.65 -77.97,-61.04 15.55,-51.78 66.62,-26.35 103.81,-12.78 13.86,5.21 24.5,3.94 29.05,-9.93 5.01,-16.07 -9.57,-18.99 -20.05,-24 -32.13,-15.7 -66.41,-18.42 -100.17,-10.13 -31.41,7.57 -53.05,27.63 -57.56,61.9 -4.7,36.12 15.5,57.2 44.92,70.4 25.48,11.36 53.05,18.22 79.25,28.34 15.7,6.14 28.7,17.29 26.71,36.06 -2.15,19.86 -15.14,31.26 -34.85,36.68 -20.92,5.94 -40.06,-3.27 -59.76,-3.27 -21.07,0 -45.48,-44.2 -58.28,-7.58 -10.64,31.06 34.29,29.21 55.05,40.27 11.72,6.08 27.43,4.29 37.71,5.73 50.91,-0.36 89.17,-16.94 99.46,-65.85 10.85,-51.48 -28.34,-68.04 -67.33,-84.82z"/>
   <path class="fil2" d="M7359.66 5166.39c-48.35,26.71 -92.76,23.84 -129.6,-19.86 -29.77,-35.56 -28.13,-99.97 2.72,-134.09 36.98,-40.98 79.96,-41.7 124.72,-13.71 13.71,8.49 26.51,23.28 39.5,2 12.48,-20.77 -9.21,-27.43 -19.85,-34.85 -43.29,-29.77 -117.83,-25.27 -159.17,7.42 -45.12,35.72 -62.47,95.26 -44.4,151.59 18.57,57.2 66.25,92.4 130.67,93.12 22.56,1.63 47.99,-3.95 69.83,-19.86 13.2,-9.57 39.55,-16.58 25.64,-38.98 -12.43,-20.21 -27.07,0 -40.06,7.21z"/>
   <path class="fil2" d="M6954.3 4949.77c-39.19,3.99 -68.6,-0.72 -58.68,-52.18 2.35,-11.72 -0.16,-24.72 -17.35,-25.07 -16.42,-0.57 -20.92,10.13 -19.86,23.27 3.08,39.7 -50.34,78.54 -1.22,120.03 5.93,4.86 0.71,23.12 0.87,35.2 0,32.29 -0.52,64.62 0.35,96.75 1.29,47.27 27.84,68.4 73.32,68.76 18.42,-0.56 42.93,1.79 44.76,-20.56 2.16,-27.43 -23.68,-12.64 -36.47,-13.92 -33.21,-3.07 -45.68,-20.2 -44.05,-51.98 1.29,-26.15 2,-52.49 -0.15,-78.69 -3.64,-42.41 -1.64,-77.04 56.84,-66.05 13.35,2.51 29.78,2.51 27.99,-19.86 -1.48,-17.85 -14.99,-16.78 -26.35,-15.7z"/>
   <path class="fil2" d="M8832.46 4949.92c-41.29,5.63 -60.42,-8.44 -53.92,-52.13 2.51,-16.06 -13.56,-34.84 -21.85,-23.28 -22.04,29.93 -34.84,66.62 -50.75,100.69 -0.72,1.48 4.34,8.13 6.85,8.13 40.98,1.28 26.76,32.13 27.63,52.9 1.64,36.27 -0.35,72.7 0.72,108.97 1.64,50.04 30.13,71.88 72.96,71.47 23.28,-1.43 46.91,2.36 46.2,-23.99 -0.72,-22.36 -21.49,-10.65 -33.21,-10.8 -37.19,-0.36 -49.47,-20.41 -48.19,-54.33 1.07,-28.34 2.71,-56.84 -0.36,-84.83 -4.91,-42.98 6.65,-65.54 54.69,-57.4 12.58,2 30.64,4.5 30.13,-18.06 -0.36,-22.36 -18.42,-18.94 -30.9,-17.35z"/>
   <path class="fil2" d="M4149.59 4949.97c-27.07,5.27 -43.85,26.92 -69.12,47.12 -12.78,-17.65 3.44,-48.71 -29.56,-47.63 -17.35,0.51 -18.78,10.64 -18.78,23.48 0,72.35 -0.21,144.54 0.15,216.93 0,12.63 2.36,24 19.34,23.84 15.5,-0.2 20.77,-9.77 21.28,-22.92 0.92,-16.06 1.08,-32.13 0.57,-48.19 -2.21,-70.25 5.42,-134.86 89.89,-154.51 16.07,-3.8 17.29,-14.99 14.94,-27.28 -3.43,-17.34 -17.65,-12.99 -28.7,-10.85z"/>
   <path class="fil2" d="M9672.39 4949.46c-31.57,5.98 -52.69,27.43 -74.75,53.97 -16.79,-17.5 8.13,-46.04 -21.8,-53.25 -13.76,-3.23 -23.32,2.71 -23.32,18.78 0,74.75 -0.16,149.28 0.2,223.83 0,10.29 3.28,19.65 16.63,20.72 16.42,1.28 20.56,-8.45 20.92,-22 0.36,-10.13 0.36,-20.2 0.15,-30.34 -0.51,-76.48 -2.51,-153.74 97.47,-174.51 13.91,-2.87 11.93,-14.27 11.21,-23.64 -1.28,-18.62 -15.14,-15.7 -26.71,-13.55z"/>
   <path class="fil2" d="M8642.04 4949.1c-33.21,2.51 -52.85,26.15 -76.9,50.35 -15.5,-16.27 9.93,-47.12 -25.07,-49.48 -10.64,-0.87 -21.48,2.36 -21.64,14.99 -0.56,76.69 -0.56,153.44 0,230.13 0.16,10.85 7.22,17.85 19.3,18.57 16.63,1.08 20.56,-9 20.92,-22.35 0.36,-10.14 0.56,-20.21 0.2,-30.34 -2.35,-76.89 -5.78,-154.16 95.11,-175.08 13.35,-2.71 12.64,-14.27 11.21,-24.2 -2.2,-13.14 -12.63,-13.35 -23.12,-12.58z"/>
   <path class="fil2" d="M4284.81 5026.21c0,-50.35 0.21,-100.68 -0.15,-151.24 0,-15.14 4.14,-34.99 -21.49,-33.56 -21.48,1.28 -17.5,18.58 -17.5,31.77 -0.36,100.68 -0.56,201.58 0,302.32 0.16,14.78 -5.42,35.92 18.73,37.14 25.48,1.12 20.05,-20.36 20.26,-35.16 0.51,-50.55 0.15,-100.88 0.15,-151.28z"/>
   <path class="fil2" d="M1271.37 4949.15c-13.35,0.16 -24.77,3.08 -24.77,18.94 -0.35,74.75 -0.35,149.44 0,224.19 0,13.86 7.42,21.84 22.56,22.2 22.05,0.51 20.21,-14.99 20.41,-28.9 0.36,-34.28 0.16,-68.56 0.16,-102.89 0,-36.42 0,-72.7 -0.16,-109.17 0,-12.28 -0.35,-24.72 -18.21,-24.36z"/>
   <path class="fil2" d="M9781.42 4949c-20.72,0.72 -20.2,15.35 -20.2,29.62 0,34.08 0,68.4 0,102.47 0,34.13 -0.36,68.4 0.2,102.53 0,13.71 -2,29.62 18.94,30.85 19.7,1.13 23.84,-11.87 23.84,-27.07 0.36,-70.4 0.36,-140.74 0.36,-211.15 0,-15.55 -3.08,-27.99 -23.13,-27.27z"/>
   <path class="fil2" d="M6480.44 4949.1c-20.57,0.51 -20.21,15.14 -20.21,29.42 -0.2,68.4 -0.2,136.8 0,205 0,13.71 -2.2,29.98 18.94,30.85 24.2,1.13 23.84,-16.78 24.2,-33 0.51,-32.13 0.15,-64.26 0.15,-96.39 0,-34.28 0.36,-68.4 0,-102.53 -0.15,-15.86 2,-34.13 -23.07,-33.36z"/>
   <path class="fil2" d="M4890.12 4949.1c-20.77,0.72 -19.86,15.71 -19.86,29.93 0,68.24 -0.2,136.65 0.15,205.05 0,13.92 -1.43,29.78 19.5,30.34 24.41,0.72 23.28,-17.55 23.48,-33.41 0.72,-32.28 0.16,-64.41 0.36,-96.54 0,-34.13 0.21,-68.4 -0.2,-102.53 0,-16.27 1.28,-33.77 -23.43,-32.85z"/>
   <path class="fil2" d="M7071.97 4949.56c-16.63,0.21 -19.7,10.29 -19.7,23.48 0,72.4 0,144.59 0.21,216.93 0.15,12.64 3.22,23.84 19.85,23.69 16.58,-0.2 19.29,-11.57 19.5,-24.2 0.36,-36.11 0,-72.19 0.15,-108.3 0,-36.27 0,-72.4 0,-108.46 0,-13.35 -3.58,-23.28 -20,-23.13z"/>
   <path class="fil2" d="M9783.87 4850.72c-12.79,-0.71 -23.07,1.28 -23.43,17.71 -0.36,13.14 2.87,22.71 18.78,22.2 14.22,-0.41 27.94,-0.77 27.58,-20.61 -0.15,-15.51 -10.08,-18.94 -22.92,-19.3z"/>
   <path class="fil2" d="M7068.86 4850.26c-14.07,0.77 -22.2,6.86 -21.28,22.05 0.87,15.71 11.36,18.93 24.56,18.58 15.14,0.56 21.07,-7.22 20.35,-21.85 -0.51,-16.06 -10.28,-19.29 -23.63,-18.78z"/>
   <path class="fil2" d="M6478.08 4891.09c13.35,0 23.43,-3.79 24,-19.34 0.71,-15.35 -7.93,-20.92 -21.85,-21.49 -13.55,-0.51 -22.76,3.43 -23.12,19.35 -0.51,14.78 6.13,21.48 20.97,21.48z"/>
   <path class="fil2" d="M4895.23 4850.83c-11.41,-0.21 -24,-1.8 -25.64,15.14 -1.63,16.78 3.95,25.84 22.21,24.76 12.42,-0.72 23.43,-2.56 23.99,-18.42 1.44,-15.19 -6.85,-21.13 -20.56,-21.48z"/>
   <path class="fil2" d="M1266.2 4850.36c-14.63,0.72 -20.92,9.01 -19.65,23.28 1.44,16.43 13.51,17.35 25.79,17.35 16.63,0.36 19.5,-9.93 18.78,-23.48 -0.72,-16.79 -12.27,-17.86 -24.92,-17.15z"/>
  </g>
 </g>
</svg>
