<?xml version="1.0" encoding="UTF-8"?>
<!DOCTYPE svg PUBLIC "-//W3C//DTD SVG 1.1//EN" "http://www.w3.org/Graphics/SVG/1.1/DTD/svg11.dtd">
<!-- Creator: CorelDRAW -->
<svg xmlns="http://www.w3.org/2000/svg" xml:space="preserve" width="125.436mm" height="73.4676mm" version="1.1" style="shape-rendering:geometricPrecision; text-rendering:geometricPrecision; image-rendering:optimizeQuality; fill-rule:evenodd; clip-rule:evenodd"
viewBox="0 0 12529.36 7338.39"
 xmlns:xlink="http://www.w3.org/1999/xlink"
 xmlns:xodm="http://www.corel.com/coreldraw/odm/2003">
 <defs>
  <style type="text/css">
   <![CDATA[
    .fil1 {fill:#D1D1D1;fill-rule:nonzero}
    .fil0 {fill:#B4B4B5;fill-rule:nonzero}
   ]]>
  </style>
 </defs>
 <g id="Layer_x0020_1">
  <metadata id="CorelCorpID_0Corel-Layer"/>
  <g id="_2160152419488">
   <path class="fil0" d="M1911.45 4649.25c-160.7,461.62 -316.49,905.42 -468.21,1350.37 -18.71,55.12 -41.72,75.45 -100.28,73.42 -134.88,-4.54 -270.1,0 -405.34,-1.87 -101.95,-1.46 -127.88,-22.6 -159.52,-118.16 -255.26,-767.33 -509.93,-1535.01 -766.64,-2301.87 -18.93,-56.52 -22.02,-80.76 51.16,-77.26 116.93,5.71 234.5,0.99 351.67,1.63 196.71,1.23 322.9,90.02 381.11,278.09 113.61,366.65 222.98,734.82 334.37,1102.11 3.33,11.07 1.23,25.87 22.84,32.86 72.77,-218.08 145.95,-436.16 218.25,-654.24 77.9,-234.1 157.08,-467.57 231.25,-702.71 16.26,-51.62 40.26,-65.61 91.66,-64.56 150.49,3.32 300.93,4.14 451.19,-0.18 59.37,-1.87 83.03,18.47 100.91,74 143.04,439.83 289.39,878.67 434.93,1317.69 3.68,11.54 10.49,22.01 20.16,41.94 110.76,-366.7 218.66,-723.68 326.4,-1080.96 29.36,-97.42 60.01,-194.43 86.28,-292.48 10.32,-38.64 26.51,-53.2 67.64,-52.62 168.33,2.28 336.65,1.87 504.79,0.41 64.33,-0.41 92.69,32.28 98.06,91.89 5.53,59.83 -10.08,116.12 -28.78,171.81 -240.69,723.75 -482.02,1447.21 -721.01,2171.53 -15.44,46.67 -33.74,64.15 -83.9,62.93 -137.67,-3.74 -275.41,-0.24 -413.15,-1.64 -103.76,-1.28 -132.31,-24.06 -166.45,-121.47 -147.35,-419.73 -294.93,-839.46 -442.52,-1259.19 -3.09,-8.62 -6.99,-17.01 -16.89,-41.48z"/>
   <path class="fil0" d="M5094.55 3525.53c408.83,0 749.85,144.55 1008.82,468.26 31.81,39.85 27.74,58.55 -11.71,87.16 -84.71,61.01 -165.87,126.79 -248.55,190.7 -137.5,106.5 -229.97,110.81 -374.69,12.59 -93.92,-63.75 -192.39,-114.08 -307.05,-126.44 -260.61,-28.37 -476.66,79.94 -593,314.04 -130.51,262.71 -115.89,525.59 49.75,767.91 215.4,314.91 663.91,320.21 948.59,19.52 77.25,-81.58 77.25,-81.58 168.32,-16.84 126.61,90.02 252.81,180.67 380.23,269.23 29.61,20.57 43.18,32.27 15.44,68.87 -329.47,434.29 -775.08,584.14 -1297.17,500.3 -491.22,-78.94 -831.18,-368.34 -988.03,-840.27 -290.21,-872.5 326.63,-1711.72 1249.06,-1715.03z"/>
   <path class="fil1" d="M6497.76 41.73c391.99,-65.32 779.39,-55.88 1165.03,41.95 386.81,98.23 732.72,273.19 1035.28,532.58 221.99,190.52 483.82,232.24 764.59,216.38 243.37,-13.74 452.82,-108.08 642.13,-254.84 173.91,-134.83 352.72,-259.62 576.51,-298.66 167.56,-29.19 334.02,-17.65 515.51,11.54 -85.29,46.61 -160.93,81.98 -227.75,131.5 -224.02,166.52 -384.36,383.78 -504.38,632.45 -143.27,297.03 -330.47,559.91 -582.06,775.96 -39.27,33.5 -73.99,41.89 -122.52,26.51 -202.24,-64.15 -376.97,-176.78 -544.3,-302.79 -243.77,-183.53 -479.68,-378.19 -753.29,-518.96 -292.66,-150.67 -602.84,-244.18 -928.59,-285.89 -40.9,-5.18 -63.51,-26.34 -88.39,-51.21 -211.5,-211.5 -439.48,-402.02 -705.05,-543.66 -78.3,-41.89 -160.28,-75.62 -242.72,-112.85z"/>
   <path class="fil1" d="M9348.58 2288.48c181.08,-79.36 336.3,-171.17 480.38,-281.18 21.39,-16.43 40.9,-14.56 63.92,-9.44 381.46,87.57 693.28,-43.75 967.7,-302.57 140.36,-132.37 282.58,-264.34 466.75,-338.73 255.31,-102.95 514.05,-81.98 772.86,-20.98 139.95,32.91 278.67,71.14 429.17,132.61 -174.09,49.11 -325.4,108.95 -463.48,199.78 -140.18,92.46 -258.98,205.56 -352.56,344.45 -270.04,400.85 -636.11,696.6 -1039.42,951.9 -34.32,21.74 -68.4,15.79 -103.12,13.12 -319.64,-24.88 -592.42,-155.56 -826.94,-369.97 -121.65,-111.4 -248.49,-215.98 -395.26,-319z"/>
   <path class="fil0" d="M9718.97 1958.42c-145.72,102.37 -290.68,180.67 -443.56,245.23 -28.37,12.12 -50.16,11.72 -78.13,-2.27 -433.25,-217.03 -892.24,-271.92 -1368.08,-207.18 -64.5,8.62 -114.66,-0.41 -169.96,-37.41 -260.2,-173.68 -511.79,-360.71 -780.26,-522.5 -260.78,-157.2 -530.26,-293.3 -839.4,-328.03 -6.58,-0.58 -12.53,-6.76 -24.23,-13.34 444.78,-202.05 904.54,-286.3 1387.19,-246.04 34.32,2.85 54.89,19.52 75.39,43.99 163.02,193.2 334.84,376.32 552.51,511.38 196.7,122.12 406.97,208.4 633.27,256.12 10.08,2.05 20.33,2.69 30.24,4.48 36.77,6.99 70.91,0 77.9,-40.25 7.8,-44.4 -23.01,-57.74 -63.92,-65.95 -381.28,-75.45 -705.22,-256.36 -973.7,-536.49 -38.63,-40.49 -74.4,-83.66 -110.99,-126.03 -2.85,-3.26 -2.45,-9.44 -4.88,-19.52 282.4,43.17 548.36,128.7 800.13,258.4 234.56,120.67 441.35,282.18 648.7,442.34 198.15,152.89 400.38,297.79 651.8,383.08z"/>
   <path class="fil1" d="M12318.74 2916.51c-394.04,84.88 -693.28,316.95 -973.23,582.52 -205.79,195.07 -418.91,381.68 -694.74,472.92 -474.2,156.61 -914.68,65.55 -1326.36,-196.88 -225.07,-143.5 -414.55,-326.86 -586.19,-557.22 82.45,31.86 146.36,59.19 211.73,81.57 556.36,189.7 1088.54,109.6 1603,-148.16 71.08,-35.78 138.31,-63.1 220.93,-68.69 167.92,-11.08 315.5,-91.83 463.31,-166.7 70.27,-35.54 139.31,-73.59 211.09,-106.21 311.37,-141.87 597.26,-68.28 870.46,106.86z"/>
   <path class="fil0" d="M6968.01 2394.58c239.06,-130.51 473.39,-216.39 720.25,-270.46 32.86,-7.22 52.79,10.9 76.21,25.29 198.96,120.02 403.7,226.46 636.75,265.56 261.89,43.93 517.38,12.53 768.32,-65.78 40.72,-12.59 69.27,-8.45 105.28,14.39 174.9,111.57 322.08,256.88 480.96,387.8 194.43,160.17 412.91,267.43 662.45,309.56 11.89,2.1 26.1,0.23 36.12,19.75 -437.79,205.73 -885.01,314.45 -1363.95,151.25 -391.93,-133.77 -752.29,-333.96 -1116.27,-526.76 -256.71,-135.87 -516.32,-267.02 -811.89,-297.43 -57.97,-5.94 -116.35,-8.04 -194.25,-13.16z"/>
   <path class="fil1" d="M7881.23 2090.86c425.03,-46.5 815.98,2.21 1210.19,171.4 -437.39,131.74 -827.29,74.41 -1210.19,-171.4z"/>
   <path class="fil0" d="M7754.09 5077.78c-167.56,-0.64 -335.07,-0.23 -512.66,-0.23 93.92,-236.96 184.17,-464.54 279.78,-705.64 90.6,231.25 175.31,448.52 261.02,665.14 12.35,31.05 3.5,40.89 -28.15,40.72zm1150.41 957.79c-342.23,-810.68 -685.12,-1620.88 -1026.48,-2431.74 -15.84,-37.41 -37,-47.08 -74.8,-46.44 -122.53,2.22 -244.83,0.82 -367.3,0.82 -171.23,0.18 -272.14,69.45 -339.55,230.78 -77.49,185.22 -156.03,370.21 -234.33,554.97 -233.29,550.23 -465.94,1100.48 -700.68,1650.07 -22.02,51.62 -13.57,62.69 41.89,61.88 198.79,-2.86 397.77,-2.68 596.74,0 46.03,0.64 68.39,-14.16 84.24,-56.29 40.08,-107.09 87.16,-211.73 125.56,-319.46 19.35,-54.42 48.3,-70.03 105.69,-68.81 221.75,3.91 443.73,1.23 665.72,1.64 68.45,0.17 148.8,-20.17 202.46,8.44 58.79,31.23 63.92,121.89 89.61,187.21 58.61,149.27 171.82,230.2 324.59,240.69 167.1,11.54 335.83,2.68 504.79,2.68 1.4,-11.71 2.86,-14.56 1.86,-16.43z"/>
   <path class="fil0" d="M7048.64 7168.56c-32.69,2.28 -65.79,0.41 -98.88,0.41l0 0.41 -30.42 0c-103.76,0 -134.41,-40.9 -106.85,-140.59 4.89,-17.25 12.76,-27.33 30.59,-26.51 73.18,3.26 146.76,-8.62 219.54,8.62 45.62,10.9 73.99,35.54 68.63,84.25 -5.12,46.67 -37.18,70.32 -82.62,73.41zm-235.74 -427.94c-5.53,-31.63 16.43,-37 42.13,-36.36 25.28,0.59 50.57,0.18 75.85,0.18 0,-0.59 0,-1.23 0,-1.64 32.69,1.87 65.79,1.87 98.06,6.58 33.68,4.72 52.79,27.51 57.91,61.06 5.18,33.91 -7.16,60.83 -38.63,74.58 -70.09,30.41 -147.17,25.69 -215.8,10.08 -47.09,-10.9 -12.54,-75.04 -19.53,-114.49zm351.86 174.5c89.84,-59.2 110.58,-137.91 83.89,-225.48 -26.92,-88.56 -101.95,-127.02 -187.49,-131.97 -124.34,-6.99 -249.32,-3.09 -374.05,-4.89 -34.14,-0.64 -43.17,15.79 -42.94,46.62 0.58,226.52 0.18,452.82 0.41,679.12 0,21.62 2.04,42.36 31.22,41.13 154.75,-6.17 311.37,18.7 464.13,-17.07 120.6,-28.38 180.44,-126.03 158.01,-240.52 -13.92,-71.89 -65.73,-111.39 -133.19,-146.93z"/>
   <path class="fil0" d="M1457.05 6618.15c2.28,-83.66 -48.93,-62.11 -93.33,-64.97 -47.08,-3.26 -81.98,-3.5 -78.89,64.33 5.71,127.42 1.63,255.48 1.63,398.99 -23.65,-29.19 -36.41,-44.22 -48.29,-59.83 -92.7,-121.25 -186.86,-241.5 -276.87,-364.61 -47.31,-64.56 -112.62,-41.13 -167.74,-34.32 -45.62,5.71 -22.6,60.01 -23.01,91.66 -2.27,203.69 2.04,407.2 -2.86,610.65 -1.69,71.55 39.22,63.33 81.98,61.23 41.31,-1.63 93.75,20.57 90.43,-60.18 -5.3,-134.01 -1.4,-268.47 -1.4,-423.64 23.01,27.97 34.49,40.9 44.98,54.66 98.7,129.51 199.79,257.17 294.75,389.32 43.18,59.83 101.14,43.58 151.49,36.59 49.75,-6.99 23.65,-59.02 24.06,-89.61 2.45,-203.52 -2.45,-406.98 3.09,-610.25z"/>
   <path class="fil0" d="M6090.68 7180.32c-134.07,-0.23 -234.97,-108.95 -232.07,-250.35 2.68,-135.06 101.96,-235.73 230.61,-233.86 129.05,1.8 231.66,111.39 229.97,245.81 -1.4,132.14 -103.36,238.65 -228.51,238.41zm4.32 -639.84c-232.88,-2.69 -415.02,170.42 -416.48,395.66 -1.4,223.62 173.69,397.3 403.89,399.98 235.38,2.86 417.45,-173.45 417.68,-404.12 0.18,-215.8 -179.05,-389.08 -405.1,-391.52z"/>
   <path class="fil0" d="M3473.66 6919.95c-34.78,6.4 -70.96,4.54 -104.87,6.17 -35.54,-8.21 -92.29,16.43 -100.1,-14.56 -15.21,-59.6 -6.18,-125.39 -5.94,-188.71 0,-4.32 10.66,-12.53 16.25,-12.3 75.62,1.63 153.3,-17.89 226.06,13.51 41.95,18.12 57.56,57.97 53.43,100.97 -4.72,50.1 -34.08,85.7 -84.83,94.91zm123.7 167.51c-17.89,-24.41 -21.16,-38.4 9.49,-59.78 117.12,-82.04 152.89,-186.04 112.62,-309.56 -34.14,-104.23 -127.88,-162.78 -265.97,-164.24 -94.33,-0.99 -188.89,3.91 -283.05,-1.63 -62.28,-3.68 -83.03,11.95 -81.39,77.9 4.71,198.79 5.12,397.53 0,596.26 -2.04,74.24 12.76,102.6 94.15,97.83 62.28,-3.44 88.97,-15.61 79.29,-80.35 -4.08,-27.32 3.1,-56.52 -1.4,-83.83 -11.71,-72.78 20.34,-92.93 88.16,-86.35 31.22,3.09 51.21,10.9 68.05,37.64 36.18,58.38 76.84,114.08 113.43,172.22 16.67,26.11 34.73,40.26 67.41,38.64 47.9,-2.45 95.79,-0.59 158.71,-0.59 -33.73,-49.75 -57.56,-85.29 -81.8,-120.89 -25.7,-37.82 -50.81,-76.26 -77.72,-113.26z"/>
   <path class="fil0" d="M4853.81 6877.53c-60.83,4.72 -122.06,1.23 -183.36,1 -96.19,0 -93.1,0 -93.1,95.37 0.24,96.84 71.78,40.72 110,54.89 20.98,7.8 57.33,-13.57 59.37,27.15 1.86,35.54 15.03,74.81 -30.6,100.74 -117.58,66.36 -291.26,5.71 -339.14,-121.3 -38.87,-102.77 -11.31,-221.34 66.18,-286.54 77.49,-65.14 194.02,-71.08 291.67,-4.71 40.08,27.38 60.18,23.88 83.6,-13.34 9.5,-15.03 19.75,-30.65 32.92,-41.95 39.45,-33.9 28.14,-54.65 -11.72,-79.12 -133.42,-81.8 -274.42,-94.56 -416.41,-36.59 -196.76,80.58 -287.76,287.59 -225.71,491.69 57.74,189.7 259.79,304.77 467.22,266.15 209.86,-39.04 251.34,-84.07 251.34,-273.38 0,-38.22 -2.68,-76.67 0.64,-114.48 3.91,-47.9 -9.49,-69.86 -62.92,-65.56z"/>
   <path class="fil0" d="M2883.98 7167.69c-101.73,5.76 -204.1,-2.04 -305.83,2.85 -70.73,3.33 -54.07,-42.53 -54.24,-79.93 -0.41,-38.46 -14.62,-83.67 55.29,-79.36 83.61,4.95 168.33,-3.09 252.16,2.51 69.92,4.48 55.3,-40.72 56.93,-79.12 2.1,-42.18 6.58,-80.82 -59.37,-76.27 -83.66,5.54 -168.32,-2.1 -252.22,2.28 -72.13,3.67 -50.97,-45.86 -52.78,-81.86 -1.87,-37.18 -10.9,-76.62 53.6,-73.54 101.78,5.13 203.93,-1.05 305.88,2.22 64.56,2.1 52.79,-40.49 50.98,-76.67 -1.46,-33.09 20.34,-79.53 -47.72,-78.31 -160.52,2.69 -321.26,1.87 -481.78,0 -41.07,-0.41 -52.38,14.62 -51.79,53.66 2.04,109.37 0.64,218.9 0.64,328.5 0,109.54 1.22,219.07 -0.64,328.61 -0.41,38.86 4.31,60.24 52.84,59.42 160.52,-3.09 321.26,-3.9 481.95,-0.23 74.41,1.87 47.49,-48.7 50.4,-82.8 3.27,-37.64 10.08,-75.62 -54.3,-71.95z"/>
   <path class="fil0" d="M7887.23 6995.11c-55.3,4.09 -111.22,4.49 -166.69,2.86 -18.53,-0.41 -11.95,-17.89 -7.4,-29.19 27.32,-66.36 55.06,-132.55 88.97,-214.59 33.09,80.17 59.42,144.73 86.11,209.05 4.77,11.48 12.18,30.81 -0.99,31.86zm14.79 -405.74c-16.83,-40.49 -40.72,-48.3 -75.85,-42.94 -41.08,6.34 -91.25,-23.89 -117.58,39.45 -95.14,230.2 -193.79,458.76 -291.26,687.74 -5.94,13.98 -17.25,28.55 -5.94,42.53 23.42,28.79 169.14,-2.45 177.41,-41.71 22.78,-109.13 90.02,-141 191.75,-123.11 7.39,1.45 15.2,0.17 22.83,0.17 28.14,0 56.7,4.14 84.01,-0.82 62.52,-11.07 97.48,16.26 108.55,74.63 17.25,89.79 75.04,103.6 155.39,98.24 53.42,-3.68 59.01,-14.56 38.45,-61.47 -97.82,-223.39 -194.48,-447.46 -287.76,-672.7z"/>
   <path class="fil0" d="M2171.24 6552.48c-88.8,3.74 -178,0.82 -266.97,0.82 -81.4,0 -163.02,3.09 -244.18,-0.99 -54.48,-2.92 -75.27,9.85 -75.27,69.86 0,66.18 13,100.74 86.99,87.8 24.64,-4.32 50.97,1.63 76.03,-1.46 55.29,-6.76 75.21,10.9 73.35,70.5 -4.48,152.3 1.05,305.01 -2.86,457.31 -1.45,61.7 6.99,92.52 80.58,87.57 60.66,-4.08 98.24,-4.32 92.46,-84.07 -7.98,-113.67 -2.21,-228.57 -1.8,-342.82 0.17,-58.38 -20.17,-133.2 8.39,-170.84 34.14,-44.98 113.9,-16.83 173.09,-15.38 65.55,1.87 52.79,-39.67 50.75,-75.03 -2.04,-34.96 22.37,-86.35 -50.57,-83.27z"/>
   <path class="fil0" d="M5579.07 7165.94c-83.67,4.54 -168.15,-2.86 -251.82,2.45 -61.41,3.9 -83.83,-11.31 -81.39,-77.49 5.35,-142.22 1.69,-284.68 1.69,-426.89 0,-114.9 0,-111.98 -113.26,-111.98 -49.35,0 -59.61,18.47 -58.61,62.69 2.5,106.62 0.87,213.3 0.87,320.21 0,111.8 1.23,223.62 -0.64,335.42 -0.82,39.28 11.71,52.62 52.2,52.03 150.03,-2.27 300.12,-3.91 450.15,0.18 72.77,2.04 50.34,-46.67 51.97,-81.81 1.69,-35.13 14.39,-78.3 -51.15,-74.8z"/>
   <path class="fil0" d="M8854.46 7166.11c-91.48,3.91 -183.35,-1.22 -275.01,1.87 -43.17,1.63 -56.93,-11.31 -56.34,-55.06 2.27,-150.09 0.81,-300.12 0.81,-450.38 0,-114.49 0,-112.22 -115.88,-110.35 -45.28,0.58 -55.12,17.25 -54.31,58.38 2.28,106.68 0.64,213.54 0.64,320.38 0,112.04 1.87,224.08 -0.81,335.89 -1.05,43.18 12.3,56.29 56.11,55.47 147.75,-2.68 295.57,-3.67 443.15,0.24 62.86,1.63 56.11,-35.78 53.42,-73.59 -2.45,-35.54 20.75,-85.94 -51.79,-82.86z"/>
   <path class="fil0" d="M579.84 6943.19l0.41 0c0,-91.65 -0.41,-183.12 0,-274.83 0.41,-126.38 0.64,-125.38 -124.34,-116.3 -30.65,2.05 -46.26,8.63 -46.26,43.12 1.05,228.97 -2.04,458.18 2.1,687.16 1.4,74 65.95,29.19 100.91,37.58 50.1,12.59 71.31,-7.8 68.63,-63.92 -4.95,-103.99 -1.46,-208.58 -1.46,-312.81z"/>
  </g>
 </g>
</svg>
