<?xml version="1.0" encoding="UTF-8"?>
<!DOCTYPE svg PUBLIC "-//W3C//DTD SVG 1.1//EN" "http://www.w3.org/Graphics/SVG/1.1/DTD/svg11.dtd">
<!-- Creator: CorelDRAW -->
<svg xmlns="http://www.w3.org/2000/svg" xml:space="preserve" width="74.7519mm" height="74.7309mm" version="1.1" style="shape-rendering:geometricPrecision; text-rendering:geometricPrecision; image-rendering:optimizeQuality; fill-rule:evenodd; clip-rule:evenodd"
viewBox="0 0 7460.95 7458.85"
 xmlns:xlink="http://www.w3.org/1999/xlink"
 xmlns:xodm="http://www.corel.com/coreldraw/odm/2003">
 <defs>
  <style type="text/css">
   <![CDATA[
    .fil0 {fill:#B4B4B5;fill-rule:nonzero}
    .fil1 {fill:#F9F9F9;fill-rule:nonzero}
   ]]>
  </style>
 </defs>
 <g id="Layer_x0020_1">
  <metadata id="CorelCorpID_0Corel-Layer"/>
  <g id="_2125224568208">
   <path class="fil0" d="M2730.74 0l259.21 0c21.27,14.13 46.78,12.17 70.34,17.74 166.96,80.86 287.15,206.62 352.78,380.49 57.06,151.18 64.52,307.39 48.98,468.01 -27.4,282.44 -82.73,560.48 -117.12,841.59 -39.02,318.46 -29.91,632.22 109.11,931.31 69.24,149.23 156.21,286.59 260.85,412.58 50.16,60.37 62.64,60.37 118.85,4.16 416.2,-415.89 831.85,-832.16 1247.82,-1248.06 118.76,-119.08 236.52,-239.02 357.25,-356.15 35.95,-34.92 35.71,-58.72 -0.32,-93.33 -105.5,-101.9 -207.39,-206.85 -311.25,-310.15 -55.1,-54.88 -57.07,-54.56 -114.37,2.74 -317.6,317.37 -634.74,635.3 -952.9,952.35 -27.4,27.16 -52.91,77.56 -97.73,58.17 -40.18,-17.43 -34.93,-70.88 -38.23,-110.21 -13.89,-169.49 23.78,-334.8 49.54,-500.43 30.77,-199.39 71.74,-396.81 98.04,-597.06 33.76,-258.9 45.68,-516.68 -49.3,-767.64 -10.2,-26.85 -18.84,-56.44 13.58,-77.24 534.5,-3.3 1068.68,-0.79 1602.87,-1.42 574.84,-0.23 1149.78,0 1724.7,0.32 26.3,0 52.91,-5.03 78.34,4.94 11.39,25.28 5.81,52.12 5.81,78.11 0.32,2427.27 0.32,4854.3 0,7281.57 0,26.3 4.48,52.91 -4.39,78.66 -27.71,12.72 -57.07,6.04 -85.33,6.04 -2419.81,0.55 -4839.54,0.55 -7259.36,0.32 -107.15,0 -96.94,14.67 -96.94,-94.44 -0.23,-1361.96 -0.23,-2723.6 -0.23,-4085.25 -0.87,-8.55 1.33,-16.64 6.04,-24.09 26.93,-19.07 55.42,-10.2 83.37,-4.16 229.61,50.39 458.04,106.92 687.65,158.41 58.41,13.04 88.08,47.89 101.35,106.37 125.99,552.49 250.01,1105.51 374.36,1658.21 23.56,105.51 50.4,210.23 71.2,316.28 9.73,49.54 28.81,47.65 60.13,16.33 169.17,-170.34 339.2,-340.06 508.99,-509.54 39.33,-39.1 31.56,-80.86 19.39,-126.54 -101.66,-385.51 -201.67,-771.26 -298.85,-1157.86 -11.38,-44.9 -49.84,-99.7 -15.46,-135.96 38.7,-40.74 95.22,-1.42 142.01,11.3 377.5,103.3 753.27,211.87 1129.04,320.99 60.14,17.43 103.3,10.52 148.13,-35.4 166.18,-170.04 335.67,-336.77 503.18,-505.15 54.33,-54.56 53.23,-59.82 -20.48,-76.69 -587.1,-134.62 -1174.43,-269.18 -1761.76,-402.93 -72.61,-16.65 -144.05,-37.37 -217.44,-49.62 -68.69,-11.07 -102.13,-50.94 -116.57,-117.9 -99.38,-465.03 -206.85,-928.02 -309.6,-1392.42 -33.21,-149.85 -65.62,-300.18 -100.56,-449.72 -14.37,-63.42 -20.18,-65.39 -63.35,-22.45 -167.05,165.63 -332.61,332.83 -499.57,498.47 -36.58,36.03 -36.35,71.98 -23.56,117.68 98.59,351.44 196.56,702.88 296.02,1054.32 10.2,36.82 21.58,73.63 28.26,111.55 10.52,60.13 -5.81,76.69 -64.84,63.98 -49.31,-10.76 -97.18,-26.3 -145.62,-40.66 -147.11,-43.81 -294.69,-86.43 -442.03,-130.15 -25.2,-7.54 -50.94,-14.13 -71.98,-31.87 -5.58,-7.23 -8,-15.23 -7.46,-24.41 0,-798.88 0,-1597.54 0.23,-2396.19 0,-26.06 -6.36,-52.91 6.68,-77.87l1843.78 0c5.26,5.57 8.01,11.93 8.87,19.39 -11.93,62.56 -52.36,112.72 -73.95,171.12 -87.76,235.1 -86.65,469.42 4.4,703.12 73.39,188.32 189.42,349.24 320.12,501.29 35.16,40.98 60.67,41.21 98.36,2.2 117.12,-120.73 235.65,-239.81 356.7,-356.38 43.72,-42.16 39.01,-74.26 2.43,-115.48 -71.43,-81.17 -138.71,-165.39 -183.84,-265.32 -76.14,-169.8 -50.16,-344.21 77,-480.49 58.64,-62.88 116.26,-128.73 199.39,-162.57 22.14,-9.1 47.89,-4.39 69.24,-16.88z"/>
   <path class="fil0" d="M7455.2 7450.58c-5.26,-1.18 -10.52,-2.28 -15.77,-3.6 0.31,-28.81 1.41,-57.62 1.41,-86.12 0,-2422.02 0,-4844.02 0,-7266.03 0,-26.3 -1.65,-52.91 -2.82,-79.21 -4.08,-6.12 -2.98,-11.38 2.82,-15.54 35.95,7.77 12.72,35.48 12.72,50.39 2.2,268.94 1.65,538.11 1.65,806.97l0 6593.13z"/>
   <path class="fil0" d="M7440.84 0c-0.86,5.26 -1.65,10.52 -2.82,15.78 -1026.85,-0.55 -2053.93,-0.79 -3081.09,-1.34 -88.86,0 -177.49,-0.31 -266.35,0.24 -23,0.31 -48.75,-6.91 -65.93,17.19 -10.83,0 -16.64,-6.12 -19.39,-15.78 0.32,-6.36 2.52,-11.93 7.46,-16.09l3428.14 0z"/>
   <path class="fil1" d="M4012.63 0c-0.79,5.02 -1.66,9.97 -2.21,14.99 -24.88,24.65 -57.3,22.14 -87.76,22.14 -255.9,1.1 -511.81,0 -767.63,0.87 -36.27,0.23 -70.66,-12.8 -106.92,-10.6 -21.59,-4.4 -43.18,-8.79 -58.17,-27.4l1022.69 0z"/>
   <path class="fil1" d="M2730.74 0c-19.39,9.18 -38.78,18.3 -58.17,27.4 -248.14,21.35 -496.58,5.57 -744.64,9.18 -26.06,0.55 -52.91,-0.31 -73.4,-21.35 -0.86,-5.26 -1.73,-10.21 -2.52,-15.23l878.72 0z"/>
   <path class="fil1" d="M23.31 2494.86c231.49,66.72 462.68,133.53 707.2,203.86 -27.95,-102.51 -53.15,-197.5 -79.45,-291.93 -90.59,-324.28 -180.85,-648.8 -272.47,-972.84 -6.99,-24.33 -14.44,-43.18 7.15,-64.77 198.6,-197.97 396.34,-396.81 604.29,-605.38 34.85,154.26 66.72,295.48 98.28,436.7 115.79,517.85 231.57,1035.48 346.18,1553.57 8,36.81 26.85,49.06 62.01,57.07 610.64,137.92 1220.98,277.73 1831.3,417.29 92.55,21.04 184.79,43.81 276.95,65.62 3.6,27.17 -17.43,35.48 -29.59,47.65 -189.74,190.84 -380.25,380.25 -569.12,571.32 -30.69,31.32 -56.44,37.13 -100.24,24.65 -412.91,-119.63 -826.91,-234.24 -1239.81,-353.87 -61.15,-17.75 -68.69,-8.63 -53.15,50.39 111.31,425.31 219.88,851.24 330.95,1276.63 8.01,29.9 12.73,52.28 -12.48,77.24 -194.44,192.47 -387.39,386.29 -581.29,579.32 -4.39,4.39 -11.62,5.81 -23.55,11.62 -55.89,-247.04 -111.32,-490.7 -166.1,-734.44 -101.43,-449.96 -202.76,-899.99 -303.79,-1349.95 -7.23,-33.29 -21.12,-54.87 -57.62,-62.88 -258.66,-58.48 -517.07,-118.29 -775.42,-177.8 -14.36,-22.13 -7.46,-46.78 -7.46,-70.1 -0.55,-206.3 -0.55,-412.59 0,-618.65 0,-23.56 -6.67,-48.12 7.23,-70.34z"/>
   <path class="fil1" d="M3048.19 27.56c16.88,-19.71 39.63,-12.8 60.36,-12.8 300.49,-0.24 601.22,0 901.72,0.31 4.94,5.5 9.65,11.31 14.36,16.88 133.22,330.4 94.75,667.4 39.02,1005.26 -40.98,250.57 -82.19,500.98 -119,752.09 -12.8,87.84 -6.44,176.94 16.32,265.33 32.35,3.05 43.5,-26.07 60.6,-42.94 335.11,-333.94 669.91,-667.95 1002.75,-1004.16 36.03,-35.95 54.01,-42.63 92.79,-1.65 117.12,123.55 239.02,243.19 361.09,361.96 28.58,27.95 29.91,42.07 0.55,71.43 -557.74,555.77 -1114.29,1112.96 -1670.14,1671.01 -29.59,29.59 -43.18,27.71 -70.34,-2.52 -320.67,-357.8 -467.15,-773.21 -426.41,-1254.18 24.88,-294.14 87.21,-582.7 119.63,-875.43 16.56,-152.52 34.61,-305.67 -0.32,-458.28 -50.7,-224.03 -178.35,-388.26 -382.99,-492.34z"/>
   <path class="fil1" d="M1854.53 15.15c252.53,-0.32 505.15,-0.55 757.67,-0.55 20.49,0 43.49,-6.68 60.36,13.03 -149.77,87.76 -264.69,202.92 -304.58,379.39 -24.09,107.39 8,202.92 58.41,294.93 49.84,90.83 115.47,170.26 184.71,246.41 26.3,28.81 23.78,43.49 -1.97,69 -141.77,139.8 -282.2,280.79 -422.55,422.01 -18.3,18.6 -30.78,32.42 -55.97,4.15 -189.42,-213.2 -354.19,-439.75 -409.85,-728 -48.43,-251.19 -1.96,-484.42 133.76,-700.36z"/>
   <path class="fil1" d="M1965.22 6039.72c20.25,-18.3 32.73,-28.27 43.8,-39.56 86.66,-86.43 174.19,-171.99 259.21,-260.07 29.59,-30.77 48.2,-42.07 84.47,-3.84 80.85,85.25 83.36,82.74 1.33,165.01 -73.08,73.08 -144.82,147.03 -219.56,218.54 -28.26,27.08 -41.84,45.13 -3.06,76.14 47.65,38.47 88.08,113.27 135.41,116.26 39.88,2.82 85.57,-73.95 128.28,-116.03 71.43,-71.11 143.42,-141.53 213.2,-214.61 23,-24.1 35.71,-25.99 61.46,-1.97 104.4,97.49 105.5,96.4 6.36,195.86 -132.35,132.35 -266.11,263.6 -396.26,398.23 -33.76,34.85 -51.26,31.79 -83.6,-1.18 -203.86,-206.85 -409.06,-412.28 -615.9,-616.14 -32.97,-32.66 -35.17,-50.63 -0.55,-84.46 151.19,-147.35 300.18,-297.12 448.07,-448.07 28.5,-29.36 42.86,-28.81 71.66,-0.24 95.3,94.99 96.72,93.57 -0.55,190.76 -76.37,76.14 -150.08,155.66 -230.08,227.95 -42.39,38.24 -36.81,59.82 2.21,93.57 34.29,29.36 61.46,67.04 94.12,103.86z"/>
   <path class="fil1" d="M5809.94 1645.66c38.55,41.52 80.62,78.1 110.76,122.69 19.16,27.95 -21.82,42.08 -37.91,58.72 -93.57,96.64 -188.56,191.62 -284.64,285.19 -23.56,23.01 -27.48,35.72 -2.82,62.65 113.58,124.02 112.49,124.89 229.84,7.46 64.53,-64.53 130.46,-127.64 192.79,-194.13 26.3,-28.26 40.98,-24.41 66.72,0.79 90.51,89.17 91.68,88.07 1.65,178.11 -69.47,69.47 -137.92,140.12 -209.04,208.26 -28.81,27.08 -42.39,45.92 -3.92,77.47 46,38 83.92,110.53 130.7,115.79 48.75,5.26 86.43,-71.98 129.05,-112.96 72.61,-69.79 143.73,-141.22 213.51,-213.83 23.86,-24.64 38.24,-32.34 67.59,-4.39 101.35,96.64 102.75,95.22 2.52,195.23 -133.76,134.31 -268.63,267.52 -401.29,402.93 -27.39,27.95 -41.84,32.11 -71.74,1.66 -209.04,-211.88 -419.82,-422.01 -630.82,-631.68 -24.65,-24.33 -30.77,-38.47 -2.21,-66.41 154.26,-151.27 306,-304.97 458.83,-457.49 9.97,-9.97 21.03,-18.84 40.42,-36.03z"/>
   <path class="fil1" d="M5123.78 3722.66c-17.43,-16.33 -31.32,-29.12 -44.9,-42.71 -158.96,-160.05 -319.25,-318.7 -475.46,-481.51 -39.33,-41.29 -61.46,-37.68 -93.34,2.44 -22.37,28.03 -50.39,51.57 -75.83,77 -90.59,90.59 -124.1,85.57 -200.25,-23.78 -17.2,-24.64 -2.52,-33.84 10.28,-46.55 173.01,-173.32 346.65,-346.18 518.96,-520.06 21.82,-22.14 34.3,-21.35 57.85,-0.31 107.16,96.71 108.01,95.85 5.81,198.05 -113.51,113.51 -113.51,113.51 2.52,229.53 139.01,139.33 277.49,279.46 418.16,417.06 28.5,27.95 33.21,44.36 0.79,71.2 -33.21,27.39 -61.47,60.59 -92.16,91.06 -9.97,9.42 -20.48,18.06 -32.42,28.58z"/>
   <path class="fil1" d="M2737.56 4707.9c177.57,178.9 351.21,351.44 521.47,527.04 36.26,37.05 56.75,43.17 94.98,2.2 83.37,-89.18 173.09,-172.85 258.97,-260.06 22.69,-23.24 36.27,-34.07 66.41,-5.26 101.98,97.72 103.3,96.4 3.92,196.09 -120.49,120.42 -242.09,239.81 -360.86,362.2 -29.59,30.45 -45.68,34.61 -78.1,1.65 -207.16,-210.46 -415.97,-418.95 -625.88,-626.42 -29.35,-29.04 -29.59,-45.68 0.55,-73.08 40.74,-37.13 76.46,-79.44 118.53,-124.34z"/>
   <path class="fil1" d="M4421.29 4435.98c-43.73,40.66 -91.06,88.31 -142.63,130.7 -14.68,12.17 -28.19,-12.17 -39.26,-23.24 -210.77,-210.46 -420.68,-421.54 -631.99,-630.9 -26.61,-26.3 -27.4,-40.43 -1.1,-68.06 119.94,-126.07 118.76,-127.17 241.46,-4.47 179.77,180 359.76,359.99 539.45,540.31 12.8,12.72 31.87,21.9 34.06,55.65z"/>
   <path class="fil1" d="M23.31 2494.86c0,253.16 0.23,506 0.23,759.08l-6.12 1.97c0,0 -6.36,-0.31 -6.36,-0.31 0.31,-254.73 0.31,-509.23 0.31,-763.8 4.4,-1.1 8.56,0 11.94,3.06z"/>
  </g>
 </g>
</svg>
