<?xml version="1.0" encoding="UTF-8"?>
<!DOCTYPE svg PUBLIC "-//W3C//DTD SVG 1.1//EN" "http://www.w3.org/Graphics/SVG/1.1/DTD/svg11.dtd">
<!-- Creator: CorelDRAW -->
<svg xmlns="http://www.w3.org/2000/svg" xml:space="preserve" width="195.722mm" height="75.8682mm" version="1.1" style="shape-rendering:geometricPrecision; text-rendering:geometricPrecision; image-rendering:optimizeQuality; fill-rule:evenodd; clip-rule:evenodd"
viewBox="0 0 19557.97 7581.3"
 xmlns:xlink="http://www.w3.org/1999/xlink"
 xmlns:xodm="http://www.corel.com/coreldraw/odm/2003">
 <defs>
  <style type="text/css">
   <![CDATA[
    .fil0 {fill:#C1C4D0}
    .fil1 {fill:#C1C4D0;fill-opacity:0.949020}
   ]]>
  </style>
 </defs>
 <g id="Layer_x0020_1">
  <metadata id="CorelCorpID_0Corel-Layer"/>
  <g id="_2124870743968">
   <g>
    <path class="fil0" d="M560.46 4623.58l-402.61 86.31c31.5,194.56 180.33,558.28 276.98,695.5 428.11,-6.92 2120.29,-349.59 2681.74,-438.36 645.83,-183.71 52.06,-426.35 844.64,-576.5 345.08,-65.34 3541.66,-690.25 3579.53,-797.59l-15.1 -351.35 -6965.18 1381.99z"/>
    <path class="fil0" d="M350.3 3598.39l-350.3 94.97 75.59 734.93 396.15 -73.2c434.79,-126.98 1225.23,-255.52 1767.67,-367.44 277.02,-57.2 654.34,-109.68 910.37,-190.38 508.94,-160.39 93.33,-364.97 575.6,-521.12 460.8,-149.14 1293.27,-260.56 1807.51,-360.54 595.64,-115.84 1252.38,-205.73 1851.77,-339.86l-109.62 -365.29c-1208.83,102.96 -5777.63,1112.59 -6924.75,1387.93z"/>
    <path class="fil0" d="M215.1 2604.5c-127.17,23.5 -107.6,12.99 -165.38,354.69 -23.63,139.8 -43.44,284.75 -44.9,436.27 150.06,-21.16 232.04,-77.67 380.99,-71.39 139.88,-129.46 2041.58,-521.78 2459.99,-610.35 690.55,-146.14 484.47,-195.63 617.6,-421.58 147.23,-249.9 3026.3,-650.76 3455.05,-690.53 -13.52,-131.98 -153.03,-227.1 -206.27,-330.79 -857.97,-8.87 -5890.11,1002.51 -6497.09,1333.67z"/>
    <path class="fil0" d="M3053.86 5289.75l-2446.82 397.79c62.29,148.31 233.58,315.32 336.49,439.13 207.91,250.08 211.05,200.94 604.74,156.85 517.94,-78.93 1179.45,-126.87 1670.25,-252.14 508.03,-129.64 95.81,-304.47 517.04,-455.05l2457.54 -524.82c255.64,-60.2 519,-123.23 779.6,-191.93 418.07,-110.18 401.49,-27.86 497.11,-516.31l-2174.84 501.53c-720.85,152.2 -1540.1,272.47 -2241.12,444.95z"/>
    <path class="fil0" d="M968.24 1364.77c-321.82,168.81 -235.62,-18.37 -449.69,335.83 -97.46,161.27 -207.6,377.76 -277.1,574.99l71.39 16.3c292.85,-146.76 1668.33,-473.99 2133.8,-576.98 212.55,-47.03 576.63,-100.67 763.98,-176.13 361.82,-145.73 76.28,-316.21 479.17,-429.58 542.55,-152.59 2093.83,-297.89 2407.97,-384.95 -484.24,-352.61 -526.2,-252.75 -1194.07,-156.45 -904.07,130.36 -1771.43,282.49 -2653.96,480.26 -428.47,96.04 -869.26,236.92 -1281.49,316.71z"/>
    <path class="fil0" d="M1454.78 6560.03c421.18,276.58 786.23,561.52 1309.91,491.63 1267.05,-169.12 539.84,-276.69 965.19,-446.33l2770.76 -583.66c258.76,-62.89 394.41,-272.64 490.31,-473.84 -164.53,-13.65 -1096.73,251.87 -1346.41,305.8 -449.17,97.07 -896.22,186.16 -1355.2,275.09 -929.36,180.03 -1874.06,321.56 -2834.56,431.3z"/>
    <path class="fil0" d="M3007.02 74.11c-665.63,115.13 -1103.39,264.88 -1614.15,650.06 -168.61,127.12 -275.71,257.64 -416.77,365.47l75.36 32.48c7.24,-5.05 18.66,-20.6 22.7,-13.78l192.67 -71.61c79.33,-20.74 142.83,-37.6 224.06,-58.81 146.25,-38.25 303.2,-75.57 453.86,-109.79 315.33,-71.65 631.56,-142.1 957.82,-204.36 128,-24.43 343.34,-58.77 442.71,-120.44 198.09,-122.86 -4.71,-190.58 279.37,-284.96 248.71,-82.63 726.61,-119.82 1007.17,-161.83 -604.43,-128.5 -1025.32,-107.92 -1624.79,-22.42z"/>
    <path class="fil0" d="M3186.86 7226.88c327.69,179.97 1761.05,-28.45 2314.6,-320.97l127.03 -86.99c-381.46,46.01 -828.21,154.33 -1217.31,220.63 -406.25,69.25 -834.48,128.9 -1224.32,187.32z"/>
    <polygon class="fil0" points="7775.62,6745.75 19199.11,6745.75 19199.11,6819.34 7775.62,6819.34 "/>
    <g>
     <path class="fil0" d="M8330.29 6460.87l-120.85 0 -47.24 -164.6 -222.24 0 -45.68 164.6 -118.65 0 214.86 -727.43 118.96 0 220.83 727.43zm-204.5 -287.53l0 0 -76.59 -270.07 -75.02 270.07 151.61 0zm526.41 287.53l0 0 0 -79.08c-14.75,28.62 -34.06,50.97 -57.91,67.05 -23.86,16.09 -48.81,24.22 -74.87,24.22 -26.37,0 -49.91,-7.46 -70.79,-22.35 -20.87,-14.91 -36.41,-36.07 -46.62,-63.67 -10.2,-27.43 -15.38,-67.39 -15.38,-119.71l0 -333.74 106.41 0 0 242.12c0,69.26 1.57,113.12 4.86,131.91 3.15,18.63 10.21,33.19 21.19,43.36 10.98,10.31 24.32,15.41 39.86,15.41 17.74,0 34.07,-6.79 49.13,-20.16 14.91,-13.38 24.79,-30.65 29.51,-51.65 4.71,-20.99 7.05,-67.22 7.05,-138.67l0 -222.33 106.41 0 0 527.29 -98.88 0zm391.74 -527.29l0 0 0 110.73 -72.51 0 0 212.85c0,46.23 1.1,72.82 3.3,80.1 4.24,13.38 13.02,19.98 26.2,19.98 9.73,0 23.86,-4.41 42.23,-13.37l9.25 108.36c-24.48,13.89 -52.26,20.83 -83.33,20.83 -27,0 -48.65,-6.94 -64.98,-20.83 -16.17,-14.06 -27.15,-34.03 -32.65,-60.29 -4.24,-19.12 -6.44,-58.24 -6.44,-117.33l0 -230.29 -48.97 0 0 -110.73 48.97 0 0 -104.65 106.41 -81.28 0 185.93 72.51 0zm179.86 -200.14l0 0 0 266.86c16.81,-26.41 35.47,-46.23 55.73,-59.27 20.41,-13.04 42.53,-19.64 66.39,-19.64 31.86,0 58.54,9.13 79.88,27.25 21.49,18.3 36.72,44.04 45.99,77.55 6.75,24.56 10.04,66.21 10.04,125.14l0 309.53 -106.41 0 0 -278.72c0,-64.68 -3.77,-104.98 -11.46,-121.23 -10.67,-21.85 -28.72,-32.87 -54.3,-32.87 -27.15,0 -48.18,11.85 -63.24,35.57 -15.07,23.7 -22.61,67.89 -22.61,132.91l0 264.33 -106.4 0 0 -727.43 106.4 0zm339.95 456.33l0 0c0,-51.64 9.58,-98.72 28.57,-141.22 19,-42.33 43.79,-74.16 74.41,-95.33 30.76,-21.17 65.13,-31.83 103.57,-31.83 64.34,0 114.88,27.25 151.61,81.77 36.87,54.54 55.24,118.19 55.24,191.01 0,54.35 -9.57,103.46 -28.72,147.15 -19.15,43.69 -44.26,76.69 -75.5,98.71 -31.08,22.02 -65.13,33.03 -102.17,33.03 -59.48,0 -108.92,-24.56 -148.15,-73.49 -39.24,-49.11 -58.87,-119.04 -58.87,-209.81zm108.31 7.44l0 0c0,53.35 9.72,93.65 29.02,121.08 19.48,27.26 42.86,40.98 70.32,40.98 26.84,0 49.75,-13.72 68.9,-41.33 18.99,-27.43 28.56,-68.06 28.56,-121.73 0,-52.32 -9.73,-92.29 -29.04,-119.73 -19.46,-27.59 -42.69,-41.3 -69.83,-41.3 -26.84,0 -49.75,13.71 -69.05,41.3 -19.32,27.44 -28.88,67.74 -28.88,120.73zm490.6 263.66l0 0 -106.41 0 0 -527.29 98.89 0 0 74.84c16.95,-35.05 32.02,-58.26 45.36,-69.76 13.34,-11.52 28.72,-17.27 46.15,-17.27 24.32,0 47.4,8.8 69.52,26.23l-33.12 121.58c-17.58,-15.23 -34.06,-22.85 -49.75,-22.85 -14.75,0 -27.78,5.93 -39.08,17.61 -11.14,11.85 -19.3,33.03 -24.17,63.84 -4.86,30.81 -7.37,87.54 -7.37,170.01l0 163.06zm198.55 -598.4l0 0 0 -129.03 106.41 0 0 129.03 -106.41 0zm0 598.4l0 0 0 -527.29 106.41 0 0 527.29 -106.41 0zm172.32 0l0 0 0 -109.06 150.37 -226.39c24.47,-36.74 42.53,-63.16 53.98,-79.07 -12.24,1.02 -28.4,1.7 -48.65,2.03l-140.63 1.01 0 -115.81 329.6 0 0 98.88 -153.5 231.14 -53.21 77.89c29.52,-2.39 47.73,-3.56 54.78,-3.56l164.17 0 0 122.93 -356.91 0zm661.24 -167.64l0 0 105.46 23.37c-14.12,53 -36.09,92.28 -65.91,118.01 -29.82,25.57 -66.07,38.44 -108.76,38.44 -59.34,0 -105,-21.33 -137.34,-64.17 -38.13,-49.61 -57.13,-119.22 -57.13,-208.62 0,-88.22 19.15,-158.82 57.44,-211.84 32.5,-44.7 74.56,-67.04 126.04,-67.04 57.28,0 102.18,22.84 134.66,68.57 37.51,52.33 56.19,129.54 56.19,231.47l-0.47 15.91 -265.56 0c0.62,41.67 9.25,74.01 26.2,96.86 16.8,22.86 37.05,34.21 60.75,34.21 34.22,0 56.97,-25.06 68.43,-75.18zm5.65 -141.23l0 0c-0.94,-41.15 -9.09,-72.14 -24.48,-92.78 -15.38,-20.83 -33.59,-31.17 -54.93,-31.17 -22.44,0 -41.27,10.85 -56.66,32.35 -15.7,21.85 -23.38,52.5 -23.07,91.6l159.14 0zm558.43 308.87l0 0 -98.88 0 0 -77.39c-16.17,29.81 -35.31,52.15 -57.45,67.06 -21.96,15.06 -44.58,22.52 -67.8,22.52 -44.73,0 -83.65,-24.04 -116.93,-72.32 -33.11,-48.24 -49.74,-117 -49.74,-206.57 0,-90.08 16.16,-158.14 48.65,-204.05 32.34,-45.89 72.36,-68.73 119.75,-68.73 22.28,0 43.16,6.1 62.62,18.29 19.3,12.35 37.19,30.65 53.36,55.2l0 -261.44 106.41 0 0 727.43zm-282.51 -274.83l0 0c0,47.77 3.78,83.32 11.3,106.84 7.37,23.37 18.06,40.98 32.02,52.84 13.97,11.68 29.66,17.61 47.09,17.61 23.23,0 43.32,-13.54 60.43,-40.8 17.11,-27.26 25.74,-68.24 25.74,-123.1 0,-60.8 -8.32,-104.48 -24.95,-131.24 -16.64,-26.74 -37.83,-40.13 -63.57,-40.13 -24.47,0 -45.2,13.05 -62.3,39.28 -17.11,26.25 -25.74,65.87 -25.74,118.7zm602.69 274.83l0 0 0 -727.43 409.63 0 0 122.93 -298.51 0 0 160.51 277.79 0 0 122.93 -277.79 0 0 198.13 308.88 0 0 122.93 -419.99 0zm863.37 -370.83l0 0 -104.53 24.37c-7.68,-55.54 -31.86,-83.3 -72.67,-83.3 -26.2,0 -47.4,11.85 -63.4,35.73 -16.01,23.87 -24.01,64.17 -24.01,120.88 0,62.65 8,106.85 24.01,132.75 15.85,25.92 37.2,38.79 63.87,38.79 19.94,0 36.42,-7.46 49.28,-22.18 12.88,-14.73 22.13,-40.98 27.62,-78.41l104.53 23.37c-21.5,127.34 -83.18,191.01 -185.2,191.01 -65.14,0 -113.48,-26.93 -145.02,-80.6 -31.55,-53.67 -47.4,-118.2 -47.4,-193.71 0,-90.43 17.89,-159.34 53.67,-206.59 35.79,-47.25 82.55,-70.77 140.63,-70.77 46.94,0 85.23,13.53 114.89,40.47 29.51,26.91 50.85,69.58 63.72,128.18zm54.61 99.73l0 0c0,-51.64 9.58,-98.72 28.57,-141.22 19,-42.33 43.79,-74.16 74.41,-95.33 30.76,-21.17 65.13,-31.83 103.57,-31.83 64.35,0 114.9,27.25 151.62,81.77 36.88,54.54 55.25,118.19 55.25,191.01 0,54.35 -9.58,103.46 -28.73,147.15 -19.15,43.69 -44.25,76.69 -75.5,98.71 -31.08,22.02 -65.13,33.03 -102.17,33.03 -59.49,0 -108.93,-24.56 -148.16,-73.49 -39.23,-49.11 -58.87,-119.04 -58.87,-209.81zm108.31 7.44l0 0c0,53.35 9.72,93.65 29.03,121.08 19.47,27.26 42.85,40.98 70.32,40.98 26.84,0 49.75,-13.72 68.9,-41.33 18.99,-27.43 28.56,-68.06 28.56,-121.73 0,-52.32 -9.73,-92.29 -29.03,-119.73 -19.47,-27.59 -42.7,-41.3 -69.85,-41.3 -26.83,0 -49.75,13.71 -69.05,41.3 -19.32,27.44 -28.88,67.74 -28.88,120.73zm752.41 263.66l0 0 -106.41 0 0 -269.4c0,-53.85 -2.05,-89.92 -5.97,-107.69 -3.93,-17.95 -11.45,-31.67 -22.28,-41.33 -10.83,-9.63 -23.23,-14.39 -37.04,-14.39 -17.74,0 -33.75,6.28 -48.18,18.63 -14.44,12.37 -24.48,29.65 -30.29,51.47 -5.81,21.85 -8.79,62.99 -8.79,123.62l0 239.1 -106.41 0 0 -527.29 98.89 0 0 77.04c17.42,-29.65 37.19,-51.99 59.01,-66.89 21.97,-14.91 46.15,-22.34 72.83,-22.34 30.92,0 57.13,8.63 78.31,26.06 21.35,17.45 36.1,39.8 44.11,67.06 8.16,27.26 12.24,66.89 12.24,118.52l0 327.83zm82.86 -271.1l0 0c0,-51.64 9.58,-98.72 28.57,-141.22 19,-42.33 43.79,-74.16 74.41,-95.33 30.76,-21.17 65.13,-31.83 103.57,-31.83 64.35,0 114.89,27.25 151.62,81.77 36.87,54.54 55.25,118.19 55.25,191.01 0,54.35 -9.58,103.46 -28.73,147.15 -19.15,43.69 -44.26,76.69 -75.5,98.71 -31.08,22.02 -65.13,33.03 -102.18,33.03 -59.48,0 -108.92,-24.56 -148.15,-73.49 -39.24,-49.11 -58.87,-119.04 -58.87,-209.81zm108.31 7.44l0 0c0,53.35 9.72,93.65 29.02,121.08 19.48,27.26 42.86,40.98 70.32,40.98 26.85,0 49.76,-13.72 68.91,-41.33 18.99,-27.43 28.56,-68.06 28.56,-121.73 0,-52.32 -9.73,-92.29 -29.04,-119.73 -19.46,-27.59 -42.69,-41.3 -69.84,-41.3 -26.84,0 -49.75,13.71 -69.05,41.3 -19.32,27.44 -28.88,67.74 -28.88,120.73zm380.44 -263.63l0 0 98.88 0 0 71.95c17.42,-28.1 36.56,-49.27 57.44,-63.15 20.87,-14.05 43.48,-20.98 67.64,-20.98 25.74,0 48.04,6.93 66.87,20.82 18.83,13.87 34.36,34.88 46.3,62.99 17.74,-28.11 36.88,-49.12 57.13,-62.99 20.41,-13.89 42.06,-20.82 65.13,-20.82 27.32,0 50.85,7.1 70.63,21.15 19.78,14.06 34.68,34.21 45.05,60.29 10.2,26.25 15.38,66.37 15.38,120.72l0 337.31 -106.41 0 0 -301.57c0,-52.67 -4.4,-87.73 -13.02,-105.15 -8.63,-17.45 -23.07,-26.09 -43.48,-26.09 -23.7,0 -42.85,12.2 -57.29,36.57 -14.6,24.22 -21.81,71.97 -21.81,142.75l0 253.5 -106.41 0 0 -289.22c0,-57.24 -2.99,-94.32 -8.79,-110.73 -7.52,-21.85 -23.07,-32.87 -46.3,-32.87 -15.7,0 -30.14,5.6 -43.32,16.94 -13.18,11.17 -22.6,27.78 -28.41,49.45 -5.81,21.66 -8.79,58.41 -8.79,110.06l0 256.36 -106.4 0 0 -527.29zm694.97 -71.12l0 0 0 -129.03 106.4 0 0 129.03 -106.4 0zm0 598.4l0 0 0 -527.29 106.4 0 0 527.29 -106.4 0zm564.08 -370.83l0 0 -104.53 24.37c-7.68,-55.54 -31.87,-83.3 -72.67,-83.3 -26.21,0 -47.4,11.85 -63.4,35.73 -16.02,23.87 -24.02,64.17 -24.02,120.88 0,62.65 8,106.85 24.02,132.75 15.85,25.92 37.19,38.79 63.87,38.79 19.93,0 36.41,-7.46 49.28,-22.18 12.87,-14.73 22.12,-40.98 27.62,-78.41l104.53 23.37c-21.5,127.34 -83.19,191.01 -185.21,191.01 -65.13,0 -113.48,-26.93 -145.02,-80.6 -31.55,-53.67 -47.4,-118.2 -47.4,-193.71 0,-90.43 17.9,-159.34 53.68,-206.59 35.78,-47.25 82.55,-70.77 140.63,-70.77 46.93,0 85.22,13.53 114.89,40.47 29.5,26.91 50.85,69.58 63.72,128.18zm273.09 11.5l0 0c0,-86.53 11.92,-157.81 35.62,-213.85 23.69,-56.04 54.78,-97.87 93.07,-125.3 38.3,-27.43 84.76,-41.15 139.22,-41.15 79.1,0 143.45,32.52 193.2,97.71 49.76,65.19 74.72,157.81 74.72,278.2 0,121.57 -26.37,216.75 -79.1,285.15 -46.15,60.45 -109.08,90.76 -188.35,90.76 -80.04,0 -143.14,-29.97 -189.27,-89.74 -52.73,-68.41 -79.1,-162.38 -79.1,-281.77zm114.89 -4.9l0 0c0,83.47 14.75,146.12 44.11,187.77 29.5,41.83 66.07,62.65 109.54,62.65 43.95,0 80.36,-20.65 109.08,-62.13 28.88,-41.32 43.32,-104.99 43.32,-190.83 0,-84 -13.96,-146.3 -42.06,-186.43 -28.09,-40.31 -64.82,-60.45 -110.34,-60.45 -45.36,0 -82.24,20.32 -110.8,60.79 -28.57,40.63 -42.85,103.46 -42.85,188.63zm504.91 -163.06l0 0 98.88 0 0 77.37c13.49,-27.76 31.23,-49.61 53.35,-65.69 21.98,-15.92 45.84,-23.87 71.26,-23.87 45.69,0 84.92,23.52 117.87,70.6 32.97,47.08 49.44,113.79 49.44,200.31 0,90.77 -16.48,160.19 -49.6,208.44 -33.12,48.27 -72.51,72.32 -118.02,72.32 -21.18,0 -40.8,-5.6 -59.17,-16.61 -18.21,-11.17 -37.36,-31.14 -57.61,-60.27l0 264.83 -106.4 0 0 -727.43zm104.99 254.49l0 0c0,59.6 8.95,103.63 26.84,131.91 17.89,28.27 39.55,42.32 64.98,42.32 24,0 44.41,-13.04 60.9,-39.11 16.48,-26.08 24.79,-68.58 24.79,-127.68 0,-56.21 -8.47,-97.53 -25.42,-124.28 -16.95,-26.75 -37.67,-40.13 -62.15,-40.13 -25.74,0 -47.09,13.03 -64.19,39.11 -17.11,26.07 -25.74,65.35 -25.74,117.85zm602.21 105.15l0 0 105.47 23.37c-14.13,53 -36.09,92.28 -65.91,118.01 -29.82,25.57 -66.07,38.44 -108.76,38.44 -59.34,0 -105.01,-21.33 -137.34,-64.17 -38.14,-49.61 -57.14,-119.22 -57.14,-208.62 0,-88.22 19.16,-158.82 57.45,-211.84 32.5,-44.7 74.56,-67.04 126.03,-67.04 57.29,0 102.19,22.84 134.67,68.57 37.5,52.33 56.19,129.54 56.19,231.47l-0.47 15.91 -265.56 0c0.62,41.67 9.25,74.01 26.2,96.86 16.8,22.86 37.04,34.21 60.74,34.21 34.22,0 56.98,-25.06 68.43,-75.18zm5.66 -141.23l0 0c-0.94,-41.15 -9.09,-72.14 -24.48,-92.78 -15.39,-20.83 -33.59,-31.17 -54.93,-31.17 -22.44,0 -41.28,10.85 -56.66,32.35 -15.7,21.85 -23.39,52.5 -23.07,91.6l159.14 0zm292.87 308.87l0 0 -106.41 0 0 -527.29 98.89 0 0 74.84c16.95,-35.05 32.02,-58.26 45.36,-69.76 13.33,-11.52 28.72,-17.27 46.15,-17.27 24.32,0 47.39,8.8 69.52,26.23l-33.12 121.58c-17.58,-15.23 -34.06,-22.85 -49.75,-22.85 -14.75,0 -27.78,5.93 -39.08,17.61 -11.14,11.85 -19.3,33.03 -24.17,63.84 -4.87,30.81 -7.37,87.54 -7.37,170.01l0 163.06zm278.6 -366.76l0 0 -96.06 -21.33c11.61,-53.85 30.76,-92.46 57.6,-116.01 26.68,-23.53 65.13,-35.37 115.37,-35.37 44.73,0 78.78,6.77 102.33,20.31 23.54,13.55 40.34,32.02 50.53,55.37 10.05,23.37 15.07,65.87 15.07,127.51l-0.94 162.9c0,45.71 1.73,79.74 5.03,102.1 3.3,22.35 9.41,46.06 18.52,71.3l-104.52 0 -13.81 -57.58c-18.06,23.19 -37.51,40.64 -58.24,52.32 -20.71,11.68 -42.69,17.45 -66.07,17.45 -38.92,0 -70.94,-14.23 -95.74,-42.51 -24.96,-28.44 -37.36,-66.03 -37.36,-113.11 0,-29.97 5.04,-55.88 15.23,-78.23 10.21,-22.18 24.49,-39.95 42.85,-53.17 18.53,-13.2 48.03,-25.05 88.68,-35.22 49.12,-12.35 83.5,-23.7 102.81,-34.35 0,-29.13 -1.88,-48.27 -5.81,-57.41 -3.77,-8.98 -10.83,-16.44 -21.02,-22.35 -10.21,-5.76 -24.65,-8.64 -43.33,-8.64 -19,0 -33.9,4.59 -44.74,13.9 -10.82,9.3 -19.62,26.58 -26.35,52.15zm141.25 112.77l0 0c-13.5,5.92 -34.68,13.04 -63.25,20.98 -32.96,9.31 -54.46,19.65 -64.66,30.82 -10.19,11.35 -15.23,26.09 -15.23,44.04 0,20.15 5.66,37.24 16.8,51.13 11.3,13.71 25.43,20.66 42.38,20.66 15.07,0 29.98,-5.59 44.73,-16.78 14.76,-11.16 24.95,-24.38 30.77,-39.61 5.65,-15.24 8.47,-43.02 8.47,-83.32l0 -27.93zm391.74 -273.29l0 0 0 110.73 -72.51 0 0 212.85c0,46.23 1.1,72.82 3.3,80.1 4.24,13.38 13.02,19.98 26.2,19.98 9.74,0 23.86,-4.41 42.23,-13.37l9.25 108.36c-24.48,13.89 -52.26,20.83 -83.33,20.83 -27,0 -48.65,-6.94 -64.98,-20.83 -16.17,-14.06 -27.15,-34.03 -32.65,-60.29 -4.24,-19.12 -6.44,-58.24 -6.44,-117.33l0 -230.29 -48.96 0 0 -110.73 48.96 0 0 -104.65 106.41 -81.28 0 185.93 72.51 0zm48.03 256.18l0 0c0,-51.64 9.57,-98.72 28.56,-141.22 19.01,-42.33 43.8,-74.16 74.41,-95.33 30.76,-21.17 65.13,-31.83 103.58,-31.83 64.35,0 114.89,27.25 151.61,81.77 36.88,54.54 55.25,118.19 55.25,191.01 0,54.35 -9.57,103.46 -28.72,147.15 -19.15,43.69 -44.26,76.69 -75.5,98.71 -31.08,22.02 -65.13,33.03 -102.18,33.03 -59.49,0 -108.92,-24.56 -148.16,-73.49 -39.23,-49.11 -58.86,-119.04 -58.86,-209.81zm108.3 7.44l0 0c0,53.35 9.72,93.65 29.03,121.08 19.47,27.26 42.86,40.98 70.32,40.98 26.84,0 49.75,-13.72 68.9,-41.33 18.99,-27.43 28.57,-68.06 28.57,-121.73 0,-52.32 -9.73,-92.29 -29.04,-119.73 -19.46,-27.59 -42.69,-41.3 -69.85,-41.3 -26.83,0 -49.74,13.71 -69.05,41.3 -19.31,27.44 -28.88,67.74 -28.88,120.73zm490.62 263.66l0 0 -106.41 0 0 -527.29 98.88 0 0 74.84c16.96,-35.05 32.03,-58.26 45.36,-69.76 13.34,-11.52 28.73,-17.27 46.15,-17.27 24.32,0 47.4,8.8 69.53,26.23l-33.12 121.58c-17.58,-15.23 -34.06,-22.85 -49.75,-22.85 -14.75,0 -27.78,5.93 -39.08,17.61 -11.14,11.85 -19.31,33.03 -24.17,63.84 -4.87,30.81 -7.37,87.54 -7.37,170.01l0 163.06z"/>
     <g>
      <path class="fil0" d="M7775.62 7464.21l0 -399.26 124.3 0c21.84,0 38.55,1.29 50.12,3.81 16.17,3.26 29.73,9.48 40.69,18.58 10.96,9.21 19.78,22.03 26.44,38.48 6.67,16.45 9.96,34.57 9.96,54.38 0,33.83 -8.89,62.54 -26.75,85.97 -17.78,23.51 -50.03,35.21 -96.63,35.21l-84.46 0 0 162.83 -43.68 0zm43.68 -209.68l0 0 85.07 0c28.2,0 48.12,-6.31 60.01,-19.05 11.8,-12.74 17.7,-30.58 17.7,-53.72 0,-16.63 -3.44,-30.94 -10.41,-42.85 -6.97,-11.89 -16.18,-19.8 -27.51,-23.6 -7.36,-2.32 -20.92,-3.53 -40.63,-3.53l-84.22 0 0 142.75zm257.5 209.68l0 0 0 -289.41 36.32 0 0 44.33c9.27,-20.55 17.86,-34.11 25.75,-40.62 7.89,-6.6 16.56,-9.85 25.97,-9.85 13.65,0 27.52,5.21 41.62,15.53l-14.41 45.27c-9.8,-6.71 -19.62,-10.04 -29.42,-10.04 -8.82,0 -16.72,3.26 -23.68,9.67 -6.97,6.41 -11.96,15.33 -14.95,26.76 -4.52,17.37 -6.75,36.43 -6.75,57.16l0 151.21 -40.46 0zm138.4 -144.71l0 0c0,-53.43 12.26,-93.02 36.86,-118.76 20.46,-21.38 45.53,-32.08 75.03,-32.08 32.73,0 59.55,13.01 80.38,39.04 20.77,25.92 31.2,61.89 31.2,107.72 0,37.17 -4.6,66.34 -13.79,87.64 -9.19,21.28 -22.61,37.83 -40.24,49.62 -17.55,11.8 -36.78,17.66 -57.55,17.66 -33.42,0 -60.4,-12.92 -81,-38.85 -20.61,-25.93 -30.89,-63.28 -30.89,-111.99zm41.38 0.1l0 0c0,36.99 6.68,64.68 20.01,82.99 13.41,18.41 30.2,27.61 50.5,27.61 20.08,0 36.78,-9.2 50.19,-27.71 13.33,-18.48 20,-46.64 20,-84.47 0,-35.69 -6.74,-62.74 -20.16,-81.04 -13.4,-18.41 -30.11,-27.6 -50.03,-27.6 -20.31,0 -37.09,9.09 -50.5,27.42 -13.33,18.3 -20.01,45.9 -20.01,82.8zm222.1 168.6l0 0 39.08 6.68c1.6,14.69 6.21,25.38 13.72,32.16 10.03,9.01 23.75,13.58 41.15,13.58 18.7,0 33.18,-4.57 43.37,-13.58 10.19,-9.01 17.09,-21.74 20.69,-38.01 2.08,-9.93 3.07,-30.85 2.92,-62.73 -17.71,25.28 -39.7,37.93 -66.06,37.93 -32.81,0 -58.25,-14.31 -76.17,-43.03 -18.01,-28.63 -26.98,-63.01 -26.98,-103.07 0,-27.61 4.15,-53.06 12.34,-76.39 8.2,-23.32 20.16,-41.27 35.78,-54 15.64,-12.72 34.04,-19.06 55.18,-19.06 28.13,0 51.35,13.95 69.59,41.83l0 -35.68 37.24 0 0 249.9c0,45.09 -3.76,76.95 -11.34,95.73 -7.51,18.79 -19.55,33.66 -35.86,44.53 -16.4,10.87 -36.55,16.35 -60.47,16.35 -28.43,0 -51.34,-7.7 -68.82,-23.23 -17.55,-15.42 -25.98,-38.75 -25.36,-69.88zm33.11 -173.61l0 0c0,37.82 6.21,65.42 18.62,82.81 12.5,17.37 28.05,26.1 46.75,26.1 18.63,0 34.19,-8.63 46.83,-25.92 12.57,-17.29 18.86,-44.42 18.86,-81.41 0,-35.32 -6.52,-61.99 -19.47,-79.93 -12.96,-17.94 -28.59,-26.85 -46.83,-26.85 -18.01,0 -33.27,8.83 -45.9,26.48 -12.58,17.66 -18.86,43.87 -18.86,78.72zm229.59 149.63l0 0 0 -289.41 36.33 0 0 44.33c9.27,-20.55 17.86,-34.11 25.75,-40.62 7.89,-6.6 16.55,-9.85 25.97,-9.85 13.64,0 27.51,5.21 41.62,15.53l-14.41 45.27c-9.81,-6.71 -19.63,-10.04 -29.43,-10.04 -8.81,0 -16.71,3.26 -23.68,9.67 -6.96,6.41 -11.95,15.33 -14.95,26.76 -4.52,17.37 -6.74,36.43 -6.74,57.16l0 151.21 -40.47 0zm309.45 -36.24l0 0c-15.02,15.52 -29.5,26.39 -43.38,32.81 -13.87,6.42 -28.74,9.56 -44.68,9.56 -26.21,0 -46.37,-7.7 -60.47,-23.22 -14.1,-15.44 -21.14,-35.22 -21.14,-59.3 0,-14.13 2.68,-27.05 7.96,-38.76 5.37,-11.71 12.34,-20.99 20.92,-28.06 8.65,-7.06 18.32,-12.45 29.12,-16.08 7.97,-2.52 20.01,-4.94 36.02,-7.35 32.65,-4.65 56.78,-10.3 72.19,-16.81 0.15,-6.71 0.23,-10.98 0.23,-12.74 0,-19.9 -3.83,-33.92 -11.49,-42.09 -10.35,-11.06 -25.75,-16.55 -46.14,-16.55 -19.09,0 -33.19,4.08 -42.23,12.16 -9.12,8.09 -15.79,22.41 -20.16,43.04l-39.54 -6.69c3.6,-20.55 9.5,-37.18 17.78,-49.82 8.27,-12.64 20.24,-22.3 35.86,-29.19 15.56,-6.78 33.73,-10.22 54.26,-10.22 20.39,0 37.01,2.9 49.8,8.75 12.73,5.86 22.15,13.1 28.14,21.93 5.97,8.82 10.19,19.97 12.64,33.45 1.3,8.37 1.99,23.42 1.99,45.07l0 65.07c0,45.45 0.84,74.16 2.53,86.33 1.61,12.18 4.99,23.79 9.89,34.95l-42.31 0c-4.06,-10.32 -6.67,-22.4 -7.81,-36.24zm-3.22 -108.74l0 0c-14.72,7.25 -36.79,13.38 -66.21,18.4 -16.72,2.89 -28.51,6.15 -35.41,9.76 -6.89,3.63 -12.18,8.91 -15.93,15.8 -3.76,6.96 -5.68,14.68 -5.68,23.22 0,12.92 4.06,23.79 12.26,32.44 8.2,8.64 20.16,13.01 35.86,13.01 15.56,0 29.43,-4.08 41.61,-12.35 12.11,-8.17 21.07,-19.42 26.75,-33.65 4.37,-11.06 6.52,-27.33 6.52,-48.78l0.23 -17.85zm103.07 144.98l0 0 0 -289.41 36.32 0 0 40.88c7.43,-14.11 17.4,-25.55 29.81,-34.1 12.42,-8.64 26.52,-12.93 42.39,-12.93 17.63,0 32.1,4.47 43.37,13.29 11.27,8.93 19.24,21.28 23.83,37.28 19.01,-33.74 43.61,-50.57 73.96,-50.57 23.75,0 42.07,7.91 54.79,23.8 12.8,15.9 19.24,40.33 19.24,73.32l0 198.44 -40.46 0 0 -182.17c0,-19.52 -1.38,-33.64 -3.99,-42.28 -2.6,-8.64 -7.35,-15.52 -14.33,-20.82 -6.89,-5.29 -15.02,-7.9 -24.29,-7.9 -16.87,0 -30.81,6.8 -41.92,20.28 -11.11,13.56 -16.63,35.22 -16.63,64.96l0 167.94 -40.47 0 0 -187.82c0,-21.75 -3.3,-38.12 -9.87,-48.99 -6.6,-10.87 -17.41,-16.36 -32.35,-16.36 -11.34,0 -21.84,3.63 -31.5,10.88 -9.66,7.24 -16.63,17.85 -20.99,31.89 -4.3,13.94 -6.44,34.1 -6.44,60.41l0 150 -40.47 0zm538.9 -36.24l0 0c-15.02,15.52 -29.5,26.39 -43.38,32.81 -13.86,6.42 -28.74,9.56 -44.68,9.56 -26.21,0 -46.37,-7.7 -60.46,-23.22 -14.1,-15.44 -21.15,-35.22 -21.15,-59.3 0,-14.13 2.68,-27.05 7.96,-38.76 5.37,-11.71 12.34,-20.99 20.92,-28.06 8.66,-7.06 18.32,-12.45 29.12,-16.08 7.97,-2.52 20.01,-4.94 36.02,-7.35 32.65,-4.65 56.78,-10.3 72.19,-16.81 0.15,-6.71 0.23,-10.98 0.23,-12.74 0,-19.9 -3.83,-33.92 -11.49,-42.09 -10.35,-11.06 -25.75,-16.55 -46.14,-16.55 -19.09,0 -33.18,4.08 -42.23,12.16 -9.12,8.09 -15.79,22.41 -20.16,43.04l-39.54 -6.69c3.6,-20.55 9.5,-37.18 17.78,-49.82 8.27,-12.64 20.24,-22.3 35.86,-29.19 15.56,-6.78 33.73,-10.22 54.26,-10.22 20.39,0 37.01,2.9 49.81,8.75 12.72,5.86 22.14,13.1 28.13,21.93 5.98,8.82 10.19,19.97 12.64,33.45 1.3,8.37 1.99,23.42 1.99,45.07l0 65.07c0,45.45 0.84,74.16 2.53,86.33 1.61,12.18 4.99,23.79 9.89,34.95l-42.3 0c-4.07,-10.32 -6.68,-22.4 -7.82,-36.24zm-3.22 -108.74l0 0c-14.71,7.25 -36.78,13.38 -66.21,18.4 -16.71,2.89 -28.51,6.15 -35.4,9.76 -6.89,3.63 -12.19,8.91 -15.94,15.8 -3.76,6.96 -5.68,14.68 -5.68,23.22 0,12.92 4.06,23.79 12.26,32.44 8.2,8.64 20.17,13.01 35.86,13.01 15.56,0 29.43,-4.08 41.61,-12.35 12.12,-8.17 21.08,-19.42 26.75,-33.65 4.37,-11.06 6.52,-27.33 6.52,-48.78l0.23 -17.85zm234.04 144.98l0 0 0 -399.26 123.53 0c25.14,0 45.3,3.99 60.55,12.08 15.17,8.08 27.05,20.55 35.63,37.35 8.66,16.74 12.95,34.31 12.95,52.69 0,17.01 -3.83,33.1 -11.42,48.15 -7.58,15.06 -19.08,27.22 -34.48,36.51 19.93,7.07 35.25,19.16 45.91,36.25 10.73,17 16.1,37.17 16.1,60.42 0,18.76 -3.3,36.14 -9.81,52.22 -6.52,16.08 -14.57,28.43 -24.14,37.18 -9.58,8.64 -21.61,15.23 -36.01,19.7 -14.49,4.47 -32.2,6.7 -53.19,6.7l-125.6 0zm43.68 -231.42l0 0 71.2 0c19.32,0 33.18,-1.58 41.53,-4.64 11.12,-4.01 19.47,-10.69 25.06,-19.99 5.6,-9.3 8.43,-20.9 8.43,-34.94 0,-13.29 -2.61,-25 -7.89,-35.03 -5.22,-10.14 -12.73,-17.1 -22.45,-20.82 -9.73,-3.71 -26.44,-5.58 -50.04,-5.58l-65.83 0 0 121zm0 184.59l0 0 82 0c14.1,0 23.98,-0.66 29.74,-1.97 9.96,-2.13 18.39,-5.75 25.13,-10.87 6.75,-5.1 12.26,-12.53 16.64,-22.3 4.37,-9.75 6.51,-20.99 6.51,-33.74 0,-14.97 -3.14,-27.87 -9.5,-38.93 -6.29,-11.06 -15.02,-18.78 -26.21,-23.24 -11.1,-4.47 -27.2,-6.7 -48.11,-6.7l-76.18 0 0 137.75zm259.34 46.84l0 0 0 -289.41 36.32 0 0 44.33c9.27,-20.55 17.86,-34.11 25.75,-40.62 7.89,-6.6 16.56,-9.85 25.97,-9.85 13.65,0 27.51,5.21 41.62,15.53l-14.41 45.27c-9.8,-6.71 -19.62,-10.04 -29.43,-10.04 -8.81,0 -16.71,3.26 -23.68,9.67 -6.96,6.41 -11.95,15.33 -14.94,26.76 -4.52,17.37 -6.75,36.43 -6.75,57.16l0 151.21 -40.46 0zm309.44 -36.24l0 0c-15.02,15.52 -29.5,26.39 -43.38,32.81 -13.86,6.42 -28.74,9.56 -44.68,9.56 -26.21,0 -46.37,-7.7 -60.46,-23.22 -14.1,-15.44 -21.15,-35.22 -21.15,-59.3 0,-14.13 2.68,-27.05 7.96,-38.76 5.37,-11.71 12.35,-20.99 20.92,-28.06 8.66,-7.06 18.32,-12.45 29.12,-16.08 7.97,-2.52 20.01,-4.94 36.02,-7.35 32.65,-4.65 56.78,-10.3 72.19,-16.81 0.15,-6.71 0.23,-10.98 0.23,-12.74 0,-19.9 -3.83,-33.92 -11.49,-42.09 -10.35,-11.06 -25.75,-16.55 -46.14,-16.55 -19.08,0 -33.18,4.08 -42.23,12.16 -9.12,8.09 -15.79,22.41 -20.16,43.04l-39.54 -6.69c3.6,-20.55 9.5,-37.18 17.79,-49.82 8.26,-12.64 20.23,-22.3 35.85,-29.19 15.56,-6.78 33.73,-10.22 54.26,-10.22 20.39,0 37.01,2.9 49.81,8.75 12.72,5.86 22.14,13.1 28.13,21.93 5.98,8.82 10.19,19.97 12.64,33.45 1.3,8.37 1.99,23.42 1.99,45.07l0 65.07c0,45.45 0.84,74.16 2.54,86.33 1.6,12.18 4.98,23.79 9.88,34.95l-42.3 0c-4.07,-10.32 -6.68,-22.4 -7.82,-36.24zm-3.22 -108.74l0 0c-14.71,7.25 -36.78,13.38 -66.21,18.4 -16.71,2.89 -28.51,6.15 -35.4,9.76 -6.89,3.63 -12.19,8.91 -15.94,15.8 -3.76,6.96 -5.68,14.68 -5.68,23.22 0,12.92 4.06,23.79 12.26,32.44 8.2,8.64 20.17,13.01 35.86,13.01 15.56,0 29.43,-4.08 41.61,-12.35 12.12,-8.17 21.08,-19.42 26.75,-33.65 4.37,-11.06 6.52,-27.33 6.52,-48.78l0.23 -17.85zm86.99 58.56l0 0 40 -7.82c2.22,19.44 8.5,34.31 18.78,44.71 10.27,10.32 24.67,15.53 43.07,15.53 18.62,0 32.42,-4.57 41.46,-13.76 8.96,-9.11 13.49,-19.9 13.49,-32.25 0,-11.05 -4.07,-19.8 -12.11,-26.12 -5.68,-4.37 -19.47,-9.85 -41.38,-16.64 -29.59,-9 -50.04,-16.81 -61.54,-23.41 -11.42,-6.69 -20.09,-15.81 -25.98,-27.52 -5.91,-11.61 -8.89,-24.53 -8.89,-38.65 0,-12.91 2.46,-24.81 7.27,-35.77 4.92,-10.98 11.5,-20.09 19.86,-27.34 6.29,-5.58 14.87,-10.3 25.67,-14.22 10.88,-3.89 22.45,-5.86 34.87,-5.86 18.7,0 35.09,3.26 49.19,9.85 14.18,6.52 24.6,15.43 31.35,26.58 6.67,11.25 11.34,26.22 13.87,44.99l-39.54 6.69c-1.77,-15.05 -6.97,-26.85 -15.56,-35.3 -8.58,-8.45 -20.69,-12.64 -36.4,-12.64 -18.47,0 -31.73,3.71 -39.62,11.14 -7.89,7.43 -11.88,16.19 -11.88,26.12 0,6.33 1.62,12.08 4.91,17.2 3.29,5.21 8.42,9.56 15.48,13 4.07,1.87 15.86,6.05 35.63,12.56 28.52,9.2 48.43,16.82 59.78,22.67 11.34,5.86 20.24,14.5 26.67,25.64 6.52,11.26 9.73,25.19 9.73,41.92 0,16.26 -3.91,31.61 -11.8,46 -7.89,14.42 -19.24,25.56 -34.03,33.48 -14.87,7.89 -31.66,11.79 -50.35,11.79 -30.96,0 -54.63,-7.8 -70.89,-23.33 -16.25,-15.6 -26.58,-38.66 -31.11,-69.22zm245.99 -257.07l0 0 0 -55.76 40.47 0 0 55.76 -40.47 0zm0 343.5l0 0 0 -289.41 40.47 0 0 289.41 -40.47 0zm101.24 0l0 0 0 -399.26 40.47 0 0 399.26 -40.47 0zm265.86 -93.69l0 0 41.84 6.7c-6.52,29.47 -18.7,52.42 -36.48,68.69 -17.77,16.26 -40.45,24.43 -68.12,24.43 -34.79,0 -62.37,-13 -82.76,-39.03 -20.39,-25.93 -30.59,-62.44 -30.59,-109.39 0,-48.51 10.27,-86.25 30.89,-113.01 20.61,-26.85 47.37,-40.25 80.23,-40.25 31.81,0 57.79,13.11 77.94,39.41 20.16,26.31 30.27,63.28 30.27,110.98 0,2.87 -0.08,7.23 -0.23,13.01l-177.71 0c1.53,31.68 8.88,56.03 22.22,72.85 13.25,16.84 29.88,25.29 49.73,25.29 14.79,0 27.44,-4.75 37.86,-14.22 10.49,-9.48 18.77,-24.63 24.9,-45.46zm-132.42 -78.62l0 0 132.88 0c-1.77,-24.35 -6.89,-42.57 -15.26,-54.73 -12.79,-18.88 -29.5,-28.35 -49.96,-28.35 -18.54,0 -34.1,7.52 -46.75,22.57 -12.56,15.06 -19.55,35.22 -20.91,60.51zm225.39 -171.19l0 0 0 -55.76 40.46 0 0 55.76 -40.46 0zm0 343.5l0 0 0 -289.41 40.46 0 0 289.41 -40.46 0zm101.7 0l0 0 0 -289.41 36.32 0 0 44.33c9.27,-20.55 17.86,-34.11 25.75,-40.62 7.89,-6.6 16.56,-9.85 25.97,-9.85 13.65,0 27.52,5.21 41.62,15.53l-14.41 45.27c-9.8,-6.71 -19.62,-10.04 -29.42,-10.04 -8.82,0 -16.72,3.26 -23.68,9.67 -6.97,6.41 -11.96,15.33 -14.95,26.76 -4.52,17.37 -6.75,36.43 -6.75,57.16l0 151.21 -40.46 0zm138.4 -144.71l0 0c0,-53.43 12.26,-93.02 36.86,-118.76 20.46,-21.38 45.53,-32.08 75.03,-32.08 32.73,0 59.55,13.01 80.38,39.04 20.77,25.92 31.2,61.89 31.2,107.72 0,37.17 -4.6,66.34 -13.79,87.64 -9.19,21.28 -22.61,37.83 -40.24,49.62 -17.55,11.8 -36.78,17.66 -57.55,17.66 -33.42,0 -60.4,-12.92 -81,-38.85 -20.61,-25.93 -30.89,-63.28 -30.89,-111.99zm41.38 0.1l0 0c0,36.99 6.68,64.68 20.01,82.99 13.41,18.41 30.2,27.61 50.5,27.61 20.08,0 36.78,-9.2 50.19,-27.71 13.33,-18.48 20,-46.64 20,-84.47 0,-35.69 -6.74,-62.74 -20.16,-81.04 -13.4,-18.41 -30.11,-27.6 -50.03,-27.6 -20.31,0 -37.09,9.09 -50.5,27.42 -13.33,18.3 -20.01,45.9 -20.01,82.8zm511.32 144.61l0 0 0 -36.72c-15.1,28.54 -37.32,42.85 -66.67,42.85 -19.01,0 -36.47,-6.32 -52.35,-19.05 -15.93,-12.64 -28.28,-30.4 -37.08,-53.06 -8.73,-22.77 -13.11,-48.88 -13.11,-78.44 0,-28.82 3.99,-54.93 11.88,-78.44 7.96,-23.42 19.86,-41.45 35.71,-53.9 15.79,-12.55 33.57,-18.79 53.1,-18.79 14.42,0 27.21,3.73 38.4,11.06 11.19,7.35 20.32,17.02 27.36,28.82l0 -143.59 40.46 0 0 399.26 -37.7 0zm-127.83 -144.34l0 0c0,36.99 6.44,64.59 19.39,82.9 12.87,18.32 28.13,27.43 45.68,27.43 17.7,0 32.72,-8.74 45.14,-26.22 12.33,-17.47 18.55,-44.13 18.55,-80.01 0,-39.4 -6.29,-68.41 -18.94,-86.9 -12.56,-18.5 -28.12,-27.69 -46.59,-27.69 -18.02,0 -33.04,8.83 -45.14,26.58 -12.03,17.74 -18.09,45.72 -18.09,83.91zm392.28 50.65l0 0 41.84 6.7c-6.51,29.47 -18.7,52.42 -36.47,68.69 -17.78,16.26 -40.46,24.43 -68.13,24.43 -34.78,0 -62.36,-13 -82.75,-39.03 -20.39,-25.93 -30.58,-62.44 -30.58,-109.39 0,-48.51 10.26,-86.25 30.88,-113.01 20.61,-26.85 47.36,-40.25 80.22,-40.25 31.81,0 57.79,13.11 77.94,39.41 20.16,26.31 30.28,63.28 30.28,110.98 0,2.87 -0.09,7.23 -0.23,13.01l-177.71 0c1.53,31.68 8.89,56.03 22.22,72.85 13.24,16.84 29.88,25.29 49.72,25.29 14.79,0 27.44,-4.75 37.86,-14.22 10.49,-9.48 18.77,-24.63 24.9,-45.46zm-132.41 -78.62l0 0 132.87 0c-1.76,-24.35 -6.89,-42.57 -15.25,-54.73 -12.8,-18.88 -29.5,-28.35 -49.97,-28.35 -18.54,0 -34.1,7.52 -46.74,22.57 -12.56,15.06 -19.54,35.22 -20.91,60.51zm344.85 -22.02l0 0c0,-66.17 14.71,-118.02 44.07,-155.49 29.35,-37.45 67.21,-56.14 113.65,-56.14 30.42,0 57.79,8.83 82.23,26.4 24.37,17.58 42.99,42.11 55.79,73.61 12.8,31.42 19.24,67.1 19.24,106.97 0,40.43 -6.75,76.68 -20.24,108.55 -13.49,31.97 -32.57,56.13 -57.24,72.5 -24.75,16.44 -51.42,24.62 -80.01,24.62 -31.04,0 -58.7,-9.1 -83.15,-27.22 -24.37,-18.13 -42.91,-42.85 -55.49,-74.27 -12.56,-31.32 -18.85,-64.49 -18.85,-99.54zm45.06 0.93l0 0c0,48.05 10.65,85.87 31.97,113.48 21.29,27.61 48.05,41.45 80.23,41.45 32.81,0 59.7,-13.94 80.92,-41.82 21.15,-27.88 31.74,-67.48 31.74,-118.78 0,-32.43 -4.53,-60.77 -13.57,-84.93 -9.04,-24.17 -22.3,-42.95 -39.69,-56.23 -17.48,-13.29 -37.01,-19.99 -58.71,-19.99 -30.81,0 -57.32,12.82 -79.54,38.48 -22.22,25.64 -33.35,68.39 -33.35,128.34zm320.88 304.38l0 0 0 -400.38 36.78 0 0 38.01c8.65,-14.68 18.47,-25.74 29.43,-33.1 10.88,-7.33 24.13,-11.06 39.69,-11.06 20.39,0 38.32,6.34 53.88,19.06 15.56,12.65 27.28,30.58 35.25,53.63 7.89,23.14 11.87,48.41 11.87,76.02 0,29.45 -4.37,56.03 -13.1,79.73 -8.73,23.61 -21.45,41.74 -38.17,54.37 -16.63,12.55 -34.18,18.87 -52.57,18.87 -13.48,0 -25.59,-3.44 -36.24,-10.32 -10.73,-6.87 -19.47,-15.51 -26.36,-26.01l0 141.18 -40.46 0zm36.78 -253.92l0 0c0,37.08 6.21,64.5 18.55,82.25 12.41,17.75 27.44,26.68 45.06,26.68 17.94,0 33.27,-9.2 45.99,-27.61 12.79,-18.4 19.16,-46.84 19.16,-85.4 0,-36.8 -6.21,-64.31 -18.7,-82.64 -12.49,-18.3 -27.37,-27.4 -44.68,-27.4 -17.18,0 -32.35,9.74 -45.53,29.18 -13.26,19.52 -19.85,47.77 -19.85,84.94zm381.72 49.25l0 0 41.84 6.7c-6.52,29.47 -18.7,52.42 -36.48,68.69 -17.77,16.26 -40.45,24.43 -68.12,24.43 -34.79,0 -62.37,-13 -82.76,-39.03 -20.4,-25.93 -30.59,-62.44 -30.59,-109.39 0,-48.51 10.27,-86.25 30.89,-113.01 20.61,-26.85 47.37,-40.25 80.23,-40.25 31.81,0 57.79,13.11 77.94,39.41 20.16,26.31 30.27,63.28 30.27,110.98 0,2.87 -0.08,7.23 -0.23,13.01l-177.71 0c1.53,31.68 8.88,56.03 22.21,72.85 13.26,16.84 29.89,25.29 49.74,25.29 14.79,0 27.44,-4.75 37.86,-14.22 10.49,-9.48 18.77,-24.63 24.9,-45.46zm-132.42 -78.62l0 0 132.88 0c-1.77,-24.35 -6.89,-42.57 -15.26,-54.73 -12.79,-18.88 -29.5,-28.35 -49.96,-28.35 -18.54,0 -34.1,7.52 -46.75,22.57 -12.56,15.06 -19.55,35.22 -20.91,60.51zm224.92 172.31l0 0 0 -289.41 36.33 0 0 44.33c9.27,-20.55 17.86,-34.11 25.75,-40.62 7.89,-6.6 16.56,-9.85 25.97,-9.85 13.65,0 27.51,5.21 41.62,15.53l-14.41 45.27c-9.8,-6.71 -19.63,-10.04 -29.43,-10.04 -8.81,0 -16.71,3.26 -23.68,9.67 -6.96,6.41 -11.95,15.33 -14.94,26.76 -4.52,17.37 -6.75,36.43 -6.75,57.16l0 151.21 -40.47 0zm309.45 -36.24l0 0c-15.02,15.52 -29.5,26.39 -43.38,32.81 -13.86,6.42 -28.74,9.56 -44.68,9.56 -26.21,0 -46.37,-7.7 -60.46,-23.22 -14.1,-15.44 -21.15,-35.22 -21.15,-59.3 0,-14.13 2.68,-27.05 7.96,-38.76 5.37,-11.71 12.34,-20.99 20.92,-28.06 8.65,-7.06 18.32,-12.45 29.12,-16.08 7.97,-2.52 20.01,-4.94 36.02,-7.35 32.65,-4.65 56.78,-10.3 72.19,-16.81 0.15,-6.71 0.23,-10.98 0.23,-12.74 0,-19.9 -3.83,-33.92 -11.49,-42.09 -10.35,-11.06 -25.75,-16.55 -46.14,-16.55 -19.09,0 -33.18,4.08 -42.23,12.16 -9.12,8.09 -15.79,22.41 -20.16,43.04l-39.54 -6.69c3.6,-20.55 9.5,-37.18 17.78,-49.82 8.27,-12.64 20.24,-22.3 35.86,-29.19 15.56,-6.78 33.73,-10.22 54.26,-10.22 20.39,0 37.01,2.9 49.81,8.75 12.72,5.86 22.14,13.1 28.13,21.93 5.98,8.82 10.19,19.97 12.64,33.45 1.3,8.37 1.99,23.42 1.99,45.07l0 65.07c0,45.45 0.84,74.16 2.53,86.33 1.61,12.18 4.99,23.79 9.89,34.95l-42.31 0c-4.06,-10.32 -6.67,-22.4 -7.81,-36.24zm-3.22 -108.74l0 0c-14.71,7.25 -36.78,13.38 -66.21,18.4 -16.71,2.89 -28.51,6.15 -35.4,9.76 -6.89,3.63 -12.19,8.91 -15.94,15.8 -3.76,6.96 -5.68,14.68 -5.68,23.22 0,12.92 4.06,23.79 12.26,32.44 8.2,8.64 20.17,13.01 35.86,13.01 15.56,0 29.43,-4.08 41.61,-12.35 12.12,-8.17 21.08,-19.42 26.75,-33.65 4.37,-11.06 6.52,-27.33 6.52,-48.78l0.23 -17.85zm257.11 144.98l0 0 0 -36.72c-15.1,28.54 -37.32,42.85 -66.67,42.85 -19.01,0 -36.47,-6.32 -52.34,-19.05 -15.94,-12.64 -28.28,-30.4 -37.09,-53.06 -8.73,-22.77 -13.11,-48.88 -13.11,-78.44 0,-28.82 3.99,-54.93 11.88,-78.44 7.97,-23.42 19.86,-41.45 35.71,-53.9 15.79,-12.55 33.57,-18.79 53.11,-18.79 14.41,0 27.2,3.73 38.39,11.06 11.19,7.35 20.32,17.02 27.36,28.82l0 -143.59 40.46 0 0 399.26 -37.7 0zm-127.83 -144.34l0 0c0,36.99 6.44,64.59 19.39,82.9 12.87,18.32 28.13,27.43 45.68,27.43 17.7,0 32.73,-8.74 45.14,-26.22 12.34,-17.47 18.55,-44.13 18.55,-80.01 0,-39.4 -6.29,-68.41 -18.94,-86.9 -12.56,-18.5 -28.12,-27.69 -46.59,-27.69 -18.01,0 -33.04,8.83 -45.14,26.58 -12.03,17.74 -18.09,45.72 -18.09,83.91zm214.34 -0.37l0 0c0,-53.43 12.27,-93.02 36.86,-118.76 20.47,-21.38 45.53,-32.08 75.03,-32.08 32.74,0 59.56,13.01 80.39,39.04 20.77,25.92 31.2,61.89 31.2,107.72 0,37.17 -4.6,66.34 -13.79,87.64 -9.2,21.28 -22.61,37.83 -40.24,49.62 -17.55,11.8 -36.78,17.66 -57.56,17.66 -33.41,0 -60.39,-12.92 -80.99,-38.85 -20.61,-25.93 -30.9,-63.28 -30.9,-111.99zm41.39 0.1l0 0c0,36.99 6.67,64.68 20,82.99 13.42,18.41 30.21,27.61 50.5,27.61 20.09,0 36.78,-9.2 50.2,-27.71 13.33,-18.48 20,-46.64 20,-84.47 0,-35.69 -6.74,-62.74 -20.16,-81.04 -13.41,-18.41 -30.12,-27.6 -50.04,-27.6 -20.3,0 -37.08,9.09 -50.5,27.42 -13.33,18.3 -20,45.9 -20,82.8zm229.06 144.61l0 0 0 -289.41 36.33 0 0 44.33c9.26,-20.55 17.85,-34.11 25.74,-40.62 7.89,-6.6 16.56,-9.85 25.98,-9.85 13.64,0 27.51,5.21 41.62,15.53l-14.42 45.27c-9.8,-6.71 -19.62,-10.04 -29.42,-10.04 -8.82,0 -16.72,3.26 -23.68,9.67 -6.97,6.41 -11.96,15.33 -14.95,26.76 -4.52,17.37 -6.74,36.43 -6.74,57.16l0 151.21 -40.47 0zm287.3 0l0 0 0 -399.26 237.73 0 0 46.84 -194.04 0 0 122.67 181.63 0 0 46.85 -181.63 0 0 136.07 201.85 0 0 46.84 -245.54 0zm456.6 -105.96l0 0 39.54 6.7c-4.37,33 -15.4,58.74 -33.26,77.41 -17.86,18.69 -39.85,27.98 -65.83,27.98 -32.57,0 -58.78,-12.92 -78.54,-38.74 -19.86,-25.85 -29.74,-62.84 -29.74,-110.97 0,-31.23 4.29,-58.47 12.79,-81.88 8.51,-23.32 21.46,-40.9 38.93,-52.51 17.4,-11.72 36.32,-17.58 56.87,-17.58 25.82,0 47.05,7.91 63.45,23.8 16.48,15.9 27.05,38.48 31.65,67.65l-39.08 7.26c-3.76,-19.44 -10.34,-34.02 -19.93,-43.87 -9.5,-9.77 -20.99,-14.69 -34.48,-14.69 -20.39,0 -36.94,8.83 -49.73,26.49 -12.73,17.75 -19.09,45.63 -19.09,83.92 0,38.84 6.13,67 18.4,84.57 12.34,17.57 28.36,26.4 48.05,26.4 15.94,0 29.2,-5.86 39.78,-17.66 10.65,-11.71 17.39,-29.84 20.23,-54.29zm58.85 -38.75l0 0c0,-53.43 12.27,-93.02 36.86,-118.76 20.47,-21.38 45.53,-32.08 75.03,-32.08 32.74,0 59.56,13.01 80.39,39.04 20.77,25.92 31.2,61.89 31.2,107.72 0,37.17 -4.6,66.34 -13.79,87.64 -9.2,21.28 -22.61,37.83 -40.24,49.62 -17.55,11.8 -36.78,17.66 -57.56,17.66 -33.41,0 -60.39,-12.92 -80.99,-38.85 -20.62,-25.93 -30.9,-63.28 -30.9,-111.99zm41.39 0.1l0 0c0,36.99 6.67,64.68 20,82.99 13.42,18.41 30.21,27.61 50.5,27.61 20.09,0 36.78,-9.2 50.2,-27.71 13.33,-18.48 20,-46.64 20,-84.47 0,-35.69 -6.75,-62.74 -20.16,-81.04 -13.41,-18.41 -30.12,-27.6 -50.04,-27.6 -20.3,0 -37.08,9.09 -50.5,27.42 -13.33,18.3 -20,45.9 -20,82.8z"/>
      <path class="fil0" d="M15463.28 7464.21l0 -289.41 36.32 0 0 41.07c17.48,-31.51 42.76,-47.22 75.79,-47.22 14.41,0 27.59,3.18 39.62,9.4 12.03,6.23 21.07,14.5 27.05,24.61 5.99,10.14 10.19,22.22 12.57,36.15 1.45,9.11 2.22,25.01 2.22,47.68l0 177.71 -40.46 0 0 -175.84c0,-19.99 -1.54,-34.94 -4.68,-44.79 -3.14,-9.85 -8.73,-17.76 -16.7,-23.7 -7.98,-5.86 -17.41,-8.84 -28.14,-8.84 -17.16,0 -31.95,6.62 -44.44,19.91 -12.49,13.19 -18.7,38.38 -18.7,75.37l0 157.91 -40.47 0zm240.55 -144.71l0 0c0,-53.43 12.27,-93.02 36.86,-118.76 20.47,-21.38 45.53,-32.08 75.03,-32.08 32.74,0 59.56,13.01 80.39,39.04 20.77,25.92 31.2,61.89 31.2,107.72 0,37.17 -4.6,66.34 -13.79,87.64 -9.2,21.28 -22.61,37.83 -40.24,49.62 -17.55,11.8 -36.78,17.66 -57.56,17.66 -33.41,0 -60.39,-12.92 -80.99,-38.85 -20.62,-25.93 -30.9,-63.28 -30.9,-111.99zm41.39 0.1l0 0c0,36.99 6.67,64.68 20,82.99 13.42,18.41 30.2,27.61 50.5,27.61 20.09,0 36.78,-9.2 50.2,-27.71 13.33,-18.48 20,-46.64 20,-84.47 0,-35.69 -6.75,-62.74 -20.16,-81.04 -13.41,-18.41 -30.12,-27.6 -50.04,-27.6 -20.31,0 -37.08,9.09 -50.5,27.42 -13.33,18.3 -20,45.9 -20,82.8zm70.35 -226.77l0 0 -25.06 46.29 -45.98 0 48.05 -76.39 42.77 0 51.26 76.39 -45.98 0 -25.06 -46.29zm159.17 371.39l0 0 0 -289.41 36.32 0 0 40.88c7.43,-14.11 17.4,-25.55 29.81,-34.1 12.42,-8.64 26.52,-12.93 42.39,-12.93 17.63,0 32.11,4.47 43.38,13.29 11.26,8.93 19.23,21.28 23.82,37.28 19.02,-33.74 43.61,-50.57 73.96,-50.57 23.75,0 42.07,7.91 54.79,23.8 12.8,15.9 19.24,40.33 19.24,73.32l0 198.44 -40.46 0 0 -182.17c0,-19.52 -1.38,-33.64 -3.99,-42.28 -2.6,-8.64 -7.35,-15.52 -14.33,-20.82 -6.89,-5.29 -15.02,-7.9 -24.29,-7.9 -16.87,0 -30.81,6.8 -41.92,20.28 -11.11,13.56 -16.63,35.22 -16.63,64.96l0 167.94 -40.47 0 0 -187.82c0,-21.75 -3.3,-38.12 -9.87,-48.99 -6.6,-10.87 -17.41,-16.36 -32.35,-16.36 -11.34,0 -21.84,3.63 -31.5,10.88 -9.66,7.24 -16.63,17.85 -20.99,31.89 -4.3,13.94 -6.44,34.1 -6.44,60.41l0 150 -40.47 0zm383.02 -343.5l0 0 0 -55.76 40.47 0 0 55.76 -40.47 0zm0 343.5l0 0 0 -289.41 40.47 0 0 289.41 -40.47 0zm258.03 -105.96l0 0 39.55 6.7c-4.37,33 -15.41,58.74 -33.26,77.41 -17.86,18.69 -39.85,27.98 -65.83,27.98 -32.58,0 -58.79,-12.92 -78.55,-38.74 -19.85,-25.85 -29.74,-62.84 -29.74,-110.97 0,-31.23 4.3,-58.47 12.8,-81.88 8.5,-23.32 21.45,-40.9 38.93,-52.51 17.4,-11.72 36.32,-17.58 56.86,-17.58 25.83,0 47.06,7.91 63.46,23.8 16.47,15.9 27.05,38.48 31.65,67.65l-39.08 7.26c-3.76,-19.44 -10.35,-34.02 -19.94,-43.87 -9.5,-9.77 -20.99,-14.69 -34.48,-14.69 -20.39,0 -36.93,8.83 -49.73,26.49 -12.72,17.75 -19.09,45.63 -19.09,83.92 0,38.84 6.14,67 18.4,84.57 12.34,17.57 28.36,26.4 48.06,26.4 15.93,0 29.19,-5.86 39.77,-17.66 10.65,-11.71 17.4,-29.84 20.23,-54.29zm58.86 -38.75l0 0c0,-53.43 12.26,-93.02 36.86,-118.76 20.46,-21.38 45.53,-32.08 75.03,-32.08 32.73,0 59.55,13.01 80.38,39.04 20.77,25.92 31.2,61.89 31.2,107.72 0,37.17 -4.6,66.34 -13.79,87.64 -9.19,21.28 -22.61,37.83 -40.24,49.62 -17.55,11.8 -36.78,17.66 -57.55,17.66 -33.42,0 -60.4,-12.92 -81,-38.85 -20.61,-25.93 -30.89,-63.28 -30.89,-111.99zm41.38 0.1l0 0c0,36.99 6.68,64.68 20.01,82.99 13.41,18.41 30.2,27.61 50.5,27.61 20.08,0 36.78,-9.2 50.19,-27.71 13.33,-18.48 20,-46.64 20,-84.47 0,-35.69 -6.74,-62.74 -20.16,-81.04 -13.4,-18.41 -30.11,-27.6 -50.03,-27.6 -20.31,0 -37.09,9.09 -50.5,27.42 -13.33,18.3 -20.01,45.9 -20.01,82.8zm300.87 144.61l0 0 126.3 -399.26 47.9 0 134.03 399.26 -49.58 0 -38.08 -121.01 -138.63 0 -35.72 121.01 -46.21 0zm94.72 -163.94l0 0 112.2 0 -34.34 -110.7c-10.35,-33.65 -18.17,-61.43 -23.61,-83.36 -4.52,26.02 -10.57,51.57 -18.16,76.86l-36.09 117.19zm398.89 163.94l0 0 0 -43.03c-18.55,32.81 -43.68,49.15 -75.49,49.15 -14.03,0 -27.13,-3.26 -39.31,-9.75 -12.19,-6.6 -21.22,-14.78 -27.13,-24.63 -5.9,-9.94 -10.04,-22.02 -12.42,-36.33 -1.6,-9.66 -2.45,-24.9 -2.45,-45.74l0 -179.08 40.46 0 0 160.12c0,25.56 0.84,42.86 2.46,51.68 2.53,12.91 7.89,22.94 16.17,30.3 8.19,7.33 18.32,11.06 30.42,11.06 12.11,0 23.45,-3.73 34.04,-11.25 10.57,-7.53 18.09,-17.84 22.52,-30.76 4.37,-12.92 6.6,-31.79 6.6,-56.42l0 -154.74 40.46 0 0 289.41 -36.32 0zm187.68 -43.79l0 0 5.52 43.32c-11.34,2.89 -21.53,4.37 -30.42,4.37 -14.65,0 -25.98,-2.79 -34.11,-8.46 -8.05,-5.66 -13.72,-13 -17.02,-22.2 -3.3,-9.19 -4.91,-28.53 -4.91,-58l0 -166.73 -29.89 0 0 -37.91 29.89 0 0 -71.56 40.47 -29.47 0 101.03 40.46 0 0 37.91 -40.46 0 0 169.52c0,14.03 0.68,23.05 2.14,27.05 1.39,4 3.69,7.15 6.89,9.56 3.23,2.34 7.82,3.55 13.8,3.55 4.45,0 10.34,-0.65 17.63,-1.97zm24.75 -100.93l0 0c0,-53.43 12.26,-93.02 36.86,-118.76 20.46,-21.38 45.53,-32.08 75.03,-32.08 32.73,0 59.55,13.01 80.38,39.04 20.77,25.92 31.2,61.89 31.2,107.72 0,37.17 -4.6,66.34 -13.79,87.64 -9.19,21.28 -22.61,37.83 -40.24,49.62 -17.55,11.8 -36.77,17.66 -57.55,17.66 -33.42,0 -60.4,-12.92 -81,-38.85 -20.61,-25.93 -30.89,-63.28 -30.89,-111.99zm41.39 0.1l0 0c0,36.99 6.67,64.68 20,82.99 13.41,18.41 30.2,27.61 50.5,27.61 20.08,0 36.78,-9.2 50.19,-27.71 13.33,-18.48 20,-46.64 20,-84.47 0,-35.69 -6.74,-62.74 -20.16,-81.04 -13.4,-18.41 -30.11,-27.6 -50.03,-27.6 -20.31,0 -37.09,9.09 -50.5,27.42 -13.33,18.3 -20,45.9 -20,82.8zm229.05 144.61l0 0 0 -289.41 36.33 0 0 44.33c9.27,-20.55 17.86,-34.11 25.75,-40.62 7.89,-6.6 16.55,-9.85 25.97,-9.85 13.64,0 27.51,5.21 41.62,15.53l-14.41 45.27c-9.81,-6.71 -19.63,-10.04 -29.43,-10.04 -8.81,0 -16.71,3.26 -23.68,9.67 -6.96,6.41 -11.95,15.33 -14.95,26.76 -4.51,17.37 -6.74,36.43 -6.74,57.16l0 151.21 -40.47 0zm153.58 -343.5l0 0 0 -55.76 40.47 0 0 55.76 -40.47 0zm0 343.5l0 0 0 -289.41 40.47 0 0 289.41 -40.47 0zm80.77 0l0 0 0 -39.97 151.13 -211.53c-17.17,1.12 -32.27,1.68 -45.29,1.68l-96.64 0 0 -39.59 194.5 0 0 32.25 -129.36 183.46 -24.75 34.12c18.16,-1.86 35.17,-2.8 51.03,-2.8l110.44 0 0 42.39 -211.07 0zm407.16 -36.24l0 0c-15.02,15.52 -29.5,26.39 -43.38,32.81 -13.86,6.42 -28.74,9.56 -44.68,9.56 -26.21,0 -46.37,-7.7 -60.46,-23.22 -14.1,-15.44 -21.15,-35.22 -21.15,-59.3 0,-14.13 2.68,-27.05 7.96,-38.76 5.37,-11.71 12.34,-20.99 20.92,-28.06 8.65,-7.06 18.32,-12.45 29.12,-16.08 7.97,-2.52 20.01,-4.94 36.02,-7.35 32.65,-4.65 56.78,-10.3 72.19,-16.81 0.15,-6.71 0.23,-10.98 0.23,-12.74 0,-19.9 -3.83,-33.92 -11.49,-42.09 -10.35,-11.06 -25.75,-16.55 -46.14,-16.55 -19.09,0 -33.18,4.08 -42.23,12.16 -9.12,8.09 -15.79,22.41 -20.16,43.04l-39.54 -6.69c3.6,-20.55 9.5,-37.18 17.78,-49.82 8.27,-12.64 20.24,-22.3 35.86,-29.19 15.56,-6.78 33.73,-10.22 54.26,-10.22 20.39,0 37.01,2.9 49.81,8.75 12.72,5.86 22.14,13.1 28.13,21.93 5.98,8.82 10.19,19.97 12.64,33.45 1.3,8.37 1.99,23.42 1.99,45.07l0 65.07c0,45.45 0.84,74.16 2.53,86.33 1.61,12.18 4.99,23.79 9.89,34.95l-42.31 0c-4.06,-10.32 -6.67,-22.4 -7.81,-36.24zm-3.22 -108.74l0 0c-14.71,7.25 -36.78,13.38 -66.21,18.4 -16.71,2.89 -28.51,6.15 -35.4,9.76 -6.89,3.63 -12.19,8.91 -15.94,15.8 -3.76,6.96 -5.68,14.68 -5.68,23.22 0,12.92 4.06,23.79 12.26,32.44 8.2,8.64 20.17,13.01 35.86,13.01 15.56,0 29.43,-4.08 41.61,-12.35 12.12,-8.17 21.08,-19.42 26.75,-33.65 4.37,-11.06 6.52,-27.33 6.52,-48.78l0.23 -17.85zm257.11 144.98l0 0 0 -36.72c-15.1,28.54 -37.32,42.85 -66.67,42.85 -19.01,0 -36.47,-6.32 -52.34,-19.05 -15.94,-12.64 -28.28,-30.4 -37.09,-53.06 -8.73,-22.77 -13.11,-48.88 -13.11,-78.44 0,-28.82 3.99,-54.93 11.88,-78.44 7.97,-23.42 19.86,-41.45 35.71,-53.9 15.79,-12.55 33.57,-18.79 53.11,-18.79 14.41,0 27.2,3.73 38.39,11.06 11.19,7.35 20.32,17.02 27.36,28.82l0 -143.59 40.46 0 0 399.26 -37.7 0zm-127.83 -144.34l0 0c0,36.99 6.44,64.59 19.39,82.9 12.87,18.32 28.13,27.43 45.68,27.43 17.7,0 32.73,-8.74 45.14,-26.22 12.34,-17.47 18.55,-44.13 18.55,-80.01 0,-39.4 -6.29,-68.41 -18.93,-86.9 -12.57,-18.5 -28.13,-27.69 -46.6,-27.69 -18.01,0 -33.04,8.83 -45.14,26.58 -12.03,17.74 -18.09,45.72 -18.09,83.91zm214.34 -0.37l0 0c0,-53.43 12.27,-93.02 36.86,-118.76 20.47,-21.38 45.53,-32.08 75.03,-32.08 32.74,0 59.56,13.01 80.39,39.04 20.77,25.92 31.2,61.89 31.2,107.72 0,37.17 -4.6,66.34 -13.79,87.64 -9.2,21.28 -22.61,37.83 -40.24,49.62 -17.55,11.8 -36.78,17.66 -57.56,17.66 -33.41,0 -60.39,-12.92 -80.99,-38.85 -20.61,-25.93 -30.9,-63.28 -30.9,-111.99zm41.39 0.1l0 0c0,36.99 6.67,64.68 20,82.99 13.42,18.41 30.21,27.61 50.5,27.61 20.09,0 36.78,-9.2 50.2,-27.71 13.33,-18.48 20,-46.64 20,-84.47 0,-35.69 -6.74,-62.74 -20.16,-81.04 -13.4,-18.41 -30.12,-27.6 -50.04,-27.6 -20.3,0 -37.08,9.09 -50.5,27.42 -13.33,18.3 -20,45.9 -20,82.8z"/>
     </g>
    </g>
    <path class="fil0" d="M9432.16 3848.73l2020.24 -0.04c-236.06,-491 -780.25,-1625.5 -1023.86,-2104.24 -204.12,438.05 -776.76,1636.12 -996.37,2104.28zm2665.41 1455.05l0 0 -304.28 -655.92 -2744.56 0 -311.74 655.92 -916.52 0 2600.58 -5297.13 2598.02 5297.13 -921.49 0z"/>
    <polygon class="fil0" points="12124.19,5303.78 12124.19,6.91 14612.7,6.91 14612.7,962.9 12995.62,962.9 12995.62,2066.37 14612.7,2066.37 14612.7,2963.65 12995.62,2963.65 12995.62,4327.09 14612.7,4327.09 14612.7,5303.78 "/>
    <polygon class="fil1" points="12124.19,5303.78 12124.19,3479.21 13019.06,5303.78 "/>
    <path class="fil0" d="M18675.43 2655.15c0,-256.08 -48.61,-499.17 -144.65,-729.29 -96.03,-230.11 -234.62,-435.43 -414.53,-614.82 -176.26,-178.17 -379.28,-313.88 -610.25,-409.47 -232.18,-95.57 -476.52,-143.97 -731.81,-143.97 -256.49,0 -500.84,47.21 -733.02,141.61 -230.97,94.4 -437.63,231.3 -617.55,411.83 -179.9,177.01 -318.49,381.17 -413.3,611.28 -94.82,230.11 -142.24,474.38 -142.24,732.83 0,256.07 47.42,497.99 142.24,725.74 94.81,227.75 233.4,431.9 413.3,611.26 179.92,180.56 385.36,317.45 616.33,411.84 229.75,94.41 475.31,141.61 734.24,141.61 254.07,0 494.77,-47.2 724.51,-141.61 228.54,-94.39 435.2,-231.28 617.54,-411.84 179.91,-179.37 318.5,-383.51 414.53,-612.45 96.04,-230.1 144.65,-470.85 144.65,-724.55zm882.55 0l0 0c0,359.93 -69.29,699.78 -207.87,1019.58 -139.8,320.98 -341.59,606.55 -607.82,857.91 -267.44,251.36 -570.12,443.71 -908.07,577.05 -336.72,133.35 -690.48,200.61 -1060.03,200.61 -375.63,0 -733.02,-67.26 -1074.61,-201.78 -340.37,-135.72 -640.63,-326.88 -901.99,-575.88 -266.23,-251.36 -468.02,-535.76 -605.39,-854.36 -137.36,-317.45 -206.66,-658.48 -206.66,-1023.13 0,-362.28 69.3,-703.32 206.66,-1023.12 137.37,-321 339.16,-607.74 605.39,-861.44 266.22,-251.36 567.7,-442.54 904.42,-573.51 336.73,-131 694.12,-197.08 1072.18,-197.08 374.41,0 729.38,66.07 1066.1,197.08 335.52,130.97 636.99,322.16 901.99,573.51 266.23,256.06 468.02,545.17 607.82,866.16 138.58,322.16 207.87,660.83 207.87,1018.4z"/>
    <path class="fil1" d="M14050.55 2066.37l562.15 0 0 897.29 -610.01 0c-11.41,-100.89 -17.14,-203.71 -17.14,-308.52 0,-202.91 21.74,-399.17 64.99,-588.77zm550.08 2260.72l0 0 12.07 0 0 13.87 -12.07 -13.87z"/>
   </g>
  </g>
 </g>
</svg>
