<?xml version="1.0" encoding="UTF-8"?>
<!DOCTYPE svg PUBLIC "-//W3C//DTD SVG 1.1//EN" "http://www.w3.org/Graphics/SVG/1.1/DTD/svg11.dtd">
<!-- Creator: CorelDRAW -->
<svg xmlns="http://www.w3.org/2000/svg" xml:space="preserve" width="6.35mm" height="4.2296mm" version="1.1" style="shape-rendering:geometricPrecision; text-rendering:geometricPrecision; image-rendering:optimizeQuality; fill-rule:evenodd; clip-rule:evenodd"
viewBox="0 0 635 422.96"
 xmlns:xlink="http://www.w3.org/1999/xlink"
 xmlns:xodm="http://www.corel.com/coreldraw/odm/2003">
 <defs>
  <style type="text/css">
   <![CDATA[
    .fil0 {fill:black}
   ]]>
  </style>
 </defs>
 <g id="Layer_x0020_1">
  <metadata id="CorelCorpID_0Corel-Layer"/>
  <g id="_1785727431392">
   <path class="fil0" d="M0.02 422.98c2.16,-0.26 2.06,-1.03 3,-3.14 3.67,-8.21 7.95,-15.62 12.1,-23.31l22.58 -36.43c5.21,-7.36 10.33,-15.28 16.05,-21.71 1.25,-1.41 1.53,-1.99 2.72,-3.55l22.3 -25.1c2.32,-2.27 4.21,-4.1 6.52,-6.36l21.03 -18.6c19.04,-14.38 40.78,-31.23 61.15,-41.04 13.94,-6.71 27.12,-14.5 41.72,-20.1 8.92,-3.42 17.73,-7.62 26.87,-10.04l13.64 -4.3c1.92,-0.52 2.49,-1.02 4.64,-1.58l126.47 -26.55c3.88,-0.71 6.71,-1.01 10.72,-1.05l30.6 -3.74c11.7,-2.47 49.36,-4.46 63.11,-5.5 2.52,-0.19 2.38,-0.75 5.13,-0.86 8.84,-0.36 17.45,-1.69 26.89,-1.63 4.13,0.02 6.31,-0.89 10.84,-0.86l10.86 -0.84c-0.22,3.94 -6,26.2 -7.43,30.15 3.68,0 6.56,-1.66 9.86,-3.13 1.49,-0.66 1.27,-0.62 3.13,-1.28 4.09,-1.46 8.59,-3.34 13.02,-5.21l70.74 -27.83c2.75,-1.07 4.44,-1.16 6.7,-2.75 -0.57,-3.12 -5.77,-8.84 -7.75,-11.26l-16.66 -21.65c-2.95,-3.64 -5.45,-7.5 -8.38,-11.17l-20.85 -27.23c-2.67,-3.12 -10.65,-15.48 -13.23,-15.79 -1.23,3.76 -2.33,9.34 -3.43,13.4 -4.62,17.08 -1.21,16.84 -13.72,16.74 -8.78,-0.07 -26.76,1.84 -36,2.52l-94.28 10.08c-4.63,0.06 -7.42,0.41 -11.69,1.3 -9.17,1.9 -19.02,1.68 -29.3,3.96 -1.67,0.37 -3.52,0.37 -5.81,0.71 -7.5,1.1 -15.13,3.47 -22.38,4.05 -2.75,0.22 -2.91,0.53 -5.45,1.22 -1.91,0.51 -3.72,0.46 -5.66,0.91 -3.77,0.89 -7.19,1.7 -10.83,2.56 -4.19,0.99 -6.89,1.31 -11.05,2.24l-42.49 12.28c-1.86,0.56 -3.57,1.01 -5.16,1.64 -14.94,5.95 -30.36,10.25 -45.09,17.68l-47.76 22.14c-14.09,7.73 -27.03,15.09 -40.54,24.34 -1.75,1.2 -2.78,1.82 -4.29,2.93 -2.84,2.1 -5.36,3.96 -8.29,6.27l-23.95 20.18c-15.48,13.89 -30.02,30.05 -42.76,48.72 -14.8,21.68 -28.13,46.79 -38.33,73.66l-16.39 49.69c-0.66,2.19 -1.12,4.62 -1.65,6.79 -0.72,2.91 -1.28,4.22 -1.79,7.43l0 0z"/>
   <path class="fil0" d="M44.03 282.27c2.78,-2.72 5.16,-8.02 8.43,-12.76l36.54 -50.32c1.75,-2.07 3.17,-3.48 4.84,-5.47 27.39,-32.78 67.05,-57.54 100.43,-73.93 22.06,-10.83 33.32,-15.15 53.99,-23.9l28.52 -10.13c5.09,-1.59 9.47,-3.34 14.63,-4.52l14.61 -4.55c15.32,-4.57 30.69,-7.71 45.06,-11.85l54.13 -11.14c2.15,-0.16 6.32,-0.75 7.48,-2.44l6.95 -28.34c1.45,-6.62 6.45,-24.47 6.73,-29.5 -3.03,0 -4.75,1.26 -7.47,1.61 -3.31,0.42 -4.88,1.15 -7.48,1.61 -3.09,0.54 -5,1.25 -7.43,1.67 -8.41,1.45 -18.05,4.49 -26.35,6.61l-11.73 2.91c-10.64,3.62 -25.24,6.76 -36.7,10.71l-85.15 31c-2.28,0.95 -4.57,2.4 -6.86,3.35l-20.06 9.12c-1.29,0.58 -2.42,1.08 -3.49,1.59 -2.14,1 -1.46,0.9 -3.33,1.82 -4.53,2.24 -8.7,4.4 -13.11,6.75l-6.24 3.42c-12.34,6.54 -24.88,15.18 -36.73,23.23 -10.06,6.83 -19.11,15.3 -28.51,23.55 -8.69,7.62 -17.67,17.6 -25.56,27.03 -2.09,2.5 -2.92,3.68 -4.84,6.31l-6.87 9.19c-13.91,19.06 -17.32,27.82 -27.78,49.75l-5.19 12.49c-2.17,5.56 -4.17,10.84 -6.12,16.99 -1.51,4.77 -4.65,13.79 -5.34,18.14z"/>
   <path class="fil0" d="M76.03 178.42c2.75,-2.7 8.26,-14.25 11.28,-18.65l5.63 -8.5c0.08,-0.12 0.2,-0.3 0.28,-0.43 0.04,-0.06 0.69,-1.02 0.85,-1.26l14.05 -18.78c5.62,-6.66 12.14,-14.49 18.24,-20.18 3.29,-3.07 6.4,-5.98 9.86,-8.99 7.03,-6.14 14.25,-11.17 21.61,-16.08 9.34,-6.24 26.2,-15.42 35.9,-18.58 4.95,-1.61 3.65,-2.78 6.56,-13.83l12.91 -53.12c-2.82,0.35 -12.89,8.62 -16.25,11.37l-5.28 3.99c-1.04,0.79 -1.66,1.32 -2.6,2.05 -1.07,0.86 -1.69,1.14 -2.69,1.92l-15.86 12.78c-3.58,2.79 -6.44,5.7 -10.08,8.67 -13.46,10.98 -35.44,34.45 -46.26,50.3 -9.86,14.46 -10.48,17.39 -18.3,32.64 -1.26,2.45 -2.19,4.53 -3.28,6.93 -5.44,12.01 -10.03,25.55 -14.12,38.77 -1.09,3.53 -1.8,4.94 -2.45,8.98z"/>
  </g>
 </g>
</svg>
