<?xml version="1.0" encoding="UTF-8"?>
<!DOCTYPE svg PUBLIC "-//W3C//DTD SVG 1.1//EN" "http://www.w3.org/Graphics/SVG/1.1/DTD/svg11.dtd">
<!-- Creator: CorelDRAW -->
<svg xmlns="http://www.w3.org/2000/svg" xml:space="preserve" width="94.0649mm" height="42.7567mm" version="1.1" style="shape-rendering:geometricPrecision; text-rendering:geometricPrecision; image-rendering:optimizeQuality; fill-rule:evenodd; clip-rule:evenodd"
viewBox="0 0 9392.26 4269.2"
 xmlns:xlink="http://www.w3.org/1999/xlink"
 xmlns:xodm="http://www.corel.com/coreldraw/odm/2003">
 <defs>
  <style type="text/css">
   <![CDATA[
    .fil0 {fill:black}
   ]]>
  </style>
 </defs>
 <g id="Layer_x0020_1">
  <metadata id="CorelCorpID_0Corel-Layer"/>
  <g id="_1785727431392">
   <path class="fil0" d="M-0 4269.2c31.89,-2.65 30.48,-10.41 44.4,-31.68 54.22,-82.86 117.6,-157.67 178.97,-235.27l333.88 -367.78c77.2,-74.22 152.93,-154.2 237.41,-219.1 18.5,-14.21 22.67,-20.08 40.29,-35.8l329.91 -253.41c34.26,-22.94 62.25,-41.37 96.44,-64.17l311.07 -187.73c281.61,-145.21 603.26,-315.29 904.52,-414.27 206.15,-67.73 401.11,-146.32 617.18,-202.85 131.87,-34.51 262.2,-76.95 397.38,-101.41l201.84 -43.31c28.3,-5.27 36.73,-10.36 68.59,-15.96l1870.8 -268.03c57.25,-7.15 99.16,-10.15 158.51,-10.56l452.6 -37.72c173.03,-24.99 730.19,-45.05 933.59,-55.53 37.24,-1.92 35.23,-7.63 75.79,-8.75 130.88,-3.59 258.24,-17.02 397.8,-16.45 61.05,0.26 93.39,-8.94 160.4,-8.68l160.65 -8.43c-3.3,39.74 -88.77,264.4 -109.89,304.34 54.38,0 96.98,-16.84 145.86,-31.67 21.95,-6.65 18.71,-6.21 46.26,-12.91 60.45,-14.69 127.05,-33.7 192.59,-52.58l1046.36 -280.89c40.76,-10.8 65.71,-11.72 99.08,-27.73 -8.43,-31.56 -85.27,-89.24 -114.55,-113.71l-246.48 -218.5c-43.69,-36.74 -80.59,-75.7 -123.93,-112.77l-308.45 -274.86c-39.45,-31.49 -157.54,-156.19 -195.7,-159.37 -18.21,37.97 -34.48,94.29 -50.72,135.26 -68.37,172.4 -17.88,170.03 -202.94,169.03 -129.84,-0.7 -395.83,18.58 -532.55,25.4l-1394.57 101.78c-68.56,0.58 -109.71,4.12 -172.91,13.07 -135.63,19.2 -281.36,16.95 -433.43,39.98 -24.74,3.74 -52.09,3.73 -85.86,7.14 -111.01,11.16 -223.89,35.04 -331.04,40.93 -40.81,2.25 -43.06,5.33 -80.74,12.26 -28.27,5.19 -54.98,4.66 -83.72,9.27 -55.71,8.93 -106.24,17.09 -160.21,25.78 -61.98,9.98 -101.81,13.21 -163.38,22.61l-628.47 123.92c-27.6,5.7 -52.93,10.25 -76.37,16.62 -220.93,60 -449.06,103.39 -666.98,178.4l-706.4 223.52c-208.53,77.99 -399.86,152.34 -599.74,245.66 -25.92,12.1 -41.19,18.42 -63.38,29.61 -42.05,21.16 -79.29,39.93 -122.68,63.3l-354.28 203.67c-228.91,140.2 -444.05,303.26 -632.57,491.78 -218.82,218.82 -416.01,472.24 -566.91,743.44l-242.42 501.52c-9.75,22.12 -16.52,46.64 -24.42,68.57 -10.6,29.42 -18.88,42.61 -26.43,75.02z"/>
   <path class="fil0" d="M650.95 2848.95c41.06,-27.5 76.29,-81 124.76,-128.84l540.42 -507.86c25.91,-20.94 46.96,-35.17 71.56,-55.26 405.21,-330.89 991.83,-580.78 1485.63,-746.19 326.27,-109.29 492.81,-152.91 798.56,-241.26l421.9 -102.24c75.28,-16.03 140.15,-33.78 216.4,-45.67l216.15 -45.92c226.67,-46.14 453.97,-77.76 666.58,-119.63l800.66 -112.37c31.74,-1.6 93.52,-7.61 110.62,-24.62l102.81 -286.08c21.43,-66.81 95.36,-247.02 99.58,-297.75 -44.88,0 -70.28,12.69 -110.58,16.23 -48.89,4.28 -72.16,11.61 -110.6,16.21 -45.74,5.46 -73.92,12.65 -109.92,16.89 -124.45,14.64 -267.05,45.35 -389.81,66.69l-173.51 29.4c-157.27,36.51 -373.26,68.21 -542.82,108.12l-1259.57 312.86c-33.77,9.65 -67.63,24.22 -101.4,33.86l-296.81 92.07c-19.04,5.86 -35.82,10.93 -51.63,16.01 -31.59,10.12 -21.63,9.14 -49.21,18.42 -67.03,22.57 -128.76,44.42 -193.92,68.15l-92.29 34.53c-182.49,65.94 -368.03,153.21 -543.33,234.42 -148.82,68.96 -282.74,154.44 -421.75,237.66 -128.54,76.94 -261.38,177.7 -378.08,272.87 -30.94,25.22 -43.13,37.19 -71.59,63.66l-101.61 92.84c-205.7,192.3 -256.18,280.78 -410.91,502.11l-76.82 126.07c-32.13,56.15 -61.73,109.41 -90.53,171.54 -22.32,48.1 -68.73,139.16 -78.96,183.1z"/>
   <path class="fil0" d="M1124.37 1800.67c40.66,-27.23 122.16,-143.77 166.84,-188.21l83.28 -85.8c1.19,-1.27 2.92,-3.09 4.11,-4.34 0.57,-0.59 10.13,-10.31 12.61,-12.74l207.76 -189.58c83.2,-67.2 179.57,-146.2 269.77,-203.65 48.72,-31.03 94.78,-60.31 145.92,-90.78 103.91,-61.93 210.77,-112.73 319.6,-162.28 138.2,-62.91 387.57,-155.6 531.09,-187.49 73.17,-16.26 53.96,-28.06 97.08,-139.63l190.87 -536.16c-41.74,3.47 -190.58,87.02 -240.34,114.73l-78.08 40.27c-15.48,7.99 -24.61,13.31 -38.42,20.76 -15.94,8.61 -25,11.45 -39.88,19.29l-234.51 129.01c-52.99,28.18 -95.26,57.6 -149.13,87.57 -199.18,110.78 -524.26,347.72 -684.26,507.73 -145.96,145.96 -155.14,175.46 -270.79,329.44 -18.56,24.72 -32.35,45.68 -48.44,69.91 -80.48,121.27 -148.37,257.91 -208.87,391.35 -16.14,35.6 -26.71,49.87 -36.2,90.61z"/>
  </g>
 </g>
</svg>
